DejaVuSans.ufo
<glyph name="exclam" format="2">
  <advance width="821"/>
  <unicode hex="0021"/>
  <outline>
    <contour>
      <point x="330" y="481" type="line"/>
      <point x="492" y="481" type="line"/>
      <point x="512" y="838" type="line"/>
      <point x="512" y="1493" type="line"/>
      <point x="309" y="1493" type="line"/>
      <point x="309" y="838" type="line"/>
    </contour>
    <contour>
      <point x="309" y="0" type="line"/>
      <point x="512" y="0" type="line"/>
      <point x="512" y="254" type="line"/>
      <point x="309" y="254" type="line"/>
    </contour>
  </outline>
</glyph>
<glyph name="numbersign" format="2">
  <advance width="1716"/>
  <unicode hex="0023"/>
  <outline>
    <contour>
      <point x="369" y="0" type="line"/>
      <point x="530" y="0" type="line"/>
      <point x="633" y="414" type="line"/>
      <point x="926" y="414" type="line"/>
      <point x="823" y="0" type="line"/>
      <point x="983" y="0" type="line"/>
      <point x="1087" y="414" type="line"/>
      <point x="1444" y="414" type="line"/>
      <point x="1444" y="567" type="line"/>
      <point x="1126" y="567" type="line"/>
      <point x="1208" y="901" type="line"/>
      <point x="1559" y="901" type="line"/>
      <point x="1559" y="1055" type="line"/>
      <point x="1247" y="1055" type="line"/>
      <point x="1350" y="1470" type="line"/>
      <point x="1190" y="1470" type="line"/>
      <point x="1085" y="1055" type="line"/>
      <point x="793" y="1055" type="line"/>
      <point x="897" y="1470" type="line"/>
      <point x="735" y="1470" type="line"/>
      <point x="633" y="1055" type="line"/>
      <point x="272" y="1055" type="line"/>
      <point x="272" y="901" type="line"/>
      <point x="594" y="901" type="line"/>
      <point x="510" y="567" type="line"/>
      <point x="158" y="567" type="line"/>
      <point x="158" y="414" type="line"/>
      <point x="473" y="414" type="line"/>
    </contour>
    <contour>
      <point x="672" y="567" type="line"/>
      <point x="756" y="901" type="line"/>
      <point x="1047" y="901" type="line"/>
      <point x="965" y="567" type="line"/>
    </contour>
  </outline>
</glyph>
<glyph name="dollar" format="2">
  <advance width="1303"/>
  <unicode hex="0024"/>
  <outline>
    <contour>
      <point x="592" y="-301" type="line"/>
      <point x="692" y="-301" type="line"/>
      <point x="692" y="2" type="line"/>
      <point x="977" y="22"/>
      <point x="1133" y="156"/>
      <point x="1133" y="381" type="curve" smooth="yes"/>
      <point x="1133" y="589"/>
      <point x="995" y="705"/>
      <point x="692" y="752" type="curve"/>
      <point x="692" y="1179" type="line"/>
      <point x="815" y="1174"/>
      <point x="931" y="1143"/>
      <point x="1042" y="1087" type="curve"/>
      <point x="1042" y="1262" type="line"/>
      <point x="931" y="1298"/>
      <point x="816" y="1319"/>
      <point x="692" y="1324" type="curve"/>
      <point x="692" y="1556" type="line"/>
      <point x="592" y="1556" type="line"/>
      <point x="592" y="1321" type="line"/>
      <point x="320" y="1302"/>
      <point x="170" y="1173"/>
      <point x="170" y="956" type="curve" smooth="yes"/>
      <point x="170" y="756"/>
      <point x="297" y="646"/>
      <point x="592" y="598" type="curve"/>
      <point x="592" y="142" type="line"/>
      <point x="444" y="143"/>
      <point x="306" y="187"/>
      <point x="170" y="272" type="curve"/>
      <point x="170" y="92" type="line"/>
      <point x="311" y="32"/>
      <point x="451" y="3"/>
      <point x="591" y="0" type="curve"/>
    </contour>
    <contour>
      <point x="692" y="145" type="curve"/>
      <point x="692" y="578" type="line"/>
      <point x="869" y="546"/>
      <point x="948" y="479"/>
      <point x="948" y="362" type="curve" smooth="yes"/>
      <point x="948" y="242"/>
      <point x="861" y="168"/>
    </contour>
    <contour>
      <point x="592" y="770" type="line"/>
      <point x="425" y="798"/>
      <point x="354" y="858"/>
      <point x="354" y="973" type="curve" smooth="yes"/>
      <point x="354" y="1090"/>
      <point x="437" y="1163"/>
      <point x="592" y="1180" type="curve"/>
    </contour>
  </outline>
</glyph>
<glyph name="ampersand" format="2">
  <advance width="1597"/>
  <unicode hex="0026"/>
  <outline>
    <contour>
      <point x="498" y="803" type="line"/>
      <point x="407" y="722"/>
      <point x="322" y="561"/>
      <point x="322" y="473" type="qcurve" smooth="yes"/>
      <point x="322" y="327"/>
      <point x="534" y="133"/>
      <point x="694" y="133" type="qcurve" smooth="yes"/>
      <point x="789" y="133"/>
      <point x="955" y="196"/>
      <point x="1028" y="260" type="qcurve"/>
    </contour>
    <contour>
      <point x="639" y="915" type="qcurve" smooth="yes"/>
      <point x="1147" y="395" type="line"/>
      <point x="1206" y="484"/>
      <point x="1272" y="687"/>
      <point x="1278" y="801" type="qcurve"/>
      <point x="1464" y="801" type="line"/>
      <point x="1452" y="669"/>
      <point x="1348" y="411"/>
      <point x="1255" y="285" type="qcurve"/>
      <point x="1534" y="0" type="line"/>
      <point x="1282" y="0" type="line"/>
      <point x="1139" y="147" type="line"/>
      <point x="1035" y="58"/>
      <point x="807" y="-29"/>
      <point x="676" y="-29" type="qcurve" smooth="yes"/>
      <point x="435" y="-29"/>
      <point x="129" y="246"/>
      <point x="129" y="461" type="qcurve" smooth="yes"/>
      <point x="129" y="589"/>
      <point x="263" y="814"/>
      <point x="397" y="913" type="qcurve"/>
      <point x="349" y="976"/>
      <point x="299" y="1101"/>
      <point x="299" y="1161" type="qcurve" smooth="yes"/>
      <point x="299" y="1323"/>
      <point x="521" y="1520"/>
      <point x="705" y="1520" type="qcurve" smooth="yes"/>
      <point x="788" y="1520"/>
      <point x="953" y="1484"/>
      <point x="1038" y="1448" type="qcurve"/>
      <point x="1038" y="1266" type="line"/>
      <point x="951" y="1313"/>
      <point x="793" y="1362"/>
      <point x="725" y="1362" type="qcurve" smooth="yes"/>
      <point x="620" y="1362"/>
      <point x="489" y="1251"/>
      <point x="489" y="1163" type="qcurve" smooth="yes"/>
      <point x="489" y="1112"/>
      <point x="548" y="1009"/>
    </contour>
  </outline>
</glyph>
<glyph name="parenleft" format="2">
  <advance width="799"/>
  <unicode hex="0028"/>
  <outline>
    <contour>
      <point x="635" y="1554" type="line"/>
      <point x="501" y="1324"/>
      <point x="371" y="874"/>
      <point x="371" y="643" type="qcurve" smooth="yes"/>
      <point x="371" y="412"/>
      <point x="502" y="-41"/>
      <point x="635" y="-270" type="qcurve"/>
      <point x="475" y="-270" type="line"/>
      <point x="325" y="-35"/>
      <point x="176" y="419"/>
      <point x="176" y="643" type="qcurve" smooth="yes"/>
      <point x="176" y="866"/>
      <point x="324" y="1318"/>
      <point x="475" y="1554" type="qcurve"/>
    </contour>
  </outline>
</glyph>
<glyph name="parenright" format="2">
  <advance width="799"/>
  <unicode hex="0029"/>
  <outline>
    <contour>
      <point x="164" y="-270" type="curve"/>
      <point x="324" y="-270" type="line"/>
      <point x="524" y="43"/>
      <point x="623" y="344"/>
      <point x="623" y="643" type="curve" smooth="yes"/>
      <point x="623" y="940"/>
      <point x="524" y="1239"/>
      <point x="324" y="1554" type="curve"/>
      <point x="164" y="1554" type="line"/>
      <point x="341" y="1247"/>
      <point x="428" y="951"/>
      <point x="428" y="643" type="curve" smooth="yes"/>
      <point x="428" y="335"/>
      <point x="341" y="35"/>
    </contour>
  </outline>
</glyph>
<glyph name="asterisk" format="2">
  <advance width="1024"/>
  <unicode hex="002A"/>
  <outline>
    <contour>
      <point x="963" y="1247" type="line"/>
      <point x="604" y="1053" type="line"/>
      <point x="963" y="858" type="line"/>
      <point x="905" y="760" type="line"/>
      <point x="569" y="963" type="line"/>
      <point x="569" y="586" type="line"/>
      <point x="455" y="586" type="line"/>
      <point x="455" y="963" type="line"/>
      <point x="119" y="760" type="line"/>
      <point x="61" y="858" type="line"/>
      <point x="420" y="1053" type="line"/>
      <point x="61" y="1247" type="line"/>
      <point x="119" y="1346" type="line"/>
      <point x="455" y="1143" type="line"/>
      <point x="455" y="1520" type="line"/>
      <point x="569" y="1520" type="line"/>
      <point x="569" y="1143" type="line"/>
      <point x="905" y="1346" type="line"/>
    </contour>
  </outline>
</glyph>
<glyph name="comma" format="2">
  <advance width="651"/>
  <unicode hex="002C"/>
  <outline>
    <contour>
      <point x="240" y="254" type="line"/>
      <point x="451" y="254" type="line"/>
      <point x="451" y="82" type="line"/>
      <point x="287" y="-238" type="line"/>
      <point x="158" y="-238" type="line"/>
      <point x="240" y="82" type="line"/>
    </contour>
  </outline>
</glyph>
<glyph name="period" format="2">
  <advance width="651"/>
  <unicode hex="002E"/>
  <outline>
    <contour>
      <point x="219" y="0" type="line"/>
      <point x="430" y="0" type="line"/>
      <point x="430" y="254" type="line"/>
      <point x="219" y="254" type="line"/>
    </contour>
  </outline>
</glyph>
<glyph name="slash" format="2">
  <advance width="690"/>
  <unicode hex="002F"/>
  <outline>
    <contour>
      <point x="0" y="-190" type="line"/>
      <point x="170" y="-190" type="line"/>
      <point x="690" y="1493" type="line"/>
      <point x="520" y="1493" type="line"/>
    </contour>
  </outline>
</glyph>
<glyph name="zero" format="2">
  <advance width="1303"/>
  <unicode hex="0030"/>
  <anchor x="651" y="0" name="below"/>
  <anchor x="651" y="1520" name="above"/>
  <outline>
    <contour>
      <point x="651" y="1360" type="qcurve" smooth="yes"/>
      <point x="495" y="1360"/>
      <point x="338" y="1053"/>
      <point x="338" y="745" type="qcurve" smooth="yes"/>
      <point x="338" y="438"/>
      <point x="495" y="131"/>
      <point x="651" y="131" type="qcurve" smooth="yes"/>
      <point x="808" y="131"/>
      <point x="965" y="438"/>
      <point x="965" y="745" type="qcurve" smooth="yes"/>
      <point x="965" y="1053"/>
      <point x="808" y="1360"/>
    </contour>
    <contour>
      <point x="651" y="1520" type="qcurve" smooth="yes"/>
      <point x="902" y="1520"/>
      <point x="1167" y="1123"/>
      <point x="1167" y="745" type="qcurve" smooth="yes"/>
      <point x="1167" y="368"/>
      <point x="902" y="-29"/>
      <point x="651" y="-29" type="qcurve" smooth="yes"/>
      <point x="400" y="-29"/>
      <point x="135" y="368"/>
      <point x="135" y="745" type="qcurve" smooth="yes"/>
      <point x="135" y="1123"/>
      <point x="400" y="1520"/>
    </contour>
  </outline>
</glyph>
<glyph name="one" format="2">
  <advance width="1303"/>
  <unicode hex="0031"/>
  <anchor x="651" y="0" name="below"/>
  <anchor x="651" y="1520" name="above"/>
  <outline>
    <contour>
      <point x="254" y="0" type="line"/>
      <point x="1114" y="0" type="line"/>
      <point x="1114" y="170" type="line"/>
      <point x="784" y="170" type="line"/>
      <point x="784" y="1493" type="line"/>
      <point x="582" y="1493" type="line"/>
      <point x="225" y="1421" type="line"/>
      <point x="225" y="1237" type="line"/>
      <point x="584" y="1309" type="line"/>
      <point x="584" y="170" type="line"/>
      <point x="254" y="170" type="line"/>
    </contour>
  </outline>
</glyph>
<glyph name="two" format="2">
  <advance width="1303"/>
  <unicode hex="0032"/>
  <anchor x="651" y="0" name="below"/>
  <anchor x="651" y="1520" name="above"/>
  <outline>
    <contour>
      <point x="150" y="0" type="line"/>
      <point x="1098" y="0" type="line"/>
      <point x="1098" y="170" type="line"/>
      <point x="393" y="170" type="line"/>
      <point x="556" y="336"/>
      <point x="682" y="465"/>
      <point x="771" y="558" type="curve" smooth="yes"/>
      <point x="860" y="650"/>
      <point x="913" y="706"/>
      <point x="930" y="725" type="curve" smooth="yes"/>
      <point x="1051" y="874"/>
      <point x="1090" y="971"/>
      <point x="1090" y="1094" type="curve" smooth="yes"/>
      <point x="1090" y="1353"/>
      <point x="891" y="1520"/>
      <point x="582" y="1520" type="curve" smooth="yes"/>
      <point x="465" y="1520"/>
      <point x="323" y="1486"/>
      <point x="160" y="1421" type="curve"/>
      <point x="160" y="1217" type="line"/>
      <point x="320" y="1306"/>
      <point x="459" y="1350"/>
      <point x="586" y="1350" type="curve" smooth="yes"/>
      <point x="765" y="1350"/>
      <point x="887" y="1240"/>
      <point x="887" y="1081" type="curve" smooth="yes"/>
      <point x="887" y="984"/>
      <point x="842" y="893"/>
      <point x="713" y="748" type="curve" smooth="yes"/>
      <point x="679" y="709"/>
      <point x="596" y="623"/>
      <point x="464" y="490" type="curve" smooth="yes"/>
      <point x="331" y="356"/>
      <point x="227" y="249"/>
      <point x="150" y="170" type="curve"/>
    </contour>
  </outline>
</glyph>
<glyph name="three" format="2">
  <advance width="1303"/>
  <unicode hex="0033"/>
  <anchor x="651" y="0" name="below"/>
  <anchor x="651" y="1520" name="above"/>
  <outline>
    <contour>
      <point x="555" y="-29" type="curve" smooth="yes"/>
      <point x="928" y="-29"/>
      <point x="1139" y="139"/>
      <point x="1139" y="434" type="curve" smooth="yes"/>
      <point x="1139" y="626"/>
      <point x="1024" y="764"/>
      <point x="831" y="805" type="curve"/>
      <point x="1006" y="849"/>
      <point x="1104" y="968"/>
      <point x="1104" y="1133" type="curve" smooth="yes"/>
      <point x="1104" y="1370"/>
      <point x="913" y="1520"/>
      <point x="606" y="1520" type="curve" smooth="yes"/>
      <point x="487" y="1520"/>
      <point x="354" y="1499"/>
      <point x="201" y="1456" type="curve"/>
      <point x="201" y="1276" type="line"/>
      <point x="353" y="1327"/>
      <point x="477" y="1350"/>
      <point x="588" y="1350" type="curve" smooth="yes"/>
      <point x="791" y="1350"/>
      <point x="903" y="1265"/>
      <point x="903" y="1112" type="curve" smooth="yes"/>
      <point x="903" y="963"/>
      <point x="795" y="881"/>
      <point x="596" y="881" type="curve" smooth="yes"/>
      <point x="414" y="881" type="line"/>
      <point x="414" y="715" type="line"/>
      <point x="588" y="715" type="line" smooth="yes"/>
      <point x="808" y="715"/>
      <point x="938" y="610"/>
      <point x="938" y="434" type="curve" smooth="yes"/>
      <point x="938" y="243"/>
      <point x="802" y="141"/>
      <point x="549" y="141" type="curve" smooth="yes"/>
      <point x="404" y="141"/>
      <point x="268" y="175"/>
      <point x="156" y="240" type="curve"/>
      <point x="156" y="45" type="line"/>
      <point x="297" y="-4"/>
      <point x="430" y="-29"/>
    </contour>
  </outline>
</glyph>
<glyph name="four" format="2">
  <advance width="1303"/>
  <unicode hex="0034"/>
  <anchor x="651" y="0" name="below"/>
  <anchor x="651" y="1520" name="above"/>
  <outline>
    <contour>
      <point x="774" y="1317" type="line"/>
      <point x="264" y="520" type="line"/>
      <point x="774" y="520" type="line"/>
    </contour>
    <contour>
      <point x="721" y="1493" type="line"/>
      <point x="975" y="1493" type="line"/>
      <point x="975" y="520" type="line"/>
      <point x="1188" y="520" type="line"/>
      <point x="1188" y="352" type="line"/>
      <point x="975" y="352" type="line"/>
      <point x="975" y="0" type="line"/>
      <point x="774" y="0" type="line"/>
      <point x="774" y="352" type="line"/>
      <point x="100" y="352" type="line"/>
      <point x="100" y="547" type="line"/>
    </contour>
  </outline>
</glyph>
<glyph name="five" format="2">
  <advance width="1303"/>
  <unicode hex="0035"/>
  <anchor x="651" y="0" name="below"/>
  <anchor x="651" y="1520" name="above"/>
  <outline>
    <contour>
      <point x="221" y="1493" type="line"/>
      <point x="1014" y="1493" type="line"/>
      <point x="1014" y="1323" type="line"/>
      <point x="406" y="1323" type="line"/>
      <point x="406" y="957" type="line"/>
      <point x="450" y="972"/>
      <point x="538" y="987"/>
      <point x="582" y="987" type="qcurve" smooth="yes"/>
      <point x="832" y="987"/>
      <point x="1124" y="713"/>
      <point x="1124" y="479" type="qcurve" smooth="yes"/>
      <point x="1124" y="238"/>
      <point x="824" y="-29"/>
      <point x="551" y="-29" type="qcurve" smooth="yes"/>
      <point x="457" y="-29"/>
      <point x="262" y="3"/>
      <point x="158" y="35" type="qcurve"/>
      <point x="158" y="238" type="line"/>
      <point x="248" y="189"/>
      <point x="440" y="141"/>
      <point x="547" y="141" type="qcurve" smooth="yes"/>
      <point x="720" y="141"/>
      <point x="922" y="323"/>
      <point x="922" y="479" type="qcurve" smooth="yes"/>
      <point x="922" y="635"/>
      <point x="720" y="817"/>
      <point x="547" y="817" type="qcurve" smooth="yes"/>
      <point x="466" y="817"/>
      <point x="305" y="781"/>
      <point x="221" y="743" type="qcurve"/>
    </contour>
  </outline>
</glyph>
<glyph name="six" format="2">
  <advance width="1303"/>
  <unicode hex="0036"/>
  <anchor x="651" y="0" name="below"/>
  <anchor x="651" y="1520" name="above"/>
  <outline>
    <contour>
      <point x="676" y="827" type="qcurve" smooth="yes"/>
      <point x="540" y="827"/>
      <point x="381" y="641"/>
      <point x="381" y="479" type="qcurve" smooth="yes"/>
      <point x="381" y="318"/>
      <point x="540" y="131"/>
      <point x="676" y="131" type="qcurve" smooth="yes"/>
      <point x="812" y="131"/>
      <point x="971" y="318"/>
      <point x="971" y="479" type="qcurve" smooth="yes"/>
      <point x="971" y="641"/>
      <point x="812" y="827"/>
    </contour>
    <contour>
      <point x="1077" y="1460" type="qcurve"/>
      <point x="1077" y="1276" type="line"/>
      <point x="1001" y="1312"/>
      <point x="846" y="1350"/>
      <point x="770" y="1350" type="qcurve" smooth="yes"/>
      <point x="570" y="1350"/>
      <point x="359" y="1080"/>
      <point x="344" y="807" type="qcurve"/>
      <point x="403" y="894"/>
      <point x="581" y="987"/>
      <point x="688" y="987" type="qcurve" smooth="yes"/>
      <point x="913" y="987"/>
      <point x="1174" y="714"/>
      <point x="1174" y="479" type="qcurve" smooth="yes"/>
      <point x="1174" y="249"/>
      <point x="902" y="-29"/>
      <point x="676" y="-29" type="qcurve" smooth="yes"/>
      <point x="417" y="-29"/>
      <point x="143" y="368"/>
      <point x="143" y="745" type="qcurve" smooth="yes"/>
      <point x="143" y="1099"/>
      <point x="479" y="1520"/>
      <point x="762" y="1520" type="qcurve" smooth="yes"/>
      <point x="838" y="1520"/>
      <point x="993" y="1490"/>
    </contour>
  </outline>
</glyph>
<glyph name="seven" format="2">
  <advance width="1303"/>
  <unicode hex="0037"/>
  <anchor x="651" y="0" name="below"/>
  <anchor x="651" y="1520" name="above"/>
  <outline>
    <contour>
      <point x="375" y="0" type="line"/>
      <point x="586" y="0" type="line"/>
      <point x="1128" y="1407" type="line"/>
      <point x="1128" y="1493" type="line"/>
      <point x="168" y="1493" type="line"/>
      <point x="168" y="1323" type="line"/>
      <point x="885" y="1323" type="line"/>
    </contour>
  </outline>
</glyph>
<glyph name="eight" format="2">
  <advance width="1303"/>
  <unicode hex="0038"/>
  <anchor x="651" y="0" name="below"/>
  <anchor x="651" y="1520" name="above"/>
  <outline>
    <contour>
      <point x="651" y="-29" type="curve" smooth="yes"/>
      <point x="980" y="-29"/>
      <point x="1163" y="131"/>
      <point x="1163" y="420" type="curve" smooth="yes"/>
      <point x="1163" y="611"/>
      <point x="1049" y="750"/>
      <point x="854" y="795" type="curve"/>
      <point x="1026" y="838"/>
      <point x="1128" y="962"/>
      <point x="1128" y="1133" type="curve" smooth="yes"/>
      <point x="1128" y="1372"/>
      <point x="948" y="1520"/>
      <point x="651" y="1520" type="curve" smooth="yes"/>
      <point x="355" y="1520"/>
      <point x="174" y="1372"/>
      <point x="174" y="1133" type="curve" smooth="yes"/>
      <point x="174" y="962"/>
      <point x="276" y="838"/>
      <point x="449" y="795" type="curve"/>
      <point x="254" y="750"/>
      <point x="139" y="611"/>
      <point x="139" y="420" type="curve" smooth="yes"/>
      <point x="139" y="131"/>
      <point x="322" y="-29"/>
    </contour>
    <contour>
      <point x="651" y="131" type="curve" smooth="yes"/>
      <point x="459" y="131"/>
      <point x="342" y="240"/>
      <point x="342" y="420" type="curve" smooth="yes"/>
      <point x="342" y="600"/>
      <point x="459" y="709"/>
      <point x="651" y="709" type="curve" smooth="yes"/>
      <point x="844" y="709"/>
      <point x="961" y="600"/>
      <point x="961" y="420" type="curve" smooth="yes"/>
      <point x="961" y="241"/>
      <point x="843" y="131"/>
    </contour>
    <contour>
      <point x="651" y="868" type="curve" smooth="yes"/>
      <point x="476" y="868"/>
      <point x="375" y="959"/>
      <point x="375" y="1114" type="curve" smooth="yes"/>
      <point x="375" y="1269"/>
      <point x="476" y="1360"/>
      <point x="651" y="1360" type="curve" smooth="yes"/>
      <point x="824" y="1360"/>
      <point x="928" y="1269"/>
      <point x="928" y="1114" type="curve" smooth="yes"/>
      <point x="928" y="959"/>
      <point x="824" y="868"/>
    </contour>
  </outline>
</glyph>
<glyph name="nine" format="2">
  <advance width="1303"/>
  <unicode hex="0039"/>
  <anchor x="651" y="0" name="below"/>
  <anchor x="651" y="1520" name="above"/>
  <outline>
    <contour>
      <point x="225" y="31" type="qcurve"/>
      <point x="225" y="215" type="line"/>
      <point x="301" y="179"/>
      <point x="457" y="141"/>
      <point x="532" y="141" type="qcurve" smooth="yes"/>
      <point x="732" y="141"/>
      <point x="943" y="410"/>
      <point x="958" y="684" type="qcurve"/>
      <point x="900" y="598"/>
      <point x="722" y="506"/>
      <point x="614" y="506" type="qcurve" smooth="yes"/>
      <point x="390" y="506"/>
      <point x="129" y="777"/>
      <point x="129" y="1012" type="qcurve" smooth="yes"/>
      <point x="129" y="1242"/>
      <point x="401" y="1520"/>
      <point x="627" y="1520" type="qcurve" smooth="yes"/>
      <point x="886" y="1520"/>
      <point x="1159" y="1123"/>
      <point x="1159" y="745" type="qcurve" smooth="yes"/>
      <point x="1159" y="392"/>
      <point x="824" y="-29"/>
      <point x="541" y="-29" type="qcurve" smooth="yes"/>
      <point x="465" y="-29"/>
      <point x="309" y="1"/>
    </contour>
    <contour>
      <point x="627" y="664" type="qcurve" smooth="yes"/>
      <point x="763" y="664"/>
      <point x="922" y="850"/>
      <point x="922" y="1012" type="qcurve" smooth="yes"/>
      <point x="922" y="1173"/>
      <point x="763" y="1360"/>
      <point x="627" y="1360" type="qcurve" smooth="yes"/>
      <point x="491" y="1360"/>
      <point x="332" y="1173"/>
      <point x="332" y="1012" type="qcurve" smooth="yes"/>
      <point x="332" y="850"/>
      <point x="491" y="664"/>
    </contour>
  </outline>
</glyph>
<glyph name="colon" format="2">
  <advance width="690"/>
  <unicode hex="003A"/>
  <outline>
    <contour>
      <point x="240" y="805" type="line"/>
      <point x="451" y="805" type="line"/>
      <point x="451" y="1059" type="line"/>
      <point x="240" y="1059" type="line"/>
    </contour>
    <contour>
      <point x="240" y="0" type="line"/>
      <point x="451" y="0" type="line"/>
      <point x="451" y="254" type="line"/>
      <point x="240" y="254" type="line"/>
    </contour>
  </outline>
</glyph>
<glyph name="semicolon" format="2">
  <advance width="690"/>
  <unicode hex="003B"/>
  <outline>
    <contour>
      <point x="240" y="1059" type="line"/>
      <point x="451" y="1059" type="line"/>
      <point x="451" y="805" type="line"/>
      <point x="240" y="805" type="line"/>
    </contour>
    <contour>
      <point x="240" y="254" type="line"/>
      <point x="451" y="254" type="line"/>
      <point x="451" y="82" type="line"/>
      <point x="287" y="-238" type="line"/>
      <point x="158" y="-238" type="line"/>
      <point x="240" y="82" type="line"/>
    </contour>
  </outline>
</glyph>
<glyph name="equal" format="2">
  <advance width="1716"/>
  <unicode hex="003D"/>
  <outline>
    <contour>
      <point x="217" y="352" type="line"/>
      <point x="1499" y="352" type="line"/>
      <point x="1499" y="522" type="line"/>
      <point x="217" y="522" type="line"/>
    </contour>
    <contour>
      <point x="217" y="762" type="line"/>
      <point x="1499" y="762" type="line"/>
      <point x="1499" y="930" type="line"/>
      <point x="217" y="930" type="line"/>
    </contour>
  </outline>
</glyph>
<glyph name="greater" format="2">
  <advance width="1716"/>
  <unicode hex="003E"/>
  <outline>
    <contour>
      <point x="217" y="1008" type="line"/>
      <point x="217" y="1190" type="line"/>
      <point x="1499" y="725" type="line"/>
      <point x="1499" y="559" type="line"/>
      <point x="217" y="94" type="line"/>
      <point x="217" y="276" type="line"/>
      <point x="1247" y="641" type="line"/>
    </contour>
  </outline>
</glyph>
<glyph name="question" format="2">
  <advance width="1087"/>
  <unicode hex="003F"/>
  <outline>
    <contour>
      <point x="391" y="254" type="line"/>
      <point x="594" y="254" type="line"/>
      <point x="594" y="0" type="line"/>
      <point x="391" y="0" type="line"/>
    </contour>
    <contour>
      <point x="588" y="401" type="line"/>
      <point x="397" y="401" type="line"/>
      <point x="397" y="555" type="line" smooth="yes"/>
      <point x="397" y="656"/>
      <point x="453" y="786"/>
      <point x="543" y="872" type="qcurve"/>
      <point x="633" y="961" type="line"/>
      <point x="690" y="1014"/>
      <point x="741" y="1108"/>
      <point x="741" y="1157" type="qcurve" smooth="yes"/>
      <point x="741" y="1246"/>
      <point x="610" y="1356"/>
      <point x="502" y="1356" type="qcurve" smooth="yes"/>
      <point x="423" y="1356"/>
      <point x="244" y="1286"/>
      <point x="147" y="1219" type="qcurve"/>
      <point x="147" y="1407" type="line"/>
      <point x="241" y="1464"/>
      <point x="434" y="1520"/>
      <point x="537" y="1520" type="qcurve" smooth="yes"/>
      <point x="721" y="1520"/>
      <point x="944" y="1326"/>
      <point x="944" y="1167" type="qcurve" smooth="yes"/>
      <point x="944" y="1091"/>
      <point x="872" y="954"/>
      <point x="782" y="868" type="qcurve" smooth="yes"/>
      <point x="694" y="782" type="line" smooth="yes"/>
      <point x="647" y="735"/>
      <point x="608" y="682"/>
      <point x="600" y="657" type="qcurve" smooth="yes"/>
      <point x="594" y="636"/>
      <point x="588" y="576"/>
      <point x="588" y="524" type="qcurve" smooth="yes"/>
    </contour>
  </outline>
</glyph>
<glyph name="at" format="2">
  <advance width="2048"/>
  <unicode hex="0040"/>
  <outline>
    <contour>
      <point x="1038" y="-356" type="curve" smooth="yes"/>
      <point x="1241" y="-356"/>
      <point x="1443" y="-285"/>
      <point x="1610" y="-156" type="curve"/>
      <point x="1520" y="-45" type="line"/>
      <point x="1381" y="-153"/>
      <point x="1210" y="-213"/>
      <point x="1038" y="-213" type="curve" smooth="yes"/>
      <point x="829" y="-213"/>
      <point x="640" y="-139"/>
      <point x="500" y="0" type="curve" smooth="yes"/>
      <point x="355" y="141"/>
      <point x="276" y="331"/>
      <point x="276" y="543" type="curve" smooth="yes"/>
      <point x="276" y="800"/>
      <point x="401" y="1033"/>
      <point x="610" y="1169" type="curve" smooth="yes"/>
      <point x="738" y="1254"/>
      <point x="891" y="1298"/>
      <point x="1055" y="1298" type="curve" smooth="yes"/>
      <point x="1290" y="1298"/>
      <point x="1495" y="1203"/>
      <point x="1634" y="1028" type="curve" smooth="yes"/>
      <point x="1719" y="921"/>
      <point x="1761" y="796"/>
      <point x="1761" y="653" type="curve" smooth="yes"/>
      <point x="1761" y="417"/>
      <point x="1645" y="260"/>
      <point x="1450" y="231" type="curve"/>
      <point x="1450" y="967" type="line"/>
      <point x="1307" y="967" type="line"/>
      <point x="1307" y="836" type="line"/>
      <point x="1228" y="937"/>
      <point x="1126" y="987"/>
      <point x="989" y="987" type="curve" smooth="yes"/>
      <point x="761" y="987"/>
      <point x="602" y="804"/>
      <point x="602" y="537" type="curve" smooth="yes"/>
      <point x="602" y="270"/>
      <point x="760" y="88"/>
      <point x="989" y="88" type="curve" smooth="yes"/>
      <point x="1126" y="88"/>
      <point x="1227" y="135"/>
      <point x="1307" y="238" type="curve"/>
      <point x="1307" y="84" type="line"/>
      <point x="1680" y="92"/>
      <point x="1905" y="306"/>
      <point x="1905" y="657" type="curve" smooth="yes"/>
      <point x="1905" y="821"/>
      <point x="1851" y="977"/>
      <point x="1751" y="1108" type="curve" smooth="yes"/>
      <point x="1587" y="1321"/>
      <point x="1336" y="1442"/>
      <point x="1053" y="1442" type="curve" smooth="yes"/>
      <point x="801" y="1442"/>
      <point x="569" y="1349"/>
      <point x="397" y="1180" type="curve" smooth="yes"/>
      <point x="229" y="1013"/>
      <point x="135" y="786"/>
      <point x="135" y="543" type="curve" smooth="yes"/>
      <point x="135" y="291"/>
      <point x="226" y="67"/>
      <point x="397" y="-100" type="curve" smooth="yes"/>
      <point x="568" y="-267"/>
      <point x="791" y="-356"/>
    </contour>
    <contour>
      <point x="1028" y="231" type="curve" smooth="yes"/>
      <point x="863" y="231"/>
      <point x="762" y="346"/>
      <point x="762" y="537" type="curve" smooth="yes"/>
      <point x="762" y="725"/>
      <point x="865" y="842"/>
      <point x="1026" y="842" type="curve" smooth="yes"/>
      <point x="1189" y="842"/>
      <point x="1292" y="724"/>
      <point x="1292" y="537" type="curve" smooth="yes"/>
      <point x="1292" y="348"/>
      <point x="1192" y="231"/>
    </contour>
  </outline>
</glyph>
<glyph name="A" format="2">
  <advance width="1401"/>
  <unicode hex="0041"/>
  <anchor x="1240" y="0" name="ogonek"/>
  <anchor x="1279" y="0" name="cedilla"/>
  <anchor x="0" y="1520" name="half"/>
  <anchor x="700" y="0" name="below"/>
  <anchor x="700" y="1520" name="above"/>
  <outline>
    <contour>
      <point x="16" y="0" type="line"/>
      <point x="229" y="0" type="line"/>
      <point x="365" y="383" type="line"/>
      <point x="1038" y="383" type="line"/>
      <point x="1174" y="0" type="line"/>
      <point x="1384" y="0" type="line"/>
      <point x="815" y="1493" type="line"/>
      <point x="586" y="1493" type="line"/>
    </contour>
    <contour>
      <point x="426" y="551" type="line"/>
      <point x="700" y="1294" type="line"/>
      <point x="975" y="551" type="line"/>
    </contour>
  </outline>
</glyph>
<glyph name="B" format="2">
  <advance width="1405"/>
  <unicode hex="0042"/>
  <anchor x="700" y="0" name="below"/>
  <anchor x="0" y="1520" name="half"/>
  <anchor x="700" y="1520" name="above"/>
  <outline>
    <contour>
      <point x="201" y="0" type="line"/>
      <point x="737" y="0" type="line" smooth="yes"/>
      <point x="1072" y="0"/>
      <point x="1260" y="151"/>
      <point x="1260" y="418" type="curve" smooth="yes"/>
      <point x="1260" y="621"/>
      <point x="1145" y="762"/>
      <point x="946" y="805" type="curve"/>
      <point x="1111" y="832"/>
      <point x="1198" y="941"/>
      <point x="1198" y="1124" type="curve" smooth="yes"/>
      <point x="1198" y="1360"/>
      <point x="1025" y="1493"/>
      <point x="717" y="1493" type="curve" smooth="yes"/>
      <point x="201" y="1493" type="line"/>
    </contour>
    <contour>
      <point x="403" y="166" type="line"/>
      <point x="403" y="713" type="line"/>
      <point x="727" y="713" type="line" smooth="yes"/>
      <point x="944" y="713"/>
      <point x="1047" y="627"/>
      <point x="1047" y="440" type="curve" smooth="yes"/>
      <point x="1047" y="255"/>
      <point x="944" y="166"/>
      <point x="727" y="166" type="curve" smooth="yes"/>
    </contour>
    <contour>
      <point x="403" y="877" type="line"/>
      <point x="403" y="1327" type="line"/>
      <point x="702" y="1327" type="line" smooth="yes"/>
      <point x="899" y="1327"/>
      <point x="995" y="1253"/>
      <point x="995" y="1102" type="curve" smooth="yes"/>
      <point x="995" y="950"/>
      <point x="899" y="877"/>
      <point x="702" y="877" type="curve" smooth="yes"/>
    </contour>
  </outline>
</glyph>
<glyph name="D" format="2">
  <advance width="1577"/>
  <unicode hex="0044"/>
  <anchor x="557" y="0" name="cedilla"/>
  <anchor x="0" y="1520" name="half"/>
  <anchor x="748" y="0" name="below"/>
  <anchor x="748" y="1520" name="above"/>
  <outline>
    <contour>
      <point x="403" y="1327" type="line"/>
      <point x="403" y="166" type="line"/>
      <point x="647" y="166" type="line" smooth="yes"/>
      <point x="956" y="166"/>
      <point x="1243" y="446"/>
      <point x="1243" y="748" type="qcurve" smooth="yes"/>
      <point x="1243" y="1048"/>
      <point x="956" y="1327"/>
      <point x="647" y="1327" type="qcurve" smooth="yes"/>
    </contour>
    <contour>
      <point x="201" y="1493" type="line"/>
      <point x="616" y="1493" type="line" smooth="yes"/>
      <point x="1050" y="1493"/>
      <point x="1456" y="1132"/>
      <point x="1456" y="748" type="qcurve" smooth="yes"/>
      <point x="1456" y="362"/>
      <point x="1048" y="0"/>
      <point x="616" y="0" type="qcurve" smooth="yes"/>
      <point x="201" y="0" type="line"/>
    </contour>
  </outline>
</glyph>
<glyph name="E" format="2">
  <advance width="1294"/>
  <unicode hex="0045"/>
  <anchor x="960" y="0" name="ogonek"/>
  <anchor x="0" y="1520" name="half"/>
  <anchor x="670" y="0" name="cedilla"/>
  <anchor x="670" y="0" name="below"/>
  <anchor x="670" y="1520" name="above"/>
  <outline>
    <contour>
      <point x="201" y="1493" type="line"/>
      <point x="1145" y="1493" type="line"/>
      <point x="1145" y="1323" type="line"/>
      <point x="403" y="1323" type="line"/>
      <point x="403" y="881" type="line"/>
      <point x="1114" y="881" type="line"/>
      <point x="1114" y="711" type="line"/>
      <point x="403" y="711" type="line"/>
      <point x="403" y="170" type="line"/>
      <point x="1163" y="170" type="line"/>
      <point x="1163" y="0" type="line"/>
      <point x="201" y="0" type="line"/>
    </contour>
  </outline>
</glyph>
<glyph name="F" format="2">
  <advance width="1178"/>
  <unicode hex="0046"/>
  <anchor x="670" y="0" name="below"/>
  <anchor x="0" y="1520" name="half"/>
  <anchor x="670" y="1520" name="above"/>
  <outline>
    <contour>
      <point x="201" y="0" type="line"/>
      <point x="403" y="0" type="line"/>
      <point x="403" y="713" type="line"/>
      <point x="995" y="713" type="line"/>
      <point x="995" y="883" type="line"/>
      <point x="403" y="883" type="line"/>
      <point x="403" y="1323" type="line"/>
      <point x="1059" y="1323" type="line"/>
      <point x="1059" y="1493" type="line"/>
      <point x="201" y="1493" type="line"/>
    </contour>
  </outline>
</glyph>
<glyph name="H" format="2">
  <advance width="1540"/>
  <unicode hex="0048"/>
  <anchor x="302" y="0" name="cedilla"/>
  <anchor x="770" y="0" name="below"/>
  <anchor x="0" y="1520" name="half"/>
  <anchor x="770" y="1520" name="above"/>
  <outline>
    <contour>
      <point x="201" y="0" type="line"/>
      <point x="403" y="0" type="line"/>
      <point x="403" y="711" type="line"/>
      <point x="1137" y="711" type="line"/>
      <point x="1137" y="0" type="line"/>
      <point x="1339" y="0" type="line"/>
      <point x="1339" y="1493" type="line"/>
      <point x="1137" y="1493" type="line"/>
      <point x="1137" y="881" type="line"/>
      <point x="403" y="881" type="line"/>
      <point x="403" y="1493" type="line"/>
      <point x="201" y="1493" type="line"/>
    </contour>
  </outline>
</glyph>
<glyph name="I" format="2">
  <advance width="604"/>
  <unicode hex="0049"/>
  <anchor x="344" y="0" name="ogonek"/>
  <anchor x="0" y="1520" name="half"/>
  <anchor x="303" y="0" name="cedilla"/>
  <anchor x="303" y="0" name="below"/>
  <anchor x="303" y="1520" name="above"/>
  <outline>
    <contour>
      <point x="201" y="1493" type="line"/>
      <point x="403" y="1493" type="line"/>
      <point x="403" y="0" type="line"/>
      <point x="201" y="0" type="line"/>
    </contour>
  </outline>
</glyph>
<glyph name="J" format="2">
  <advance width="604"/>
  <unicode hex="004A"/>
  <anchor x="302" y="-430" name="below"/>
  <anchor x="0" y="1520" name="half"/>
  <anchor x="302" y="1520" name="above"/>
  <outline>
    <contour>
      <point x="-106" y="-410" type="line"/>
      <point x="-29" y="-410" type="line" smooth="yes"/>
      <point x="274" y="-410"/>
      <point x="403" y="-256"/>
      <point x="403" y="104" type="curve" smooth="yes"/>
      <point x="403" y="1493" type="line"/>
      <point x="201" y="1493" type="line"/>
      <point x="201" y="104" type="line" smooth="yes"/>
      <point x="201" y="-155"/>
      <point x="136" y="-240"/>
      <point x="-43" y="-240" type="curve" smooth="yes"/>
      <point x="-106" y="-240" type="line"/>
    </contour>
  </outline>
</glyph>
<glyph name="K" format="2">
  <advance width="1343"/>
  <unicode hex="004B"/>
  <anchor x="670" y="0" name="below"/>
  <anchor x="0" y="1520" name="half"/>
  <anchor x="670" y="1520" name="above"/>
  <outline>
    <contour>
      <point x="201" y="0" type="line"/>
      <point x="403" y="0" type="line"/>
      <point x="403" y="719" type="line"/>
      <point x="1120" y="0" type="line"/>
      <point x="1386" y="0" type="line"/>
      <point x="592" y="797" type="line"/>
      <point x="1333" y="1493" type="line"/>
      <point x="1073" y="1493" type="line"/>
      <point x="403" y="862" type="line"/>
      <point x="403" y="1493" type="line"/>
      <point x="201" y="1493" type="line"/>
    </contour>
  </outline>
</glyph>
<glyph name="L" format="2">
  <advance width="1141"/>
  <unicode hex="004C"/>
  <anchor x="0" y="1520" name="half"/>
  <anchor x="665" y="0" name="below"/>
  <anchor x="298" y="1520" name="above"/>
  <outline>
    <contour>
      <point x="201" y="1493" type="line"/>
      <point x="403" y="1493" type="line"/>
      <point x="403" y="170" type="line"/>
      <point x="1130" y="170" type="line"/>
      <point x="1130" y="0" type="line"/>
      <point x="201" y="0" type="line"/>
    </contour>
  </outline>
</glyph>
<glyph name="M" format="2">
  <advance width="1767"/>
  <unicode hex="004D"/>
  <anchor x="299" y="0" name="cedilla"/>
  <anchor x="0" y="1520" name="half"/>
  <anchor x="883" y="0" name="below"/>
  <anchor x="883" y="1520" name="above"/>
  <outline>
    <contour>
      <point x="201" y="1493" type="line"/>
      <point x="502" y="1493" type="line"/>
      <point x="883" y="477" type="line"/>
      <point x="1266" y="1493" type="line"/>
      <point x="1567" y="1493" type="line"/>
      <point x="1567" y="0" type="line"/>
      <point x="1370" y="0" type="line"/>
      <point x="1370" y="1311" type="line"/>
      <point x="985" y="287" type="line"/>
      <point x="782" y="287" type="line"/>
      <point x="397" y="1311" type="line"/>
      <point x="397" y="0" type="line"/>
      <point x="201" y="0" type="line"/>
    </contour>
  </outline>
</glyph>
<glyph name="N" format="2">
  <advance width="1532"/>
  <unicode hex="004E"/>
  <anchor x="299" y="0" name="cedilla"/>
  <anchor x="0" y="1520" name="half"/>
  <anchor x="757" y="0" name="below"/>
  <anchor x="757" y="1520" name="above"/>
  <outline>
    <contour>
      <point x="201" y="1493" type="line"/>
      <point x="473" y="1493" type="line"/>
      <point x="1135" y="244" type="line"/>
      <point x="1135" y="1493" type="line"/>
      <point x="1331" y="1493" type="line"/>
      <point x="1331" y="0" type="line"/>
      <point x="1059" y="0" type="line"/>
      <point x="397" y="1249" type="line"/>
      <point x="397" y="0" type="line"/>
      <point x="201" y="0" type="line"/>
    </contour>
  </outline>
</glyph>
<glyph name="O" format="2">
  <advance width="1612"/>
  <unicode hex="004F"/>
  <anchor x="808" y="0" name="ogonek"/>
  <anchor x="807" y="0" name="cedilla"/>
  <anchor x="0" y="1520" name="half"/>
  <anchor x="807" y="0" name="below"/>
  <anchor x="807" y="1520" name="above"/>
  <outline>
    <contour>
      <point x="807" y="-29" type="curve" smooth="yes"/>
      <point x="1226" y="-29"/>
      <point x="1497" y="274"/>
      <point x="1497" y="745" type="curve" smooth="yes"/>
      <point x="1497" y="1217"/>
      <point x="1226" y="1520"/>
      <point x="807" y="1520" type="curve" smooth="yes"/>
      <point x="387" y="1520"/>
      <point x="115" y="1217"/>
      <point x="115" y="745" type="curve" smooth="yes"/>
      <point x="115" y="273"/>
      <point x="387" y="-29"/>
    </contour>
    <contour>
      <point x="807" y="135" type="curve" smooth="yes"/>
      <point x="514" y="135"/>
      <point x="328" y="369"/>
      <point x="328" y="745" type="curve" smooth="yes"/>
      <point x="328" y="1122"/>
      <point x="514" y="1356"/>
      <point x="807" y="1356" type="curve" smooth="yes"/>
      <point x="1100" y="1356"/>
      <point x="1284" y="1122"/>
      <point x="1284" y="745" type="curve" smooth="yes"/>
      <point x="1284" y="369"/>
      <point x="1100" y="135"/>
    </contour>
  </outline>
</glyph>
<glyph name="P" format="2">
  <advance width="1235"/>
  <unicode hex="0050"/>
  <anchor x="0" y="1520" name="half"/>
  <anchor x="670" y="0" name="below"/>
  <anchor x="670" y="1520" name="above"/>
  <outline>
    <contour>
      <point x="403" y="1327" type="line"/>
      <point x="403" y="766" type="line"/>
      <point x="657" y="766" type="line" smooth="yes"/>
      <point x="798" y="766"/>
      <point x="952" y="912"/>
      <point x="952" y="1047" type="qcurve" smooth="yes"/>
      <point x="952" y="1181"/>
      <point x="798" y="1327"/>
      <point x="657" y="1327" type="qcurve" smooth="yes"/>
    </contour>
    <contour>
      <point x="201" y="1493" type="line"/>
      <point x="657" y="1493" type="line" smooth="yes"/>
      <point x="908" y="1493"/>
      <point x="1165" y="1266"/>
      <point x="1165" y="1047" type="qcurve" smooth="yes"/>
      <point x="1165" y="826"/>
      <point x="908" y="600"/>
      <point x="657" y="600" type="qcurve" smooth="yes"/>
      <point x="403" y="600" type="line"/>
      <point x="403" y="0" type="line"/>
      <point x="201" y="0" type="line"/>
    </contour>
  </outline>
</glyph>
<glyph name="Q" format="2">
  <advance width="1612"/>
  <unicode hex="0051"/>
  <anchor x="0" y="1520" name="half"/>
  <anchor x="807" y="0" name="below"/>
  <anchor x="807" y="1520" name="above"/>
  <outline>
    <contour>
      <point x="807" y="1356" type="qcurve" smooth="yes"/>
      <point x="587" y="1356"/>
      <point x="328" y="1028"/>
      <point x="328" y="745" type="qcurve" smooth="yes"/>
      <point x="328" y="463"/>
      <point x="587" y="135"/>
      <point x="807" y="135" type="qcurve" smooth="yes"/>
      <point x="1027" y="135"/>
      <point x="1284" y="463"/>
      <point x="1284" y="745" type="qcurve" smooth="yes"/>
      <point x="1284" y="1028"/>
      <point x="1027" y="1356"/>
    </contour>
    <contour>
      <point x="1090" y="27" type="qcurve"/>
      <point x="1356" y="-264" type="line"/>
      <point x="1112" y="-264" type="line"/>
      <point x="891" y="-25" type="line"/>
      <point x="858" y="-27"/>
      <point x="823" y="-29"/>
      <point x="807" y="-29" type="qcurve" smooth="yes"/>
      <point x="492" y="-29"/>
      <point x="115" y="392"/>
      <point x="115" y="745" type="qcurve" smooth="yes"/>
      <point x="115" y="1099"/>
      <point x="492" y="1520"/>
      <point x="807" y="1520" type="qcurve" smooth="yes"/>
      <point x="1121" y="1520"/>
      <point x="1497" y="1099"/>
      <point x="1497" y="745" type="qcurve" smooth="yes"/>
      <point x="1497" y="485"/>
      <point x="1288" y="115"/>
    </contour>
  </outline>
</glyph>
<glyph name="R" format="2">
  <advance width="1423"/>
  <unicode hex="0052"/>
  <anchor x="637" y="0" name="below"/>
  <anchor x="0" y="1520" name="half"/>
  <anchor x="637" y="1520" name="above"/>
  <outline>
    <contour>
      <point x="201" y="0" type="line"/>
      <point x="403" y="0" type="line"/>
      <point x="403" y="631" type="line"/>
      <point x="623" y="631" type="line" smooth="yes"/>
      <point x="783" y="631"/>
      <point x="857" y="583"/>
      <point x="956" y="383" type="curve" smooth="yes"/>
      <point x="1147" y="0" type="line"/>
      <point x="1364" y="0" type="line"/>
      <point x="1159" y="408" type="line" smooth="yes"/>
      <point x="1076" y="576"/>
      <point x="996" y="671"/>
      <point x="909" y="700" type="curve"/>
      <point x="1076" y="748"/>
      <point x="1165" y="875"/>
      <point x="1165" y="1063" type="curve" smooth="yes"/>
      <point x="1165" y="1351"/>
      <point x="998" y="1493"/>
      <point x="657" y="1493" type="curve" smooth="yes"/>
      <point x="201" y="1493" type="line"/>
    </contour>
    <contour>
      <point x="403" y="797" type="line"/>
      <point x="403" y="1327" type="line"/>
      <point x="657" y="1327" type="line" smooth="yes"/>
      <point x="852" y="1327"/>
      <point x="952" y="1238"/>
      <point x="952" y="1063" type="curve" smooth="yes"/>
      <point x="952" y="888"/>
      <point x="852" y="797"/>
      <point x="657" y="797" type="curve" smooth="yes"/>
    </contour>
  </outline>
</glyph>
<glyph name="S" format="2">
  <advance width="1300"/>
  <unicode hex="0053"/>
  <anchor x="674" y="0" name="cedilla"/>
  <anchor x="659" y="0" name="below"/>
  <anchor x="0" y="1520" name="half"/>
  <anchor x="659" y="1520" name="above"/>
  <outline>
    <contour>
      <point x="614" y="-29" type="curve" smooth="yes"/>
      <point x="989" y="-29"/>
      <point x="1186" y="123"/>
      <point x="1186" y="412" type="curve" smooth="yes"/>
      <point x="1186" y="655"/>
      <point x="1046" y="797"/>
      <point x="745" y="854" type="curve" smooth="yes"/>
      <point x="623" y="879" type="line" smooth="yes"/>
      <point x="402" y="920"/>
      <point x="338" y="978"/>
      <point x="338" y="1110" type="curve" smooth="yes"/>
      <point x="338" y="1267"/>
      <point x="462" y="1356"/>
      <point x="682" y="1356" type="curve" smooth="yes"/>
      <point x="809" y="1356"/>
      <point x="943" y="1320"/>
      <point x="1096" y="1247" type="curve"/>
      <point x="1096" y="1444" type="line"/>
      <point x="944" y="1495"/>
      <point x="799" y="1520"/>
      <point x="659" y="1520" type="curve" smooth="yes"/>
      <point x="332" y="1520"/>
      <point x="135" y="1358"/>
      <point x="135" y="1094" type="curve" smooth="yes"/>
      <point x="135" y="866"/>
      <point x="262" y="746"/>
      <point x="563" y="686" type="curve" smooth="yes"/>
      <point x="686" y="662" type="line" smooth="yes"/>
      <point x="891" y="621"/>
      <point x="975" y="544"/>
      <point x="975" y="397" type="curve" smooth="yes"/>
      <point x="975" y="229"/>
      <point x="845" y="135"/>
      <point x="614" y="135" type="curve" smooth="yes"/>
      <point x="462" y="135"/>
      <point x="305" y="182"/>
      <point x="141" y="274" type="curve"/>
      <point x="141" y="66" type="line"/>
      <point x="312" y="3"/>
      <point x="473" y="-29"/>
    </contour>
  </outline>
</glyph>
<glyph name="T" format="2">
  <advance width="1251"/>
  <unicode hex="0054"/>
  <anchor x="627" y="0" name="below"/>
  <anchor x="0" y="1520" name="half"/>
  <anchor x="627" y="1520" name="above"/>
  <outline>
    <contour>
      <point x="524" y="0" type="line"/>
      <point x="727" y="0" type="line"/>
      <point x="727" y="1323" type="line"/>
      <point x="1257" y="1323" type="line"/>
      <point x="1257" y="1493" type="line"/>
      <point x="-6" y="1493" type="line"/>
      <point x="-6" y="1323" type="line"/>
      <point x="524" y="1323" type="line"/>
    </contour>
  </outline>
</glyph>
<glyph name="U" format="2">
  <advance width="1499"/>
  <unicode hex="0055"/>
  <anchor x="750" y="0" name="ogonek"/>
  <anchor x="750" y="0" name="cedilla"/>
  <anchor x="0" y="1520" name="half"/>
  <anchor x="750" y="0" name="below"/>
  <anchor x="750" y="1520" name="above"/>
  <outline>
    <contour>
      <point x="750" y="-29" type="curve" smooth="yes"/>
      <point x="1126" y="-29"/>
      <point x="1321" y="172"/>
      <point x="1321" y="561" type="curve" smooth="yes"/>
      <point x="1321" y="1493" type="line"/>
      <point x="1118" y="1493" type="line"/>
      <point x="1118" y="586" type="line" smooth="yes"/>
      <point x="1118" y="266"/>
      <point x="1009" y="135"/>
      <point x="750" y="135" type="curve" smooth="yes"/>
      <point x="490" y="135"/>
      <point x="381" y="266"/>
      <point x="381" y="586" type="curve" smooth="yes"/>
      <point x="381" y="1493" type="line"/>
      <point x="178" y="1493" type="line"/>
      <point x="178" y="561" type="line" smooth="yes"/>
      <point x="178" y="172"/>
      <point x="373" y="-29"/>
    </contour>
  </outline>
</glyph>
<glyph name="V" format="2">
  <advance width="1401"/>
  <unicode hex="0056"/>
  <anchor x="700" y="0" name="below"/>
  <anchor x="0" y="1520" name="half"/>
  <anchor x="700" y="1520" name="above"/>
  <outline>
    <contour>
      <point x="586" y="0" type="line"/>
      <point x="815" y="0" type="line"/>
      <point x="1384" y="1493" type="line"/>
      <point x="1174" y="1493" type="line"/>
      <point x="700" y="236" type="line"/>
      <point x="227" y="1493" type="line"/>
      <point x="16" y="1493" type="line"/>
    </contour>
  </outline>
</glyph>
<glyph name="W" format="2">
  <advance width="2025"/>
  <unicode hex="0057"/>
  <anchor x="1013" y="0" name="below"/>
  <anchor x="0" y="1520" name="half"/>
  <anchor x="1013" y="1520" name="above"/>
  <outline>
    <contour>
      <point x="442" y="0" type="line"/>
      <point x="696" y="0" type="line"/>
      <point x="1014" y="1296" type="line"/>
      <point x="1329" y="0" type="line"/>
      <point x="1583" y="0" type="line"/>
      <point x="1958" y="1493" type="line"/>
      <point x="1753" y="1493" type="line"/>
      <point x="1440" y="231" type="line"/>
      <point x="1126" y="1493" type="line"/>
      <point x="899" y="1493" type="line"/>
      <point x="586" y="231" type="line"/>
      <point x="272" y="1493" type="line"/>
      <point x="68" y="1493" type="line"/>
    </contour>
  </outline>
</glyph>
<glyph name="X" format="2">
  <advance width="1403"/>
  <unicode hex="0058"/>
  <anchor x="0" y="1520" name="half"/>
  <anchor x="717" y="0" name="below"/>
  <anchor x="717" y="1520" name="above"/>
  <outline>
    <contour>
      <point x="129" y="1493" type="line"/>
      <point x="346" y="1493" type="line"/>
      <point x="717" y="938" type="line"/>
      <point x="1090" y="1493" type="line"/>
      <point x="1307" y="1493" type="line"/>
      <point x="827" y="776" type="line"/>
      <point x="1339" y="0" type="line"/>
      <point x="1122" y="0" type="line"/>
      <point x="702" y="635" type="line"/>
      <point x="279" y="0" type="line"/>
      <point x="61" y="0" type="line"/>
      <point x="594" y="797" type="line"/>
    </contour>
  </outline>
</glyph>
<glyph name="Y" format="2">
  <advance width="1251"/>
  <unicode hex="0059"/>
  <anchor x="668" y="0" name="ogonek"/>
  <anchor x="0" y="1520" name="half"/>
  <anchor x="626" y="0" name="below"/>
  <anchor x="626" y="1520" name="above"/>
  <outline>
    <contour>
      <point x="-4" y="1493" type="line"/>
      <point x="213" y="1493" type="line"/>
      <point x="627" y="879" type="line"/>
      <point x="1038" y="1493" type="line"/>
      <point x="1255" y="1493" type="line"/>
      <point x="727" y="711" type="line"/>
      <point x="727" y="0" type="line"/>
      <point x="524" y="0" type="line"/>
      <point x="524" y="711" type="line"/>
    </contour>
  </outline>
</glyph>
<glyph name="Z" format="2">
  <advance width="1403"/>
  <unicode hex="005A"/>
  <anchor x="702" y="0" name="cedilla"/>
  <anchor x="702" y="-3" name="ogonek"/>
  <anchor x="0" y="1520" name="half"/>
  <anchor x="702" y="0" name="below"/>
  <anchor x="702" y="1520" name="above"/>
  <outline>
    <contour>
      <point x="92" y="0" type="line"/>
      <point x="1311" y="0" type="line"/>
      <point x="1311" y="170" type="line"/>
      <point x="344" y="170" type="line"/>
      <point x="1288" y="1339" type="line"/>
      <point x="1288" y="1493" type="line"/>
      <point x="115" y="1493" type="line"/>
      <point x="115" y="1323" type="line"/>
      <point x="1036" y="1323" type="line"/>
      <point x="92" y="154" type="line"/>
    </contour>
  </outline>
</glyph>
<glyph name="bracketleft" format="2">
  <advance width="799"/>
  <unicode hex="005B"/>
  <outline>
    <contour>
      <point x="176" y="1556" type="line"/>
      <point x="600" y="1556" type="line"/>
      <point x="600" y="1413" type="line"/>
      <point x="360" y="1413" type="line"/>
      <point x="360" y="-127" type="line"/>
      <point x="600" y="-127" type="line"/>
      <point x="600" y="-270" type="line"/>
      <point x="176" y="-270" type="line"/>
    </contour>
  </outline>
</glyph>
<glyph name="bracketright" format="2">
  <advance width="799"/>
  <unicode hex="005D"/>
  <outline>
    <contour>
      <point x="623" y="1556" type="line"/>
      <point x="623" y="-270" type="line"/>
      <point x="199" y="-270" type="line"/>
      <point x="199" y="-127" type="line"/>
      <point x="438" y="-127" type="line"/>
      <point x="438" y="1413" type="line"/>
      <point x="199" y="1413" type="line"/>
      <point x="199" y="1556" type="line"/>
    </contour>
  </outline>
</glyph>
<glyph name="asciicircum" format="2">
  <advance width="1716"/>
  <unicode hex="005E"/>
  <outline>
    <contour>
      <point x="217" y="936" type="line"/>
      <point x="418" y="936" type="line"/>
      <point x="858" y="1331" type="line"/>
      <point x="1298" y="936" type="line"/>
      <point x="1499" y="936" type="line"/>
      <point x="956" y="1493" type="line"/>
      <point x="760" y="1493" type="line"/>
    </contour>
  </outline>
</glyph>
<glyph name="underscore" format="2">
  <advance width="1024"/>
  <unicode hex="005F"/>
  <outline>
    <contour>
      <point x="-20" y="-483" type="line"/>
      <point x="1044" y="-483" type="line"/>
      <point x="1044" y="-340" type="line"/>
      <point x="-20" y="-340" type="line"/>
    </contour>
  </outline>
</glyph>
<glyph name="a" format="2">
  <advance width="1255"/>
  <unicode hex="0061"/>
  <anchor x="947" y="0" name="ogonek"/>
  <anchor x="977" y="0" name="cedilla"/>
  <anchor x="0" y="1520" name="half"/>
  <anchor x="586" y="0" name="below"/>
  <anchor x="586" y="1147" name="above"/>
  <outline>
    <contour>
      <point x="498" y="-29" type="curve" smooth="yes"/>
      <point x="679" y="-29"/>
      <point x="801" y="34"/>
      <point x="885" y="170" type="curve"/>
      <point x="885" y="0" type="line"/>
      <point x="1069" y="0" type="line"/>
      <point x="1069" y="639" type="line" smooth="yes"/>
      <point x="1069" y="980"/>
      <point x="910" y="1147"/>
      <point x="586" y="1147" type="curve" smooth="yes"/>
      <point x="466" y="1147"/>
      <point x="340" y="1121"/>
      <point x="205" y="1069" type="curve"/>
      <point x="205" y="899" type="line"/>
      <point x="317" y="960"/>
      <point x="439" y="991"/>
      <point x="567" y="991" type="curve" smooth="yes"/>
      <point x="768" y="991"/>
      <point x="885" y="894"/>
      <point x="885" y="725" type="curve" smooth="yes"/>
      <point x="885" y="707" type="line"/>
      <point x="627" y="707" type="line" smooth="yes"/>
      <point x="292" y="707"/>
      <point x="123" y="578"/>
      <point x="123" y="326" type="curve" smooth="yes"/>
      <point x="123" y="110"/>
      <point x="269" y="-29"/>
    </contour>
    <contour>
      <point x="547" y="125" type="curve" smooth="yes"/>
      <point x="399" y="125"/>
      <point x="307" y="207"/>
      <point x="307" y="338" type="curve" smooth="yes"/>
      <point x="307" y="502"/>
      <point x="405" y="563"/>
      <point x="702" y="563" type="curve" smooth="yes"/>
      <point x="885" y="563" type="line"/>
      <point x="885" y="522" type="line" smooth="yes"/>
      <point x="885" y="282"/>
      <point x="751" y="125"/>
    </contour>
  </outline>
</glyph>
<glyph name="c" format="2">
  <advance width="1126"/>
  <unicode hex="0063"/>
  <anchor x="0" y="1520" name="half"/>
  <anchor x="678" y="0" name="cedilla"/>
  <anchor x="676" y="0" name="below"/>
  <anchor x="676" y="1147" name="above"/>
  <outline>
    <contour>
      <point x="999" y="1077" type="qcurve"/>
      <point x="999" y="905" type="line"/>
      <point x="921" y="948"/>
      <point x="764" y="991"/>
      <point x="684" y="991" type="qcurve" smooth="yes"/>
      <point x="505" y="991"/>
      <point x="307" y="764"/>
      <point x="307" y="559" type="qcurve" smooth="yes"/>
      <point x="307" y="354"/>
      <point x="505" y="127"/>
      <point x="684" y="127" type="qcurve" smooth="yes"/>
      <point x="764" y="127"/>
      <point x="921" y="170"/>
      <point x="999" y="213" type="qcurve"/>
      <point x="999" y="43" type="line"/>
      <point x="922" y="7"/>
      <point x="757" y="-29"/>
      <point x="664" y="-29" type="qcurve" smooth="yes"/>
      <point x="411" y="-29"/>
      <point x="113" y="289"/>
      <point x="113" y="559" type="qcurve" smooth="yes"/>
      <point x="113" y="833"/>
      <point x="414" y="1147"/>
      <point x="676" y="1147" type="qcurve" smooth="yes"/>
      <point x="761" y="1147"/>
      <point x="923" y="1112"/>
    </contour>
  </outline>
</glyph>
<glyph name="d" format="2">
  <advance width="1300"/>
  <unicode hex="0064"/>
  <anchor x="614" y="0" name="cedilla"/>
  <anchor x="614" y="0" name="below"/>
  <anchor x="0" y="1520" name="half"/>
  <anchor x="1022" y="1520" name="above"/>
  <outline>
    <contour>
      <point x="571" y="-29" type="curve" smooth="yes"/>
      <point x="736" y="-29"/>
      <point x="853" y="35"/>
      <point x="930" y="168" type="curve"/>
      <point x="930" y="0" type="line"/>
      <point x="1114" y="0" type="line"/>
      <point x="1114" y="1556" type="line"/>
      <point x="930" y="1556" type="line"/>
      <point x="930" y="950" type="line"/>
      <point x="853" y="1083"/>
      <point x="736" y="1147"/>
      <point x="571" y="1147" type="curve" smooth="yes"/>
      <point x="300" y="1147"/>
      <point x="113" y="911"/>
      <point x="113" y="559" type="curve" smooth="yes"/>
      <point x="113" y="207"/>
      <point x="300" y="-29"/>
    </contour>
    <contour>
      <point x="616" y="125" type="curve" smooth="yes"/>
      <point x="421" y="125"/>
      <point x="303" y="288"/>
      <point x="303" y="559" type="curve" smooth="yes"/>
      <point x="303" y="830"/>
      <point x="421" y="993"/>
      <point x="616" y="993" type="curve" smooth="yes"/>
      <point x="811" y="993"/>
      <point x="930" y="830"/>
      <point x="930" y="559" type="curve" smooth="yes"/>
      <point x="930" y="288"/>
      <point x="811" y="125"/>
    </contour>
  </outline>
</glyph>
<glyph name="e" format="2">
  <advance width="1260"/>
  <unicode hex="0065"/>
  <anchor x="876" y="0" name="ogonek"/>
  <anchor x="0" y="1520" name="half"/>
  <anchor x="662" y="0" name="cedilla"/>
  <anchor x="662" y="0" name="below"/>
  <anchor x="662" y="1147" name="above"/>
  <outline>
    <contour>
      <point x="1151" y="606" type="qcurve" smooth="yes"/>
      <point x="1151" y="516" type="line"/>
      <point x="305" y="516" type="line"/>
      <point x="317" y="326"/>
      <point x="522" y="127"/>
      <point x="705" y="127" type="qcurve" smooth="yes"/>
      <point x="811" y="127"/>
      <point x="1010" y="179"/>
      <point x="1108" y="231" type="qcurve"/>
      <point x="1108" y="57" type="line"/>
      <point x="1009" y="15"/>
      <point x="801" y="-29"/>
      <point x="694" y="-29" type="qcurve" smooth="yes"/>
      <point x="426" y="-29"/>
      <point x="113" y="283"/>
      <point x="113" y="549" type="qcurve" smooth="yes"/>
      <point x="113" y="824"/>
      <point x="410" y="1147"/>
      <point x="662" y="1147" type="qcurve" smooth="yes"/>
      <point x="888" y="1147"/>
      <point x="1151" y="856"/>
    </contour>
    <contour>
      <point x="967" y="660" type="line"/>
      <point x="965" y="811"/>
      <point x="800" y="991"/>
      <point x="664" y="991" type="qcurve" smooth="yes"/>
      <point x="510" y="991"/>
      <point x="325" y="817"/>
      <point x="311" y="659" type="qcurve"/>
    </contour>
  </outline>
</glyph>
<glyph name="f" format="2">
  <advance width="721"/>
  <unicode hex="0066"/>
  <anchor x="315" y="0" name="below"/>
  <anchor x="0" y="1520" name="half"/>
  <anchor x="480" y="1520" name="above"/>
  <outline>
    <contour>
      <point x="223" y="0" type="line"/>
      <point x="408" y="0" type="line"/>
      <point x="408" y="977" type="line"/>
      <point x="711" y="977" type="line"/>
      <point x="711" y="1120" type="line"/>
      <point x="408" y="1120" type="line"/>
      <point x="408" y="1219" type="line" smooth="yes"/>
      <point x="408" y="1358"/>
      <point x="452" y="1403"/>
      <point x="584" y="1403" type="curve" smooth="yes"/>
      <point x="760" y="1403" type="line"/>
      <point x="760" y="1556" type="line"/>
      <point x="586" y="1556" type="line" smooth="yes"/>
      <point x="334" y="1556"/>
      <point x="223" y="1447"/>
      <point x="223" y="1198" type="curve" smooth="yes"/>
      <point x="223" y="1120" type="line"/>
      <point x="47" y="1120" type="line"/>
      <point x="47" y="977" type="line"/>
      <point x="223" y="977" type="line"/>
    </contour>
  </outline>
</glyph>
<glyph name="g" format="2">
  <advance width="1300"/>
  <unicode hex="0067"/>
  <anchor x="0" y="1520" name="half"/>
  <anchor x="678" y="-430" name="below"/>
  <anchor x="618" y="1147" name="above"/>
  <outline>
    <contour>
      <point x="930" y="573" type="qcurve" smooth="yes"/>
      <point x="930" y="773"/>
      <point x="765" y="993"/>
      <point x="616" y="993" type="qcurve" smooth="yes"/>
      <point x="468" y="993"/>
      <point x="303" y="773"/>
      <point x="303" y="573" type="qcurve" smooth="yes"/>
      <point x="303" y="374"/>
      <point x="468" y="154"/>
      <point x="616" y="154" type="qcurve" smooth="yes"/>
      <point x="765" y="154"/>
      <point x="930" y="374"/>
    </contour>
    <contour>
      <point x="1114" y="139" type="line" smooth="yes"/>
      <point x="1114" y="-147"/>
      <point x="860" y="-426"/>
      <point x="598" y="-426" type="qcurve" smooth="yes"/>
      <point x="501" y="-426"/>
      <point x="329" y="-397"/>
      <point x="248" y="-367" type="qcurve"/>
      <point x="248" y="-188" type="line"/>
      <point x="329" y="-232"/>
      <point x="487" y="-274"/>
      <point x="569" y="-274" type="qcurve" smooth="yes"/>
      <point x="750" y="-274"/>
      <point x="930" y="-85"/>
      <point x="930" y="106" type="qcurve" smooth="yes"/>
      <point x="930" y="197" type="line"/>
      <point x="873" y="98"/>
      <point x="695" y="0"/>
      <point x="571" y="0" type="qcurve" smooth="yes"/>
      <point x="365" y="0"/>
      <point x="113" y="314"/>
      <point x="113" y="573" type="qcurve" smooth="yes"/>
      <point x="113" y="833"/>
      <point x="365" y="1147"/>
      <point x="571" y="1147" type="qcurve" smooth="yes"/>
      <point x="695" y="1147"/>
      <point x="873" y="1049"/>
      <point x="930" y="950" type="qcurve"/>
      <point x="930" y="1120" type="line"/>
      <point x="1114" y="1120" type="line"/>
    </contour>
  </outline>
</glyph>
<glyph name="i" format="2">
  <advance width="569"/>
  <unicode hex="0069"/>
  <anchor x="318" y="0" name="ogonek"/>
  <anchor x="0" y="1520" name="half"/>
  <anchor x="287" y="0" name="cedilla"/>
  <anchor x="287" y="0" name="below"/>
  <anchor x="287" y="1583" name="above"/>
  <outline>
    <contour>
      <point x="193" y="1120" type="line"/>
      <point x="377" y="1120" type="line"/>
      <point x="377" y="0" type="line"/>
      <point x="193" y="0" type="line"/>
    </contour>
    <contour>
      <point x="193" y="1556" type="line"/>
      <point x="377" y="1556" type="line"/>
      <point x="377" y="1323" type="line"/>
      <point x="193" y="1323" type="line"/>
    </contour>
  </outline>
</glyph>
<glyph name="j" format="2">
  <advance width="569"/>
  <unicode hex="006A"/>
  <anchor x="287" y="-430" name="below"/>
  <anchor x="0" y="1520" name="half"/>
  <anchor x="287" y="1583" name="above"/>
  <outline>
    <contour>
      <point x="-37" y="-426" type="line"/>
      <point x="33" y="-426" type="line" smooth="yes"/>
      <point x="274" y="-426"/>
      <point x="377" y="-305"/>
      <point x="377" y="-20" type="curve" smooth="yes"/>
      <point x="377" y="1120" type="line"/>
      <point x="193" y="1120" type="line"/>
      <point x="193" y="-20" type="line" smooth="yes"/>
      <point x="193" y="-224"/>
      <point x="152" y="-270"/>
      <point x="12" y="-270" type="curve" smooth="yes"/>
      <point x="-37" y="-270" type="line"/>
    </contour>
    <contour>
      <point x="193" y="1323" type="line"/>
      <point x="377" y="1323" type="line"/>
      <point x="377" y="1556" type="line"/>
      <point x="193" y="1556" type="line"/>
    </contour>
  </outline>
</glyph>
<glyph name="k" format="2">
  <advance width="1186"/>
  <unicode hex="006B"/>
  <anchor x="678" y="0" name="below"/>
  <anchor x="0" y="1520" name="half"/>
  <anchor x="278" y="1520" name="above"/>
  <outline>
    <contour>
      <point x="186" y="0" type="line"/>
      <point x="371" y="0" type="line"/>
      <point x="371" y="547" type="line"/>
      <point x="940" y="0" type="line"/>
      <point x="1180" y="0" type="line"/>
      <point x="561" y="596" type="line"/>
      <point x="1155" y="1120" type="line"/>
      <point x="920" y="1120" type="line"/>
      <point x="371" y="637" type="line"/>
      <point x="371" y="1556" type="line"/>
      <point x="186" y="1556" type="line"/>
    </contour>
  </outline>
</glyph>
<glyph name="l" format="2">
  <advance width="569"/>
  <unicode hex="006C"/>
  <anchor x="278" y="0" name="below"/>
  <anchor x="0" y="1520" name="half"/>
  <anchor x="278" y="1520" name="above"/>
  <outline>
    <contour>
      <point x="193" y="0" type="line"/>
      <point x="377" y="0" type="line"/>
      <point x="377" y="1556" type="line"/>
      <point x="193" y="1556" type="line"/>
    </contour>
  </outline>
</glyph>
<glyph name="m" format="2">
  <advance width="1995"/>
  <unicode hex="006D"/>
  <anchor x="278" y="0" name="cedilla"/>
  <anchor x="0" y="1520" name="half"/>
  <anchor x="1001" y="0" name="below"/>
  <anchor x="1001" y="1147" name="above"/>
  <outline>
    <contour>
      <point x="1065" y="905" type="qcurve"/>
      <point x="1134" y="1029"/>
      <point x="1326" y="1147"/>
      <point x="1456" y="1147" type="qcurve" smooth="yes"/>
      <point x="1631" y="1147"/>
      <point x="1821" y="902"/>
      <point x="1821" y="676" type="qcurve" smooth="yes"/>
      <point x="1821" y="0" type="line"/>
      <point x="1636" y="0" type="line"/>
      <point x="1636" y="670" type="line" smooth="yes"/>
      <point x="1636" y="831"/>
      <point x="1522" y="987"/>
      <point x="1405" y="987" type="qcurve" smooth="yes"/>
      <point x="1262" y="987"/>
      <point x="1096" y="797"/>
      <point x="1096" y="633" type="qcurve" smooth="yes"/>
      <point x="1096" y="0" type="line"/>
      <point x="911" y="0" type="line"/>
      <point x="911" y="670" type="line" smooth="yes"/>
      <point x="911" y="832"/>
      <point x="797" y="987"/>
      <point x="678" y="987" type="qcurve" smooth="yes"/>
      <point x="537" y="987"/>
      <point x="371" y="796"/>
      <point x="371" y="633" type="qcurve" smooth="yes"/>
      <point x="371" y="0" type="line"/>
      <point x="186" y="0" type="line"/>
      <point x="186" y="1120" type="line"/>
      <point x="371" y="1120" type="line"/>
      <point x="371" y="946" type="line"/>
      <point x="434" y="1049"/>
      <point x="610" y="1147"/>
      <point x="731" y="1147" type="qcurve" smooth="yes"/>
      <point x="853" y="1147"/>
      <point x="1024" y="1023"/>
    </contour>
  </outline>
</glyph>
<glyph name="n" format="2">
  <advance width="1298"/>
  <unicode hex="006E"/>
  <anchor x="278" y="0" name="cedilla"/>
  <anchor x="678" y="0" name="below"/>
  <anchor x="0" y="1520" name="half"/>
  <anchor x="649" y="1147" name="above"/>
  <outline>
    <contour>
      <point x="186" y="0" type="line"/>
      <point x="371" y="0" type="line"/>
      <point x="371" y="633" type="line" smooth="yes"/>
      <point x="371" y="852"/>
      <point x="493" y="987"/>
      <point x="692" y="987" type="curve" smooth="yes"/>
      <point x="857" y="987"/>
      <point x="940" y="882"/>
      <point x="940" y="670" type="curve" smooth="yes"/>
      <point x="940" y="0" type="line"/>
      <point x="1124" y="0" type="line"/>
      <point x="1124" y="676" type="line" smooth="yes"/>
      <point x="1124" y="985"/>
      <point x="990" y="1147"/>
      <point x="733" y="1147" type="curve" smooth="yes"/>
      <point x="577" y="1147"/>
      <point x="459" y="1081"/>
      <point x="371" y="946" type="curve"/>
      <point x="371" y="1120" type="line"/>
      <point x="186" y="1120" type="line"/>
    </contour>
  </outline>
</glyph>
<glyph name="o" format="2">
  <advance width="1253"/>
  <unicode hex="006F"/>
  <anchor x="628" y="0" name="ogonek"/>
  <anchor x="0" y="1520" name="half"/>
  <anchor x="627" y="0" name="cedilla"/>
  <anchor x="627" y="0" name="below"/>
  <anchor x="627" y="1147" name="above"/>
  <outline>
    <contour>
      <point x="627" y="991" type="qcurve" smooth="yes"/>
      <point x="479" y="991"/>
      <point x="307" y="760"/>
      <point x="307" y="559" type="qcurve" smooth="yes"/>
      <point x="307" y="358"/>
      <point x="478" y="127"/>
      <point x="627" y="127" type="qcurve" smooth="yes"/>
      <point x="774" y="127"/>
      <point x="946" y="359"/>
      <point x="946" y="559" type="qcurve" smooth="yes"/>
      <point x="946" y="758"/>
      <point x="774" y="991"/>
    </contour>
    <contour>
      <point x="627" y="1147" type="qcurve" smooth="yes"/>
      <point x="867" y="1147"/>
      <point x="1141" y="835"/>
      <point x="1141" y="559" type="qcurve" smooth="yes"/>
      <point x="1141" y="284"/>
      <point x="867" y="-29"/>
      <point x="627" y="-29" type="qcurve" smooth="yes"/>
      <point x="386" y="-29"/>
      <point x="113" y="284"/>
      <point x="113" y="559" type="qcurve" smooth="yes"/>
      <point x="113" y="835"/>
      <point x="386" y="1147"/>
    </contour>
  </outline>
</glyph>
<glyph name="p" format="2">
  <advance width="1300"/>
  <unicode hex="0070"/>
  <anchor x="678" y="-430" name="below"/>
  <anchor x="0" y="1520" name="half"/>
  <anchor x="678" y="1147" name="above"/>
  <outline>
    <contour>
      <point x="186" y="-426" type="line"/>
      <point x="371" y="-426" type="line"/>
      <point x="371" y="168" type="line"/>
      <point x="448" y="35"/>
      <point x="565" y="-29"/>
      <point x="729" y="-29" type="curve" smooth="yes"/>
      <point x="1001" y="-29"/>
      <point x="1188" y="207"/>
      <point x="1188" y="559" type="curve" smooth="yes"/>
      <point x="1188" y="911"/>
      <point x="1001" y="1147"/>
      <point x="729" y="1147" type="curve" smooth="yes"/>
      <point x="565" y="1147"/>
      <point x="448" y="1083"/>
      <point x="371" y="950" type="curve"/>
      <point x="371" y="1120" type="line"/>
      <point x="186" y="1120" type="line"/>
    </contour>
    <contour>
      <point x="684" y="125" type="curve" smooth="yes"/>
      <point x="489" y="125"/>
      <point x="371" y="288"/>
      <point x="371" y="559" type="curve" smooth="yes"/>
      <point x="371" y="830"/>
      <point x="489" y="993"/>
      <point x="684" y="993" type="curve" smooth="yes"/>
      <point x="879" y="993"/>
      <point x="997" y="830"/>
      <point x="997" y="559" type="curve" smooth="yes"/>
      <point x="997" y="288"/>
      <point x="879" y="125"/>
    </contour>
  </outline>
</glyph>
<glyph name="s" format="2">
  <advance width="1067"/>
  <unicode hex="0073"/>
  <anchor x="0" y="1520" name="half"/>
  <anchor x="558" y="0" name="cedilla"/>
  <anchor x="549" y="0" name="below"/>
  <anchor x="551" y="1147" name="above"/>
  <outline>
    <contour>
      <point x="907" y="1087" type="qcurve"/>
      <point x="907" y="913" type="line"/>
      <point x="829" y="953"/>
      <point x="661" y="993"/>
      <point x="571" y="993" type="qcurve" smooth="yes"/>
      <point x="434" y="993"/>
      <point x="297" y="909"/>
      <point x="297" y="825" type="qcurve" smooth="yes"/>
      <point x="297" y="761"/>
      <point x="395" y="688"/>
      <point x="543" y="655" type="qcurve" smooth="yes"/>
      <point x="606" y="641" type="line" smooth="yes"/>
      <point x="802" y="599"/>
      <point x="967" y="446"/>
      <point x="967" y="309" type="qcurve" smooth="yes"/>
      <point x="967" y="153"/>
      <point x="720" y="-29"/>
      <point x="504" y="-29" type="qcurve" smooth="yes"/>
      <point x="414" y="-29"/>
      <point x="219" y="6"/>
      <point x="111" y="41" type="qcurve"/>
      <point x="111" y="231" type="line"/>
      <point x="213" y="178"/>
      <point x="411" y="125"/>
      <point x="508" y="125" type="qcurve" smooth="yes"/>
      <point x="638" y="125"/>
      <point x="778" y="214"/>
      <point x="778" y="295" type="qcurve" smooth="yes"/>
      <point x="778" y="370"/>
      <point x="677" y="450"/>
      <point x="506" y="487" type="qcurve" smooth="yes"/>
      <point x="442" y="502" type="line"/>
      <point x="271" y="538"/>
      <point x="119" y="687"/>
      <point x="119" y="817" type="qcurve" smooth="yes"/>
      <point x="119" y="975"/>
      <point x="343" y="1147"/>
      <point x="549" y="1147" type="qcurve" smooth="yes"/>
      <point x="651" y="1147"/>
      <point x="831" y="1117"/>
    </contour>
  </outline>
</glyph>
<glyph name="t" format="2">
  <advance width="803"/>
  <unicode hex="0074"/>
  <anchor x="0" y="1520" name="half"/>
  <anchor x="500" y="0" name="below"/>
  <anchor x="282" y="1520" name="above"/>
  <outline>
    <contour>
      <point x="375" y="1438" type="line"/>
      <point x="375" y="1120" type="line"/>
      <point x="754" y="1120" type="line"/>
      <point x="754" y="977" type="line"/>
      <point x="375" y="977" type="line"/>
      <point x="375" y="369" type="line" smooth="yes"/>
      <point x="375" y="232"/>
      <point x="450" y="154"/>
      <point x="565" y="154" type="qcurve" smooth="yes"/>
      <point x="754" y="154" type="line"/>
      <point x="754" y="0" type="line"/>
      <point x="565" y="0" type="line" smooth="yes"/>
      <point x="352" y="0"/>
      <point x="190" y="159"/>
      <point x="190" y="369" type="qcurve" smooth="yes"/>
      <point x="190" y="977" type="line"/>
      <point x="55" y="977" type="line"/>
      <point x="55" y="1120" type="line"/>
      <point x="190" y="1120" type="line"/>
      <point x="190" y="1438" type="line"/>
    </contour>
  </outline>
</glyph>
<glyph name="u" format="2">
  <advance width="1298"/>
  <unicode hex="0075"/>
  <anchor x="1051" y="0" name="ogonek"/>
  <anchor x="0" y="1520" name="half"/>
  <anchor x="637" y="0" name="cedilla"/>
  <anchor x="637" y="0" name="below"/>
  <anchor x="637" y="1147" name="above"/>
  <outline>
    <contour>
      <point x="174" y="442" type="qcurve" smooth="yes"/>
      <point x="174" y="1120" type="line"/>
      <point x="358" y="1120" type="line"/>
      <point x="358" y="449" type="line" smooth="yes"/>
      <point x="358" y="290"/>
      <point x="482" y="131"/>
      <point x="606" y="131" type="qcurve" smooth="yes"/>
      <point x="755" y="131"/>
      <point x="928" y="321"/>
      <point x="928" y="485" type="qcurve" smooth="yes"/>
      <point x="928" y="1120" type="line"/>
      <point x="1112" y="1120" type="line"/>
      <point x="1112" y="0" type="line"/>
      <point x="928" y="0" type="line"/>
      <point x="928" y="172" type="line"/>
      <point x="861" y="70"/>
      <point x="684" y="-29"/>
      <point x="567" y="-29" type="qcurve" smooth="yes"/>
      <point x="374" y="-29"/>
      <point x="174" y="211"/>
    </contour>
    <contour>
      <point x="637" y="1147" type="move"/>
    </contour>
  </outline>
</glyph>
<glyph name="v" format="2">
  <advance width="1212"/>
  <unicode hex="0076"/>
  <anchor x="0" y="1520" name="half"/>
  <anchor x="606" y="0" name="below"/>
  <anchor x="606" y="1147" name="above"/>
  <outline>
    <contour>
      <point x="61" y="1120" type="line"/>
      <point x="256" y="1120" type="line"/>
      <point x="606" y="180" type="line"/>
      <point x="956" y="1120" type="line"/>
      <point x="1151" y="1120" type="line"/>
      <point x="731" y="0" type="line"/>
      <point x="481" y="0" type="line"/>
    </contour>
  </outline>
</glyph>
<glyph name="w" format="2">
  <advance width="1675"/>
  <unicode hex="0077"/>
  <anchor x="839" y="0" name="below"/>
  <anchor x="0" y="1520" name="half"/>
  <anchor x="839" y="1147" name="above"/>
  <outline>
    <contour>
      <point x="379" y="0" type="line"/>
      <point x="596" y="0" type="line"/>
      <point x="838" y="918" type="line"/>
      <point x="1079" y="0" type="line"/>
      <point x="1296" y="0" type="line"/>
      <point x="1589" y="1120" type="line"/>
      <point x="1405" y="1120" type="line"/>
      <point x="1176" y="246" type="line"/>
      <point x="946" y="1120" type="line"/>
      <point x="729" y="1120" type="line"/>
      <point x="500" y="246" type="line"/>
      <point x="270" y="1120" type="line"/>
      <point x="86" y="1120" type="line"/>
    </contour>
  </outline>
</glyph>
<glyph name="x" format="2">
  <advance width="1212"/>
  <unicode hex="0078"/>
  <anchor x="610" y="0" name="below"/>
  <anchor x="0" y="1520" name="half"/>
  <anchor x="610" y="1147" name="above"/>
  <outline>
    <contour>
      <point x="59" y="0" type="line"/>
      <point x="276" y="0" type="line"/>
      <point x="602" y="440" type="line"/>
      <point x="928" y="0" type="line"/>
      <point x="1145" y="0" type="line"/>
      <point x="719" y="575" type="line"/>
      <point x="1124" y="1120" type="line"/>
      <point x="907" y="1120" type="line"/>
      <point x="610" y="721" type="line"/>
      <point x="313" y="1120" type="line"/>
      <point x="96" y="1120" type="line"/>
      <point x="494" y="586" type="line"/>
    </contour>
  </outline>
</glyph>
<glyph name="y" format="2">
  <advance width="1212"/>
  <unicode hex="0079"/>
  <anchor x="250" y="-426" name="ogonek"/>
  <anchor x="0" y="1520" name="half"/>
  <anchor x="608" y="-430" name="below"/>
  <anchor x="608" y="1147" name="above"/>
  <outline>
    <contour>
      <point x="659" y="-104" type="line"/>
      <point x="581" y="-304"/>
      <point x="433" y="-426"/>
      <point x="309" y="-426" type="qcurve" smooth="yes"/>
      <point x="162" y="-426" type="line"/>
      <point x="162" y="-272" type="line"/>
      <point x="270" y="-272" type="line" smooth="yes"/>
      <point x="346" y="-272"/>
      <point x="430" y="-200"/>
      <point x="481" y="-66" type="qcurve"/>
      <point x="514" y="18" type="line"/>
      <point x="61" y="1120" type="line"/>
      <point x="256" y="1120" type="line"/>
      <point x="606" y="244" type="line"/>
      <point x="956" y="1120" type="line"/>
      <point x="1151" y="1120" type="line"/>
    </contour>
  </outline>
</glyph>
<glyph name="z" format="2">
  <advance width="1075"/>
  <unicode hex="007A"/>
  <anchor x="535" y="0" name="cedilla"/>
  <anchor x="535" y="0" name="ogonek"/>
  <anchor x="0" y="1520" name="half"/>
  <anchor x="535" y="0" name="below"/>
  <anchor x="535" y="1147" name="above"/>
  <outline>
    <contour>
      <point x="88" y="0" type="line"/>
      <point x="987" y="0" type="line"/>
      <point x="987" y="147" type="line"/>
      <point x="295" y="147" type="line"/>
      <point x="987" y="952" type="line"/>
      <point x="987" y="1120" type="line"/>
      <point x="113" y="1120" type="line"/>
      <point x="113" y="973" type="line"/>
      <point x="780" y="973" type="line"/>
      <point x="88" y="168" type="line"/>
    </contour>
  </outline>
</glyph>
<glyph name="braceleft" format="2">
  <advance width="1303"/>
  <unicode hex="007B"/>
  <outline>
    <contour>
      <point x="1047" y="-190" type="line"/>
      <point x="1047" y="-334" type="line"/>
      <point x="985" y="-334" type="line" smooth="yes"/>
      <point x="736" y="-334"/>
      <point x="567" y="-186"/>
      <point x="567" y="35" type="qcurve" smooth="yes"/>
      <point x="567" y="274" type="line" smooth="yes"/>
      <point x="567" y="425"/>
      <point x="459" y="541"/>
      <point x="317" y="541" type="qcurve" smooth="yes"/>
      <point x="256" y="541" type="line"/>
      <point x="256" y="684" type="line"/>
      <point x="317" y="684" type="line" smooth="yes"/>
      <point x="460" y="684"/>
      <point x="567" y="799"/>
      <point x="567" y="948" type="qcurve" smooth="yes"/>
      <point x="567" y="1188" type="line" smooth="yes"/>
      <point x="567" y="1409"/>
      <point x="736" y="1556"/>
      <point x="985" y="1556" type="qcurve" smooth="yes"/>
      <point x="1047" y="1556" type="line"/>
      <point x="1047" y="1413" type="line"/>
      <point x="979" y="1413" type="line" smooth="yes"/>
      <point x="838" y="1413"/>
      <point x="752" y="1325"/>
      <point x="752" y="1184" type="qcurve" smooth="yes"/>
      <point x="752" y="936" type="line" smooth="yes"/>
      <point x="752" y="779"/>
      <point x="661" y="637"/>
      <point x="551" y="612" type="qcurve"/>
      <point x="662" y="585"/>
      <point x="752" y="443"/>
      <point x="752" y="287" type="qcurve" smooth="yes"/>
      <point x="752" y="39" type="line" smooth="yes"/>
      <point x="752" y="-102"/>
      <point x="838" y="-190"/>
      <point x="979" y="-190" type="qcurve" smooth="yes"/>
    </contour>
  </outline>
</glyph>
<glyph name="braceright" format="2">
  <advance width="1303"/>
  <unicode hex="007D"/>
  <outline>
    <contour>
      <point x="256" y="-334" type="line"/>
      <point x="319" y="-334" type="line" smooth="yes"/>
      <point x="651" y="-334"/>
      <point x="735" y="-260"/>
      <point x="735" y="35" type="curve" smooth="yes"/>
      <point x="735" y="274" type="line" smooth="yes"/>
      <point x="735" y="475"/>
      <point x="796" y="541"/>
      <point x="985" y="541" type="curve" smooth="yes"/>
      <point x="1047" y="541" type="line"/>
      <point x="1047" y="684" type="line"/>
      <point x="985" y="684" type="line" smooth="yes"/>
      <point x="796" y="684"/>
      <point x="735" y="749"/>
      <point x="735" y="948" type="curve" smooth="yes"/>
      <point x="735" y="1188" type="line" smooth="yes"/>
      <point x="735" y="1483"/>
      <point x="651" y="1556"/>
      <point x="319" y="1556" type="curve" smooth="yes"/>
      <point x="256" y="1556" type="line"/>
      <point x="256" y="1413" type="line"/>
      <point x="326" y="1413" type="line" smooth="yes"/>
      <point x="513" y="1413"/>
      <point x="551" y="1373"/>
      <point x="551" y="1184" type="curve" smooth="yes"/>
      <point x="551" y="936" type="line" smooth="yes"/>
      <point x="551" y="727"/>
      <point x="604" y="645"/>
      <point x="752" y="612" type="curve"/>
      <point x="604" y="576"/>
      <point x="551" y="495"/>
      <point x="551" y="287" type="curve" smooth="yes"/>
      <point x="551" y="39" type="line" smooth="yes"/>
      <point x="551" y="-152"/>
      <point x="513" y="-190"/>
      <point x="326" y="-190" type="curve" smooth="yes"/>
      <point x="256" y="-190" type="line"/>
    </contour>
  </outline>
</glyph>
<glyph name="asciitilde" format="2">
  <advance width="1716"/>
  <unicode hex="007E"/>
  <outline>
    <contour>
      <point x="217" y="467" type="line"/>
      <point x="348" y="578"/>
      <point x="458" y="627"/>
      <point x="575" y="627" type="curve" smooth="yes"/>
      <point x="638" y="627"/>
      <point x="721" y="606"/>
      <point x="824" y="565" type="curve"/>
      <point x="834" y="562"/>
      <point x="841" y="559"/>
      <point x="846" y="557" type="curve" smooth="yes"/>
      <point x="849" y="556"/>
      <point x="855" y="554"/>
      <point x="862" y="551" type="curve"/>
      <point x="959" y="512"/>
      <point x="1045" y="492"/>
      <point x="1118" y="492" type="curve" smooth="yes"/>
      <point x="1247" y="492"/>
      <point x="1359" y="534"/>
      <point x="1499" y="639" type="curve"/>
      <point x="1499" y="817" type="line"/>
      <point x="1362" y="705"/>
      <point x="1256" y="657"/>
      <point x="1141" y="657" type="curve" smooth="yes"/>
      <point x="1078" y="657"/>
      <point x="995" y="678"/>
      <point x="892" y="719" type="curve"/>
      <point x="883" y="722"/>
      <point x="875" y="725"/>
      <point x="870" y="727" type="curve" smooth="yes"/>
      <point x="867" y="728"/>
      <point x="862" y="730"/>
      <point x="855" y="733" type="curve" smooth="yes"/>
      <point x="757" y="773"/>
      <point x="671" y="793"/>
      <point x="598" y="793" type="curve" smooth="yes"/>
      <point x="469" y="793"/>
      <point x="357" y="750"/>
      <point x="217" y="645" type="curve"/>
    </contour>
  </outline>
</glyph>
<glyph name="exclamdown" format="2">
  <advance width="821"/>
  <unicode hex="00A1"/>
  <outline>
    <contour>
      <point x="512" y="866" type="line"/>
      <point x="309" y="866" type="line"/>
      <point x="309" y="1120" type="line"/>
      <point x="512" y="1120" type="line"/>
    </contour>
    <contour>
      <point x="512" y="-373" type="line"/>
      <point x="309" y="-373" type="line"/>
      <point x="309" y="282" type="line"/>
      <point x="330" y="639" type="line"/>
      <point x="492" y="639" type="line"/>
      <point x="512" y="282" type="line"/>
    </contour>
  </outline>
</glyph>
<glyph name="cent" format="2">
  <advance width="1303"/>
  <unicode hex="00A2"/>
  <outline>
    <contour>
      <point x="678" y="131" type="qcurve"/>
      <point x="678" y="987" type="line"/>
      <point x="531" y="969"/>
      <point x="367" y="743"/>
      <point x="367" y="559" type="qcurve" smooth="yes"/>
      <point x="367" y="374"/>
      <point x="531" y="148"/>
    </contour>
    <contour>
      <point x="1059" y="1077" type="qcurve"/>
      <point x="1059" y="905" type="line"/>
      <point x="985" y="946"/>
      <point x="849" y="988"/>
      <point x="781" y="991" type="qcurve"/>
      <point x="780" y="127" type="line"/>
      <point x="850" y="132"/>
      <point x="987" y="174"/>
      <point x="1059" y="213" type="qcurve"/>
      <point x="1059" y="43" type="line"/>
      <point x="994" y="13"/>
      <point x="857" y="-22"/>
      <point x="780" y="-29" type="qcurve"/>
      <point x="780" y="-313" type="line"/>
      <point x="678" y="-313" type="line"/>
      <point x="678" y="-25" type="line"/>
      <point x="437" y="-5"/>
      <point x="172" y="302"/>
      <point x="172" y="559" type="qcurve" smooth="yes"/>
      <point x="172" y="817"/>
      <point x="437" y="1123"/>
      <point x="678" y="1145" type="qcurve"/>
      <point x="678" y="1432" type="line"/>
      <point x="780" y="1432" type="line"/>
      <point x="781" y="1145" type="line"/>
      <point x="854" y="1141"/>
      <point x="991" y="1108"/>
    </contour>
  </outline>
</glyph>
<glyph name="sterling" format="2">
  <advance width="1303"/>
  <unicode hex="00A3"/>
  <outline>
    <contour>
      <point x="1102" y="1460" type="qcurve"/>
      <point x="1102" y="1278" type="line"/>
      <point x="1026" y="1319"/>
      <point x="890" y="1360"/>
      <point x="829" y="1360" type="qcurve" smooth="yes"/>
      <point x="681" y="1360"/>
      <point x="565" y="1205"/>
      <point x="565" y="993" type="qcurve" smooth="yes"/>
      <point x="565" y="778" type="line"/>
      <point x="956" y="778" type="line"/>
      <point x="956" y="635" type="line"/>
      <point x="565" y="635" type="line"/>
      <point x="565" y="170" type="line"/>
      <point x="1122" y="170" type="line"/>
      <point x="1122" y="0" type="line"/>
      <point x="129" y="0" type="line"/>
      <point x="129" y="170" type="line"/>
      <point x="365" y="170" type="line"/>
      <point x="365" y="635" type="line"/>
      <point x="166" y="635" type="line"/>
      <point x="166" y="778" type="line"/>
      <point x="365" y="778" type="line"/>
      <point x="365" y="1016" type="line" smooth="yes"/>
      <point x="365" y="1277"/>
      <point x="579" y="1520"/>
      <point x="811" y="1520" type="qcurve" smooth="yes"/>
      <point x="872" y="1520"/>
      <point x="1023" y="1489"/>
    </contour>
  </outline>
</glyph>
<glyph name="section" format="2">
  <advance width="1024"/>
  <unicode hex="00A7"/>
  <outline>
    <contour>
      <point x="487" y="-195" type="curve" smooth="yes"/>
      <point x="718" y="-195"/>
      <point x="864" y="-74"/>
      <point x="864" y="115" type="curve" smooth="yes"/>
      <point x="864" y="200"/>
      <point x="828" y="271"/>
      <point x="745" y="340" type="curve"/>
      <point x="869" y="411"/>
      <point x="930" y="503"/>
      <point x="930" y="623" type="curve" smooth="yes"/>
      <point x="930" y="690"/>
      <point x="908" y="750"/>
      <point x="865" y="801" type="curve" smooth="yes"/>
      <point x="821" y="852"/>
      <point x="729" y="918"/>
      <point x="588" y="997" type="curve" smooth="yes"/>
      <point x="579" y="1002"/>
      <point x="565" y="1010"/>
      <point x="548" y="1020" type="curve" smooth="yes"/>
      <point x="411" y="1097"/>
      <point x="342" y="1165"/>
      <point x="342" y="1225" type="curve" smooth="yes"/>
      <point x="342" y="1320"/>
      <point x="418" y="1376"/>
      <point x="547" y="1376" type="curve" smooth="yes"/>
      <point x="622" y="1376"/>
      <point x="718" y="1350"/>
      <point x="829" y="1298" type="curve"/>
      <point x="829" y="1462" type="line"/>
      <point x="724" y="1501"/>
      <point x="621" y="1520"/>
      <point x="524" y="1520" type="curve" smooth="yes"/>
      <point x="303" y="1520"/>
      <point x="158" y="1404"/>
      <point x="158" y="1231" type="curve" smooth="yes"/>
      <point x="158" y="1139"/>
      <point x="197" y="1065"/>
      <point x="276" y="1006" type="curve"/>
      <point x="155" y="941"/>
      <point x="92" y="844"/>
      <point x="92" y="723" type="curve" smooth="yes"/>
      <point x="92" y="655"/>
      <point x="113" y="596"/>
      <point x="156" y="545" type="curve" smooth="yes"/>
      <point x="199" y="494"/>
      <point x="291" y="428"/>
      <point x="434" y="348" type="curve" smooth="yes"/>
      <point x="459" y="334" type="line" smooth="yes"/>
      <point x="606" y="252"/>
      <point x="680" y="177"/>
      <point x="680" y="109" type="curve" smooth="yes"/>
      <point x="680" y="8"/>
      <point x="601" y="-51"/>
      <point x="465" y="-51" type="curve" smooth="yes"/>
      <point x="388" y="-51"/>
      <point x="288" y="-25"/>
      <point x="172" y="27" type="curve"/>
      <point x="172" y="-137" type="line"/>
      <point x="289" y="-176"/>
      <point x="390" y="-195"/>
    </contour>
    <contour>
      <point x="643" y="410" type="curve"/>
      <point x="476" y="500"/>
      <point x="370" y="567"/>
      <point x="324" y="612" type="curve" smooth="yes"/>
      <point x="277" y="656"/>
      <point x="254" y="703"/>
      <point x="254" y="754" type="curve" smooth="yes"/>
      <point x="254" y="815"/>
      <point x="295" y="875"/>
      <point x="379" y="936" type="curve"/>
      <point x="543" y="847"/>
      <point x="649" y="780"/>
      <point x="697" y="735" type="curve" smooth="yes"/>
      <point x="744" y="690"/>
      <point x="768" y="642"/>
      <point x="768" y="592" type="curve" smooth="yes"/>
      <point x="768" y="531"/>
      <point x="727" y="470"/>
    </contour>
  </outline>
</glyph>
<glyph name="dieresis" format="2">
  <advance width="1024"/>
  <unicode hex="00A8"/>
  <outline>
    <contour>
      <point x="606" y="1350" type="line"/>
      <point x="809" y="1350" type="line"/>
      <point x="809" y="1552" type="line"/>
      <point x="606" y="1552" type="line"/>
    </contour>
    <contour>
      <point x="215" y="1350" type="line"/>
      <point x="418" y="1350" type="line"/>
      <point x="418" y="1552" type="line"/>
      <point x="215" y="1552" type="line"/>
    </contour>
  </outline>
</glyph>
<glyph name="copyright" format="2">
  <advance width="2048"/>
  <unicode hex="00A9"/>
  <outline>
    <contour>
      <point x="1024" y="1485" type="qcurve" smooth="yes"/>
      <point x="1176" y="1485"/>
      <point x="1439" y="1375"/>
      <point x="1548" y="1266" type="qcurve" smooth="yes"/>
      <point x="1657" y="1157"/>
      <point x="1765" y="895"/>
      <point x="1765" y="741" type="qcurve" smooth="yes"/>
      <point x="1765" y="589"/>
      <point x="1657" y="328"/>
      <point x="1548" y="219" type="qcurve" smooth="yes"/>
      <point x="1439" y="110"/>
      <point x="1176" y="0"/>
      <point x="1024" y="0" type="qcurve" smooth="yes"/>
      <point x="872" y="0"/>
      <point x="609" y="110"/>
      <point x="500" y="219" type="qcurve" smooth="yes"/>
      <point x="391" y="328"/>
      <point x="283" y="589"/>
      <point x="283" y="741" type="qcurve" smooth="yes"/>
      <point x="283" y="895"/>
      <point x="391" y="1157"/>
      <point x="500" y="1266" type="qcurve" smooth="yes"/>
      <point x="609" y="1375"/>
      <point x="872" y="1485"/>
    </contour>
    <contour>
      <point x="1024" y="1382" type="qcurve" smooth="yes"/>
      <point x="893" y="1382"/>
      <point x="667" y="1288"/>
      <point x="573" y="1194" type="qcurve" smooth="yes"/>
      <point x="479" y="1100"/>
      <point x="383" y="871"/>
      <point x="383" y="741" type="qcurve" smooth="yes"/>
      <point x="383" y="612"/>
      <point x="479" y="385"/>
      <point x="573" y="291" type="qcurve" smooth="yes"/>
      <point x="667" y="197"/>
      <point x="893" y="102"/>
      <point x="1024" y="102" type="qcurve" smooth="yes"/>
      <point x="1156" y="102"/>
      <point x="1383" y="197"/>
      <point x="1477" y="291" type="qcurve" smooth="yes"/>
      <point x="1570" y="384"/>
      <point x="1663" y="610"/>
      <point x="1663" y="741" type="qcurve" smooth="yes"/>
      <point x="1663" y="874"/>
      <point x="1569" y="1101"/>
      <point x="1477" y="1194" type="qcurve" smooth="yes"/>
      <point x="1383" y="1288"/>
      <point x="1156" y="1382"/>
    </contour>
    <contour>
      <point x="1323" y="1137" type="qcurve"/>
      <point x="1323" y="1008" type="line"/>
      <point x="1257" y="1041"/>
      <point x="1127" y="1073"/>
      <point x="1061" y="1073" type="qcurve" smooth="yes"/>
      <point x="912" y="1073"/>
      <point x="745" y="898"/>
      <point x="745" y="741" type="qcurve" smooth="yes"/>
      <point x="745" y="582"/>
      <point x="916" y="408"/>
      <point x="1071" y="408" type="qcurve" smooth="yes"/>
      <point x="1135" y="408"/>
      <point x="1257" y="439"/>
      <point x="1323" y="473" type="qcurve"/>
      <point x="1323" y="346" type="line"/>
      <point x="1256" y="317"/>
      <point x="1119" y="289"/>
      <point x="1049" y="289" type="qcurve" smooth="yes"/>
      <point x="833" y="289"/>
      <point x="582" y="533"/>
      <point x="582" y="741" type="qcurve" smooth="yes"/>
      <point x="582" y="950"/>
      <point x="833" y="1192"/>
      <point x="1049" y="1192" type="qcurve" smooth="yes"/>
      <point x="1122" y="1192"/>
      <point x="1258" y="1164"/>
    </contour>
  </outline>
</glyph>
<glyph name="ordfeminine" format="2">
  <advance width="965"/>
  <unicode hex="00AA"/>
  <outline>
    <contour>
      <point x="139" y="592" type="line"/>
      <point x="827" y="592" type="line"/>
      <point x="827" y="469" type="line"/>
      <point x="139" y="469" type="line"/>
    </contour>
    <contour>
      <point x="825" y="1165" type="qcurve" smooth="yes"/>
      <point x="825" y="717" type="line"/>
      <point x="676" y="717" type="line"/>
      <point x="676" y="829" type="line"/>
      <point x="632" y="766"/>
      <point x="488" y="698"/>
      <point x="395" y="698" type="qcurve" smooth="yes"/>
      <point x="267" y="698"/>
      <point x="115" y="833"/>
      <point x="115" y="946" type="qcurve" smooth="yes"/>
      <point x="115" y="1081"/>
      <point x="306" y="1219"/>
      <point x="494" y="1219" type="qcurve" smooth="yes"/>
      <point x="676" y="1219" type="line"/>
      <point x="676" y="1223" type="line" smooth="yes"/>
      <point x="676" y="1314"/>
      <point x="559" y="1405"/>
      <point x="442" y="1405" type="qcurve" smooth="yes"/>
      <point x="380" y="1405"/>
      <point x="244" y="1371"/>
      <point x="176" y="1337" type="qcurve"/>
      <point x="176" y="1464" type="line"/>
      <point x="249" y="1492"/>
      <point x="394" y="1520"/>
      <point x="463" y="1520" type="qcurve" smooth="yes"/>
      <point x="646" y="1520"/>
      <point x="825" y="1344"/>
    </contour>
    <contour>
      <point x="549" y="1104" type="line" smooth="yes"/>
      <point x="388" y="1104"/>
      <point x="262" y="1037"/>
      <point x="262" y="958" type="qcurve" smooth="yes"/>
      <point x="262" y="894"/>
      <point x="360" y="817"/>
      <point x="442" y="817" type="qcurve" smooth="yes"/>
      <point x="546" y="817"/>
      <point x="676" y="961"/>
      <point x="676" y="1075" type="qcurve" smooth="yes"/>
      <point x="676" y="1104" type="line"/>
    </contour>
  </outline>
</glyph>
<glyph name="guillemotleft" format="2">
  <advance width="1253"/>
  <unicode hex="00AB"/>
  <outline>
    <contour>
      <point x="1061" y="141" type="line"/>
      <point x="1061" y="332" type="line"/>
      <point x="760" y="600" type="line"/>
      <point x="1061" y="868" type="line"/>
      <point x="1061" y="1059" type="line"/>
      <point x="592" y="641" type="line"/>
      <point x="592" y="559" type="line"/>
    </contour>
    <contour>
      <point x="627" y="141" type="line"/>
      <point x="627" y="332" type="line"/>
      <point x="326" y="600" type="line"/>
      <point x="627" y="868" type="line"/>
      <point x="627" y="1059" type="line"/>
      <point x="158" y="641" type="line"/>
      <point x="158" y="559" type="line"/>
    </contour>
  </outline>
</glyph>
<glyph name="logicalnot" format="2">
  <advance width="1716"/>
  <unicode hex="00AC"/>
  <outline>
    <contour>
      <point x="217" y="862" type="line"/>
      <point x="1499" y="862" type="line"/>
      <point x="1499" y="287" type="line"/>
      <point x="1331" y="287" type="line"/>
      <point x="1331" y="692" type="line"/>
      <point x="217" y="692" type="line"/>
    </contour>
  </outline>
</glyph>
<glyph name="sfthyphen" format="2">
  <advance width="739"/>
  <unicode hex="00AD"/>
  <outline>
    <contour>
      <point x="100" y="643" type="line"/>
      <point x="639" y="643" type="line"/>
      <point x="639" y="479" type="line"/>
      <point x="100" y="479" type="line"/>
    </contour>
  </outline>
</glyph>
<glyph name="registered" format="2">
  <advance width="2048"/>
  <unicode hex="00AE"/>
  <outline>
    <contour>
      <point x="1024" y="1382" type="qcurve" smooth="yes"/>
      <point x="893" y="1382"/>
      <point x="667" y="1288"/>
      <point x="573" y="1194" type="qcurve" smooth="yes"/>
      <point x="479" y="1100"/>
      <point x="383" y="871"/>
      <point x="383" y="741" type="qcurve" smooth="yes"/>
      <point x="383" y="612"/>
      <point x="479" y="385"/>
      <point x="573" y="291" type="qcurve" smooth="yes"/>
      <point x="667" y="197"/>
      <point x="893" y="102"/>
      <point x="1024" y="102" type="qcurve" smooth="yes"/>
      <point x="1156" y="102"/>
      <point x="1383" y="197"/>
      <point x="1477" y="291" type="qcurve" smooth="yes"/>
      <point x="1570" y="384"/>
      <point x="1663" y="610"/>
      <point x="1663" y="741" type="qcurve" smooth="yes"/>
      <point x="1663" y="874"/>
      <point x="1569" y="1101"/>
      <point x="1477" y="1194" type="qcurve" smooth="yes"/>
      <point x="1383" y="1288"/>
      <point x="1156" y="1382"/>
    </contour>
    <contour>
      <point x="1024" y="1485" type="qcurve" smooth="yes"/>
      <point x="1176" y="1485"/>
      <point x="1439" y="1375"/>
      <point x="1548" y="1266" type="qcurve" smooth="yes"/>
      <point x="1657" y="1157"/>
      <point x="1765" y="895"/>
      <point x="1765" y="741" type="qcurve" smooth="yes"/>
      <point x="1765" y="589"/>
      <point x="1657" y="328"/>
      <point x="1548" y="219" type="qcurve" smooth="yes"/>
      <point x="1439" y="110"/>
      <point x="1176" y="0"/>
      <point x="1024" y="0" type="qcurve" smooth="yes"/>
      <point x="872" y="0"/>
      <point x="609" y="110"/>
      <point x="500" y="219" type="qcurve" smooth="yes"/>
      <point x="391" y="328"/>
      <point x="283" y="589"/>
      <point x="283" y="741" type="qcurve" smooth="yes"/>
      <point x="283" y="895"/>
      <point x="391" y="1157"/>
      <point x="500" y="1266" type="qcurve" smooth="yes"/>
      <point x="609" y="1375"/>
      <point x="872" y="1485"/>
    </contour>
    <contour>
      <point x="997" y="1071" type="qcurve" smooth="yes"/>
      <point x="874" y="1071" type="line"/>
      <point x="874" y="795" type="line"/>
      <point x="997" y="795" type="line" smooth="yes"/>
      <point x="1107" y="795"/>
      <point x="1194" y="857"/>
      <point x="1194" y="932" type="qcurve" smooth="yes"/>
      <point x="1194" y="1008"/>
      <point x="1106" y="1071"/>
    </contour>
    <contour>
      <point x="1004" y="1174" type="line" smooth="yes"/>
      <point x="1180" y="1174"/>
      <point x="1354" y="1055"/>
      <point x="1354" y="934" type="qcurve" smooth="yes"/>
      <point x="1354" y="848"/>
      <point x="1249" y="736"/>
      <point x="1153" y="719" type="qcurve"/>
      <point x="1177" y="711"/>
      <point x="1244" y="634"/>
      <point x="1290" y="561" type="qcurve"/>
      <point x="1427" y="338" type="line"/>
      <point x="1255" y="338" type="line"/>
      <point x="1126" y="547" type="line" smooth="yes"/>
      <point x="1067" y="643"/>
      <point x="994" y="694"/>
      <point x="940" y="694" type="qcurve" smooth="yes"/>
      <point x="874" y="694" type="line"/>
      <point x="874" y="338" type="line"/>
      <point x="719" y="338" type="line"/>
      <point x="719" y="1174" type="line"/>
    </contour>
  </outline>
</glyph>
<glyph name="macron" format="2">
  <advance width="1024"/>
  <unicode hex="00AF"/>
  <outline>
    <contour>
      <point x="213" y="1378" type="line"/>
      <point x="811" y="1378" type="line"/>
      <point x="811" y="1526" type="line"/>
      <point x="213" y="1526" type="line"/>
    </contour>
  </outline>
</glyph>
<glyph name="plusminus" format="2">
  <advance width="1716"/>
  <unicode hex="00B1"/>
  <outline>
    <contour>
      <point x="774" y="340" type="line"/>
      <point x="942" y="340" type="line"/>
      <point x="942" y="727" type="line"/>
      <point x="1499" y="727" type="line"/>
      <point x="1499" y="897" type="line"/>
      <point x="942" y="897" type="line"/>
      <point x="942" y="1284" type="line"/>
      <point x="774" y="1284" type="line"/>
      <point x="774" y="897" type="line"/>
      <point x="217" y="897" type="line"/>
      <point x="217" y="727" type="line"/>
      <point x="774" y="727" type="line"/>
    </contour>
    <contour>
      <point x="217" y="0" type="line"/>
      <point x="1499" y="0" type="line"/>
      <point x="1499" y="170" type="line"/>
      <point x="217" y="170" type="line"/>
    </contour>
  </outline>
</glyph>
<glyph name="twosuperior" format="2">
  <advance width="821"/>
  <unicode hex="00B2"/>
  <outline>
    <contour>
      <point x="268" y="782" type="qcurve"/>
      <point x="692" y="782" type="line"/>
      <point x="692" y="668" type="line"/>
      <point x="94" y="668" type="line"/>
      <point x="94" y="778" type="line"/>
      <point x="128" y="809"/>
      <point x="191" y="865" type="qcurve" smooth="yes"/>
      <point x="535" y="1170"/>
      <point x="535" y="1264" type="qcurve" smooth="yes"/>
      <point x="535" y="1330"/>
      <point x="431" y="1411"/>
      <point x="346" y="1411" type="qcurve" smooth="yes"/>
      <point x="294" y="1411"/>
      <point x="172" y="1376"/>
      <point x="100" y="1341" type="qcurve"/>
      <point x="100" y="1464" type="line"/>
      <point x="177" y="1492"/>
      <point x="310" y="1520"/>
      <point x="367" y="1520" type="qcurve" smooth="yes"/>
      <point x="512" y="1520"/>
      <point x="686" y="1388"/>
      <point x="686" y="1280" type="qcurve" smooth="yes"/>
      <point x="686" y="1141"/>
      <point x="355" y="857" type="qcurve" smooth="yes"/>
      <point x="299" y="809"/>
    </contour>
  </outline>
</glyph>
<glyph name="threesuperior" format="2">
  <advance width="821"/>
  <unicode hex="00B3"/>
  <outline>
    <contour>
      <point x="524" y="1120" type="qcurve"/>
      <point x="616" y="1102"/>
      <point x="717" y="993"/>
      <point x="717" y="911" type="qcurve" smooth="yes"/>
      <point x="717" y="787"/>
      <point x="527" y="653"/>
      <point x="350" y="653" type="qcurve" smooth="yes"/>
      <point x="293" y="653"/>
      <point x="168" y="674"/>
      <point x="98" y="694" type="qcurve"/>
      <point x="98" y="815" type="line"/>
      <point x="150" y="788"/>
      <point x="269" y="762"/>
      <point x="336" y="762" type="qcurve" smooth="yes"/>
      <point x="445" y="762"/>
      <point x="565" y="841"/>
      <point x="565" y="911" type="qcurve" smooth="yes"/>
      <point x="565" y="985"/>
      <point x="454" y="1061"/>
      <point x="346" y="1061" type="qcurve" smooth="yes"/>
      <point x="260" y="1061" type="line"/>
      <point x="260" y="1169" type="line"/>
      <point x="354" y="1169" type="line" smooth="yes"/>
      <point x="448" y="1169"/>
      <point x="545" y="1232"/>
      <point x="545" y="1292" type="qcurve" smooth="yes"/>
      <point x="545" y="1350"/>
      <point x="445" y="1411"/>
      <point x="350" y="1411" type="qcurve" smooth="yes"/>
      <point x="310" y="1411"/>
      <point x="208" y="1393"/>
      <point x="127" y="1370" type="qcurve"/>
      <point x="127" y="1485" type="line"/>
      <point x="200" y="1502"/>
      <point x="328" y="1520"/>
      <point x="383" y="1520" type="qcurve" smooth="yes"/>
      <point x="527" y="1520"/>
      <point x="696" y="1402"/>
      <point x="696" y="1303" type="qcurve" smooth="yes"/>
      <point x="696" y="1234"/>
      <point x="606" y="1138"/>
    </contour>
  </outline>
</glyph>
<glyph name="acute" format="2">
  <advance width="1024"/>
  <unicode hex="00B4"/>
  <outline>
    <contour>
      <point x="371" y="1262" type="line"/>
      <point x="524" y="1262" type="line"/>
      <point x="850" y="1638" type="line"/>
      <point x="651" y="1638" type="line"/>
    </contour>
  </outline>
</glyph>
<glyph name="mu" format="2">
  <advance width="1303"/>
  <unicode hex="00B5"/>
  <outline>
    <contour>
      <point x="174" y="-426" type="line"/>
      <point x="358" y="-426" type="line"/>
      <point x="358" y="127" type="line"/>
      <point x="414" y="23"/>
      <point x="509" y="-29"/>
      <point x="645" y="-29" type="curve" smooth="yes"/>
      <point x="776" y="-29"/>
      <point x="871" y="24"/>
      <point x="938" y="129" type="curve"/>
      <point x="958" y="22"/>
      <point x="1012" y="-29"/>
      <point x="1104" y="-29" type="curve" smooth="yes"/>
      <point x="1151" y="-29"/>
      <point x="1198" y="-15"/>
      <point x="1253" y="16" type="curve"/>
      <point x="1253" y="164" type="line"/>
      <point x="1234" y="156"/>
      <point x="1220" y="150"/>
      <point x="1209" y="147" type="curve" smooth="yes"/>
      <point x="1198" y="143"/>
      <point x="1190" y="141"/>
      <point x="1184" y="141" type="curve" smooth="yes"/>
      <point x="1135" y="141"/>
      <point x="1112" y="178"/>
      <point x="1112" y="258" type="curve" smooth="yes"/>
      <point x="1112" y="1120" type="line"/>
      <point x="928" y="1120" type="line"/>
      <point x="928" y="467" type="line" smooth="yes"/>
      <point x="928" y="243"/>
      <point x="828" y="131"/>
      <point x="631" y="131" type="curve" smooth="yes"/>
      <point x="451" y="131"/>
      <point x="358" y="231"/>
      <point x="358" y="424" type="curve" smooth="yes"/>
      <point x="358" y="1120" type="line"/>
      <point x="174" y="1120" type="line"/>
    </contour>
  </outline>
</glyph>
<glyph name="paragraph" format="2">
  <advance width="1303"/>
  <unicode hex="00B6"/>
  <outline>
    <contour>
      <point x="633" y="1493" type="qcurve" smooth="yes"/>
      <point x="1081" y="1493" type="line"/>
      <point x="1081" y="-197" type="line"/>
      <point x="940" y="-197" type="line"/>
      <point x="940" y="1370" type="line"/>
      <point x="750" y="1370" type="line"/>
      <point x="750" y="-197" type="line"/>
      <point x="608" y="-197" type="line"/>
      <point x="608" y="649" type="line"/>
      <point x="393" y="666"/>
      <point x="158" y="887"/>
      <point x="158" y="1071" type="qcurve" smooth="yes"/>
      <point x="158" y="1261"/>
      <point x="418" y="1493"/>
    </contour>
  </outline>
</glyph>
<glyph name="periodcentered" format="2">
  <advance width="651"/>
  <unicode hex="00B7"/>
  <outline>
    <contour>
      <point x="219" y="584" type="line"/>
      <point x="430" y="584" type="line"/>
      <point x="430" y="838" type="line"/>
      <point x="219" y="838" type="line"/>
    </contour>
  </outline>
</glyph>
<glyph name="cedilla" format="2">
  <advance width="1024"/>
  <unicode hex="00B8"/>
  <outline>
    <contour>
      <point x="467" y="-395" type="curve" smooth="yes"/>
      <point x="624" y="-395"/>
      <point x="705" y="-334"/>
      <point x="705" y="-215" type="curve" smooth="yes"/>
      <point x="705" y="-151"/>
      <point x="669" y="-83"/>
      <point x="596" y="0" type="curve"/>
      <point x="477" y="0" type="line"/>
      <point x="537" y="-81"/>
      <point x="565" y="-138"/>
      <point x="565" y="-178" type="curve" smooth="yes"/>
      <point x="565" y="-239"/>
      <point x="525" y="-272"/>
      <point x="446" y="-272" type="curve" smooth="yes"/>
      <point x="383" y="-272"/>
      <point x="336" y="-263"/>
      <point x="291" y="-240" type="curve"/>
      <point x="291" y="-371" type="line"/>
      <point x="348" y="-387"/>
      <point x="406" y="-395"/>
    </contour>
  </outline>
</glyph>
<glyph name="onesuperior" format="2">
  <advance width="821"/>
  <unicode hex="00B9"/>
  <outline>
    <contour>
      <point x="156" y="778" type="line"/>
      <point x="360" y="778" type="line"/>
      <point x="360" y="1389" type="line"/>
      <point x="137" y="1348" type="line"/>
      <point x="137" y="1464" type="line"/>
      <point x="367" y="1503" type="line"/>
      <point x="504" y="1503" type="line"/>
      <point x="504" y="778" type="line"/>
      <point x="709" y="778" type="line"/>
      <point x="709" y="668" type="line"/>
      <point x="156" y="668" type="line"/>
    </contour>
  </outline>
</glyph>
<glyph name="ordmasculine" format="2">
  <advance width="965"/>
  <unicode hex="00BA"/>
  <outline>
    <contour>
      <point x="483" y="698" type="curve" smooth="yes"/>
      <point x="722" y="698"/>
      <point x="868" y="853"/>
      <point x="868" y="1108" type="curve" smooth="yes"/>
      <point x="868" y="1363"/>
      <point x="722" y="1520"/>
      <point x="483" y="1520" type="curve" smooth="yes"/>
      <point x="244" y="1520"/>
      <point x="96" y="1363"/>
      <point x="96" y="1108" type="curve" smooth="yes"/>
      <point x="96" y="855"/>
      <point x="244" y="698"/>
    </contour>
    <contour>
      <point x="139" y="469" type="line"/>
      <point x="827" y="469" type="line"/>
      <point x="827" y="592" type="line"/>
      <point x="139" y="592" type="line"/>
    </contour>
    <contour>
      <point x="483" y="815" type="curve" smooth="yes"/>
      <point x="344" y="815"/>
      <point x="252" y="931"/>
      <point x="252" y="1108" type="curve" smooth="yes"/>
      <point x="252" y="1289"/>
      <point x="343" y="1405"/>
      <point x="483" y="1405" type="curve" smooth="yes"/>
      <point x="624" y="1405"/>
      <point x="713" y="1291"/>
      <point x="713" y="1108" type="curve" smooth="yes"/>
      <point x="713" y="931"/>
      <point x="623" y="815"/>
    </contour>
  </outline>
</glyph>
<glyph name="guillemotright" format="2">
  <advance width="1253"/>
  <unicode hex="00BB"/>
  <outline>
    <contour>
      <point x="627" y="141" type="line"/>
      <point x="1096" y="559" type="line"/>
      <point x="1096" y="641" type="line"/>
      <point x="627" y="1059" type="line"/>
      <point x="627" y="868" type="line"/>
      <point x="928" y="600" type="line"/>
      <point x="627" y="332" type="line"/>
    </contour>
    <contour>
      <point x="193" y="141" type="line"/>
      <point x="662" y="559" type="line"/>
      <point x="662" y="641" type="line"/>
      <point x="193" y="1059" type="line"/>
      <point x="193" y="868" type="line"/>
      <point x="494" y="600" type="line"/>
      <point x="193" y="332" type="line"/>
    </contour>
  </outline>
</glyph>
<glyph name="questiondown" format="2">
  <advance width="1087"/>
  <unicode hex="00BF"/>
  <outline>
    <contour>
      <point x="500" y="719" type="line"/>
      <point x="690" y="719" type="line"/>
      <point x="690" y="563" type="line" smooth="yes"/>
      <point x="690" y="462"/>
      <point x="635" y="332"/>
      <point x="545" y="245" type="qcurve" smooth="yes"/>
      <point x="455" y="157" type="line"/>
      <point x="397" y="104"/>
      <point x="346" y="10"/>
      <point x="346" y="-39" type="qcurve" smooth="yes"/>
      <point x="346" y="-128"/>
      <point x="477" y="-238"/>
      <point x="586" y="-238" type="qcurve" smooth="yes"/>
      <point x="664" y="-238"/>
      <point x="844" y="-168"/>
      <point x="940" y="-101" type="qcurve"/>
      <point x="940" y="-289" type="line"/>
      <point x="846" y="-346"/>
      <point x="654" y="-402"/>
      <point x="551" y="-402" type="qcurve" smooth="yes"/>
      <point x="367" y="-402"/>
      <point x="143" y="-208"/>
      <point x="143" y="-49" type="qcurve" smooth="yes"/>
      <point x="143" y="27"/>
      <point x="216" y="164"/>
      <point x="305" y="250" type="qcurve" smooth="yes"/>
      <point x="393" y="336" type="line" smooth="yes"/>
      <point x="441" y="383"/>
      <point x="479" y="436"/>
      <point x="487" y="461" type="qcurve" smooth="yes"/>
      <point x="494" y="482"/>
      <point x="500" y="542"/>
      <point x="500" y="596" type="qcurve" smooth="yes"/>
    </contour>
    <contour>
      <point x="696" y="866" type="line"/>
      <point x="494" y="866" type="line"/>
      <point x="494" y="1120" type="line"/>
      <point x="696" y="1120" type="line"/>
    </contour>
  </outline>
</glyph>
<glyph name="Aring" format="2">
  <advance width="1401"/>
  <unicode hex="00C5"/>
  <outline>
    <contour>
      <point x="16" y="0" type="line"/>
      <point x="229" y="0" type="line"/>
      <point x="365" y="383" type="line"/>
      <point x="1038" y="383" type="line"/>
      <point x="1174" y="0" type="line"/>
      <point x="1384" y="0" type="line"/>
      <point x="852" y="1397" type="line"/>
      <point x="932" y="1452"/>
      <point x="975" y="1533"/>
      <point x="975" y="1626" type="curve" smooth="yes"/>
      <point x="975" y="1778"/>
      <point x="852" y="1901"/>
      <point x="700" y="1901" type="curve" smooth="yes"/>
      <point x="547" y="1901"/>
      <point x="426" y="1779"/>
      <point x="426" y="1626" type="curve" smooth="yes"/>
      <point x="426" y="1529"/>
      <point x="468" y="1452"/>
      <point x="549" y="1397" type="curve"/>
    </contour>
    <contour>
      <point x="428" y="551" type="line"/>
      <point x="700" y="1294" type="line"/>
      <point x="973" y="551" type="line"/>
    </contour>
    <contour>
      <point x="700" y="1475" type="curve" smooth="yes"/>
      <point x="616" y="1475"/>
      <point x="549" y="1542"/>
      <point x="549" y="1626" type="curve" smooth="yes"/>
      <point x="549" y="1713"/>
      <point x="615" y="1778"/>
      <point x="700" y="1778" type="curve" smooth="yes"/>
      <point x="784" y="1778"/>
      <point x="852" y="1710"/>
      <point x="852" y="1626" type="curve" smooth="yes"/>
      <point x="852" y="1542"/>
      <point x="784" y="1475"/>
    </contour>
  </outline>
</glyph>
<glyph name="AE" format="2">
  <advance width="1995"/>
  <unicode hex="00C6"/>
  <outline>
    <contour>
      <point x="8" y="0" type="line"/>
      <point x="213" y="0" type="line"/>
      <point x="373" y="383" type="line"/>
      <point x="901" y="383" type="line"/>
      <point x="901" y="0" type="line"/>
      <point x="1864" y="0" type="line"/>
      <point x="1864" y="170" type="line"/>
      <point x="1104" y="170" type="line"/>
      <point x="1104" y="711" type="line"/>
      <point x="1815" y="711" type="line"/>
      <point x="1815" y="881" type="line"/>
      <point x="1104" y="881" type="line"/>
      <point x="1104" y="1323" type="line"/>
      <point x="1845" y="1323" type="line"/>
      <point x="1845" y="1493" type="line"/>
      <point x="633" y="1493" type="line"/>
    </contour>
    <contour>
      <point x="442" y="551" type="line"/>
      <point x="772" y="1335" type="line"/>
      <point x="901" y="1335" type="line"/>
      <point x="901" y="551" type="line"/>
    </contour>
  </outline>
</glyph>
<glyph name="Eth" format="2">
  <advance width="1587"/>
  <unicode hex="00D0"/>
  <outline>
    <contour>
      <point x="211" y="0" type="line"/>
      <point x="627" y="0" type="line" smooth="yes"/>
      <point x="1203" y="0"/>
      <point x="1466" y="233"/>
      <point x="1466" y="748" type="curve" smooth="yes"/>
      <point x="1466" y="1260"/>
      <point x="1204" y="1493"/>
      <point x="627" y="1493" type="curve" smooth="yes"/>
      <point x="211" y="1493" type="line"/>
      <point x="211" y="844" type="line"/>
      <point x="10" y="844" type="line"/>
      <point x="10" y="700" type="line"/>
      <point x="211" y="700" type="line"/>
    </contour>
    <contour>
      <point x="414" y="166" type="line"/>
      <point x="414" y="700" type="line"/>
      <point x="750" y="700" type="line"/>
      <point x="750" y="844" type="line"/>
      <point x="414" y="844" type="line"/>
      <point x="414" y="1327" type="line"/>
      <point x="657" y="1327" type="line" smooth="yes"/>
      <point x="1069" y="1327"/>
      <point x="1253" y="1148"/>
      <point x="1253" y="748" type="curve" smooth="yes"/>
      <point x="1253" y="345"/>
      <point x="1069" y="166"/>
      <point x="657" y="166" type="curve" smooth="yes"/>
    </contour>
  </outline>
</glyph>
<glyph name="multiply" format="2">
  <advance width="1716"/>
  <unicode hex="00D7"/>
  <outline>
    <contour>
      <point x="1436" y="1100" type="line"/>
      <point x="979" y="641" type="line"/>
      <point x="1436" y="184" type="line"/>
      <point x="1317" y="63" type="line"/>
      <point x="858" y="522" type="line"/>
      <point x="399" y="63" type="line"/>
      <point x="281" y="184" type="line"/>
      <point x="737" y="641" type="line"/>
      <point x="281" y="1100" type="line"/>
      <point x="399" y="1221" type="line"/>
      <point x="858" y="762" type="line"/>
      <point x="1317" y="1221" type="line"/>
    </contour>
  </outline>
</glyph>
<glyph name="Oslash" format="2">
  <advance width="1612"/>
  <unicode hex="00D8"/>
  <anchor x="807" y="1520" name="above"/>
  <anchor x="807" y="0" name="below"/>
  <anchor x="807" y="0" name="cedilla"/>
  <anchor x="0" y="1520" name="half"/>
  <anchor x="808" y="0" name="ogonek"/>
  <outline>
    <contour>
      <point x="1206" y="1112" type="qcurve"/>
      <point x="489" y="266" type="line"/>
      <point x="551" y="202"/>
      <point x="712" y="135"/>
      <point x="807" y="135" type="qcurve" smooth="yes"/>
      <point x="1027" y="135"/>
      <point x="1284" y="463"/>
      <point x="1284" y="745" type="qcurve" smooth="yes"/>
      <point x="1284" y="857"/>
      <point x="1245" y="1041"/>
    </contour>
    <contour>
      <point x="1124" y="1225" type="line"/>
      <point x="1063" y="1289"/>
      <point x="902" y="1356"/>
      <point x="807" y="1356" type="qcurve" smooth="yes"/>
      <point x="587" y="1356"/>
      <point x="328" y="1028"/>
      <point x="328" y="745" type="qcurve" smooth="yes"/>
      <point x="328" y="633"/>
      <point x="367" y="445"/>
      <point x="406" y="377" type="qcurve"/>
    </contour>
    <contour>
      <point x="272" y="219" type="line"/>
      <point x="194" y="321"/>
      <point x="115" y="585"/>
      <point x="115" y="745" type="qcurve" smooth="yes"/>
      <point x="115" y="1099"/>
      <point x="492" y="1520"/>
      <point x="807" y="1520" type="qcurve" smooth="yes"/>
      <point x="937" y="1520"/>
      <point x="1158" y="1443"/>
      <point x="1245" y="1368" type="qcurve"/>
      <point x="1407" y="1559" type="line"/>
      <point x="1509" y="1470" type="line"/>
      <point x="1339" y="1272" type="line"/>
      <point x="1417" y="1169"/>
      <point x="1497" y="903"/>
      <point x="1497" y="745" type="qcurve" smooth="yes"/>
      <point x="1497" y="392"/>
      <point x="1121" y="-29"/>
      <point x="807" y="-29" type="qcurve" smooth="yes"/>
      <point x="679" y="-29"/>
      <point x="458" y="46"/>
      <point x="367" y="121" type="qcurve"/>
      <point x="205" y="-70" type="line"/>
      <point x="102" y="18" type="line"/>
    </contour>
  </outline>
</glyph>
<glyph name="germandbls" format="2">
  <advance width="1290"/>
  <unicode hex="00DF"/>
  <outline>
    <contour>
      <point x="186" y="1137" type="line" smooth="yes"/>
      <point x="186" y="1337"/>
      <point x="425" y="1556"/>
      <point x="643" y="1556" type="qcurve" smooth="yes"/>
      <point x="851" y="1556"/>
      <point x="1070" y="1324"/>
      <point x="1073" y="1100" type="qcurve"/>
      <point x="922" y="1092"/>
      <point x="754" y="977"/>
      <point x="754" y="881" type="qcurve" smooth="yes"/>
      <point x="754" y="834"/>
      <point x="812" y="753"/>
      <point x="877" y="711" type="qcurve" smooth="yes"/>
      <point x="934" y="674" type="line" smooth="yes"/>
      <point x="1100" y="568"/>
      <point x="1196" y="426"/>
      <point x="1196" y="326" type="qcurve" smooth="yes"/>
      <point x="1196" y="154"/>
      <point x="971" y="-29"/>
      <point x="760" y="-29" type="qcurve" smooth="yes"/>
      <point x="696" y="-29"/>
      <point x="560" y="-4"/>
      <point x="487" y="20" type="qcurve"/>
      <point x="487" y="184" type="line"/>
      <point x="567" y="154"/>
      <point x="707" y="125"/>
      <point x="772" y="125" type="qcurve" smooth="yes"/>
      <point x="888" y="125"/>
      <point x="1008" y="220"/>
      <point x="1008" y="311" type="qcurve" smooth="yes"/>
      <point x="1008" y="374"/>
      <point x="949" y="458"/>
      <point x="848" y="520" type="qcurve" smooth="yes"/>
      <point x="756" y="575" type="line" smooth="yes"/>
      <point x="660" y="634"/>
      <point x="573" y="769"/>
      <point x="573" y="860" type="qcurve" smooth="yes"/>
      <point x="573" y="987"/>
      <point x="740" y="1159"/>
      <point x="891" y="1188" type="qcurve"/>
      <point x="883" y="1291"/>
      <point x="752" y="1403"/>
      <point x="639" y="1403" type="qcurve" smooth="yes"/>
      <point x="509" y="1403"/>
      <point x="373" y="1264"/>
      <point x="373" y="1133" type="qcurve" smooth="yes"/>
      <point x="373" y="0" type="line"/>
      <point x="186" y="0" type="line"/>
    </contour>
  </outline>
</glyph>
<glyph name="ae" format="2">
  <advance width="2011"/>
  <unicode hex="00E6"/>
  <anchor x="995" y="0" name="below"/>
  <anchor x="995" y="1147" name="above"/>
  <outline>
    <contour>
      <point x="522" y="-29" type="curve" smooth="yes"/>
      <point x="713" y="-29"/>
      <point x="857" y="51"/>
      <point x="954" y="211" type="curve"/>
      <point x="1057" y="52"/>
      <point x="1223" y="-29"/>
      <point x="1446" y="-29" type="curve" smooth="yes"/>
      <point x="1587" y="-29"/>
      <point x="1727" y="1"/>
      <point x="1860" y="57" type="curve"/>
      <point x="1860" y="231" type="line"/>
      <point x="1727" y="160"/>
      <point x="1595" y="125"/>
      <point x="1456" y="125" type="curve" smooth="yes"/>
      <point x="1212" y="125"/>
      <point x="1073" y="261"/>
      <point x="1057" y="516" type="curve"/>
      <point x="1903" y="516" type="line"/>
      <point x="1903" y="606" type="line" smooth="yes"/>
      <point x="1903" y="939"/>
      <point x="1714" y="1147"/>
      <point x="1413" y="1147" type="curve" smooth="yes"/>
      <point x="1237" y="1147"/>
      <point x="1094" y="1083"/>
      <point x="995" y="963" type="curve"/>
      <point x="923" y="1080"/>
      <point x="775" y="1147"/>
      <point x="586" y="1147" type="curve" smooth="yes"/>
      <point x="466" y="1147"/>
      <point x="340" y="1121"/>
      <point x="205" y="1069" type="curve"/>
      <point x="205" y="899" type="line"/>
      <point x="317" y="960"/>
      <point x="439" y="991"/>
      <point x="567" y="991" type="curve" smooth="yes"/>
      <point x="768" y="991"/>
      <point x="885" y="894"/>
      <point x="885" y="725" type="curve" smooth="yes"/>
      <point x="885" y="707" type="line"/>
      <point x="627" y="707" type="line" smooth="yes"/>
      <point x="292" y="707"/>
      <point x="123" y="578"/>
      <point x="123" y="326" type="curve" smooth="yes"/>
      <point x="123" y="102"/>
      <point x="270" y="-29"/>
    </contour>
    <contour>
      <point x="547" y="125" type="curve" smooth="yes"/>
      <point x="399" y="125"/>
      <point x="307" y="207"/>
      <point x="307" y="338" type="curve" smooth="yes"/>
      <point x="307" y="502"/>
      <point x="405" y="563"/>
      <point x="702" y="563" type="curve" smooth="yes"/>
      <point x="885" y="563" type="line"/>
      <point x="885" y="522" type="line" smooth="yes"/>
      <point x="885" y="282"/>
      <point x="751" y="125"/>
    </contour>
    <contour>
      <point x="1063" y="659" type="line"/>
      <point x="1082" y="870"/>
      <point x="1211" y="991"/>
      <point x="1415" y="991" type="curve" smooth="yes"/>
      <point x="1598" y="991"/>
      <point x="1717" y="861"/>
      <point x="1718" y="660" type="curve"/>
    </contour>
  </outline>
</glyph>
<glyph name="eth" format="2">
  <advance width="1253"/>
  <unicode hex="00F0"/>
  <anchor x="637" y="1520" name="above"/>
  <anchor x="637" y="0" name="below"/>
  <outline>
    <contour>
      <point x="838" y="915" type="qcurve"/>
      <point x="788" y="932"/>
      <point x="700" y="948"/>
      <point x="659" y="948" type="qcurve" smooth="yes"/>
      <point x="492" y="948"/>
      <point x="307" y="732"/>
      <point x="307" y="537" type="qcurve" smooth="yes"/>
      <point x="307" y="349"/>
      <point x="481" y="127"/>
      <point x="627" y="127" type="qcurve" smooth="yes"/>
      <point x="772" y="127"/>
      <point x="946" y="349"/>
      <point x="946" y="537" type="qcurve" smooth="yes"/>
      <point x="946" y="659"/>
      <point x="892" y="847"/>
    </contour>
    <contour>
      <point x="901" y="1141" type="line" smooth="yes"/>
      <point x="1027" y="998"/>
      <point x="1141" y="710"/>
      <point x="1141" y="537" type="qcurve" smooth="yes"/>
      <point x="1141" y="282"/>
      <point x="857" y="-29"/>
      <point x="627" y="-29" type="qcurve" smooth="yes"/>
      <point x="396" y="-29"/>
      <point x="113" y="282"/>
      <point x="113" y="537" type="qcurve" smooth="yes"/>
      <point x="113" y="787"/>
      <point x="389" y="1098"/>
      <point x="610" y="1098" type="qcurve" smooth="yes"/>
      <point x="628" y="1098"/>
      <point x="680" y="1093"/>
      <point x="722" y="1088" type="qcurve"/>
      <point x="563" y="1268" type="line"/>
      <point x="244" y="1161" type="line"/>
      <point x="211" y="1260" type="line"/>
      <point x="492" y="1352" type="line"/>
      <point x="311" y="1556" type="line"/>
      <point x="539" y="1556" type="line"/>
      <point x="666" y="1411" type="line"/>
      <point x="999" y="1522" type="line"/>
      <point x="1032" y="1425" type="line"/>
      <point x="737" y="1327" type="line"/>
    </contour>
  </outline>
</glyph>
<glyph name="oslash" format="2">
  <advance width="1253"/>
  <unicode hex="00F8"/>
  <anchor x="627" y="1147" name="above"/>
  <anchor x="627" y="0" name="below"/>
  <anchor x="627" y="0" name="cedilla"/>
  <anchor x="0" y="1520" name="half"/>
  <anchor x="628" y="0" name="ogonek"/>
  <outline>
    <contour>
      <point x="905" y="801" type="qcurve"/>
      <point x="418" y="209" type="line"/>
      <point x="459" y="167"/>
      <point x="562" y="127"/>
      <point x="627" y="127" type="qcurve" smooth="yes"/>
      <point x="774" y="127"/>
      <point x="946" y="359"/>
      <point x="946" y="559" type="qcurve" smooth="yes"/>
      <point x="946" y="638"/>
      <point x="926" y="755"/>
    </contour>
    <contour>
      <point x="834" y="909" type="line"/>
      <point x="792" y="950"/>
      <point x="689" y="991"/>
      <point x="627" y="991" type="qcurve" smooth="yes"/>
      <point x="476" y="991"/>
      <point x="307" y="756"/>
      <point x="307" y="545" type="qcurve" smooth="yes"/>
      <point x="307" y="473"/>
      <point x="326" y="363"/>
      <point x="346" y="317" type="qcurve"/>
    </contour>
    <contour>
      <point x="221" y="166" type="line"/>
      <point x="167" y="243"/>
      <point x="113" y="440"/>
      <point x="113" y="559" type="qcurve" smooth="yes"/>
      <point x="113" y="835"/>
      <point x="386" y="1147"/>
      <point x="627" y="1147" type="qcurve" smooth="yes"/>
      <point x="720" y="1147"/>
      <point x="879" y="1096"/>
      <point x="946" y="1044" type="qcurve"/>
      <point x="1085" y="1212" type="line"/>
      <point x="1180" y="1133" type="line"/>
      <point x="1034" y="954" type="line"/>
      <point x="1087" y="877"/>
      <point x="1141" y="679"/>
      <point x="1141" y="559" type="qcurve" smooth="yes"/>
      <point x="1141" y="284"/>
      <point x="867" y="-29"/>
      <point x="627" y="-29" type="qcurve" smooth="yes"/>
      <point x="531" y="-29"/>
      <point x="370" y="23"/>
      <point x="307" y="74" type="qcurve"/>
      <point x="168" y="-94" type="line"/>
      <point x="72" y="-16" type="line"/>
    </contour>
  </outline>
</glyph>
<glyph name="dcroat" format="2">
  <advance width="1300"/>
  <unicode hex="0111"/>
  <outline>
    <contour>
      <point x="571" y="-29" type="curve" smooth="yes"/>
      <point x="736" y="-29"/>
      <point x="853" y="35"/>
      <point x="930" y="168" type="curve"/>
      <point x="930" y="0" type="line"/>
      <point x="1114" y="0" type="line"/>
      <point x="1114" y="1284" type="line"/>
      <point x="1268" y="1284" type="line"/>
      <point x="1268" y="1409" type="line"/>
      <point x="1114" y="1409" type="line"/>
      <point x="1114" y="1556" type="line"/>
      <point x="930" y="1556" type="line"/>
      <point x="930" y="1409" type="line"/>
      <point x="604" y="1409" type="line"/>
      <point x="604" y="1284" type="line"/>
      <point x="930" y="1284" type="line"/>
      <point x="930" y="950" type="line"/>
      <point x="853" y="1083"/>
      <point x="736" y="1147"/>
      <point x="571" y="1147" type="curve" smooth="yes"/>
      <point x="300" y="1147"/>
      <point x="113" y="911"/>
      <point x="113" y="559" type="curve" smooth="yes"/>
      <point x="113" y="207"/>
      <point x="300" y="-29"/>
    </contour>
    <contour>
      <point x="616" y="125" type="curve" smooth="yes"/>
      <point x="421" y="125"/>
      <point x="303" y="288"/>
      <point x="303" y="559" type="curve" smooth="yes"/>
      <point x="303" y="830"/>
      <point x="421" y="993"/>
      <point x="616" y="993" type="curve" smooth="yes"/>
      <point x="811" y="993"/>
      <point x="930" y="830"/>
      <point x="930" y="559" type="curve" smooth="yes"/>
      <point x="930" y="288"/>
      <point x="811" y="125"/>
    </contour>
  </outline>
</glyph>
<glyph name="Hbar" format="2">
  <advance width="1876"/>
  <unicode hex="0126"/>
  <anchor x="938" y="1520" name="above"/>
  <anchor x="938" y="0" name="below"/>
  <outline>
    <contour>
      <point x="369" y="1493" type="line"/>
      <point x="571" y="1493" type="line"/>
      <point x="571" y="1269" type="line"/>
      <point x="1305" y="1269" type="line"/>
      <point x="1305" y="1493" type="line"/>
      <point x="1507" y="1493" type="line"/>
      <point x="1507" y="1269" type="line"/>
      <point x="1675" y="1269" type="line"/>
      <point x="1675" y="1105" type="line"/>
      <point x="1507" y="1105" type="line"/>
      <point x="1507" y="0" type="line"/>
      <point x="1305" y="0" type="line"/>
      <point x="1305" y="711" type="line"/>
      <point x="571" y="711" type="line"/>
      <point x="571" y="0" type="line"/>
      <point x="369" y="0" type="line"/>
      <point x="369" y="1105" type="line"/>
      <point x="201" y="1105" type="line"/>
      <point x="201" y="1269" type="line"/>
      <point x="369" y="1269" type="line"/>
    </contour>
    <contour>
      <point x="571" y="1105" type="line"/>
      <point x="571" y="881" type="line"/>
      <point x="1305" y="881" type="line"/>
      <point x="1305" y="1105" type="line"/>
    </contour>
  </outline>
</glyph>
<glyph name="hbar" format="2">
  <advance width="1423"/>
  <unicode hex="0127"/>
  <anchor x="720" y="0" name="below"/>
  <anchor x="337" y="1520" name="above"/>
  <outline>
    <contour>
      <point x="1183" y="676" type="qcurve" smooth="yes"/>
      <point x="1183" y="0" type="line"/>
      <point x="999" y="0" type="line"/>
      <point x="999" y="670" type="line" smooth="yes"/>
      <point x="999" y="829"/>
      <point x="875" y="987"/>
      <point x="751" y="987" type="qcurve" smooth="yes"/>
      <point x="602" y="987"/>
      <point x="430" y="797"/>
      <point x="430" y="633" type="qcurve" smooth="yes"/>
      <point x="430" y="0" type="line"/>
      <point x="245" y="0" type="line"/>
      <point x="245" y="1270" type="line"/>
      <point x="120" y="1270" type="line"/>
      <point x="120" y="1434" type="line"/>
      <point x="245" y="1434" type="line"/>
      <point x="245" y="1556" type="line"/>
      <point x="430" y="1556" type="line"/>
      <point x="430" y="1434" type="line"/>
      <point x="782" y="1434" type="line"/>
      <point x="782" y="1270" type="line"/>
      <point x="430" y="1270" type="line"/>
      <point x="430" y="946" type="line"/>
      <point x="496" y="1047"/>
      <point x="675" y="1147"/>
      <point x="792" y="1147" type="qcurve" smooth="yes"/>
      <point x="985" y="1147"/>
      <point x="1183" y="908"/>
    </contour>
  </outline>
</glyph>
<glyph name="dotlessi" format="2">
  <advance width="569"/>
  <unicode hex="0131"/>
  <anchor x="287" y="0" name="below"/>
  <anchor x="287" y="0" name="cedilla"/>
  <anchor x="0" y="1520" name="half"/>
  <anchor x="318" y="0" name="ogonek"/>
  <anchor x="285" y="1147" name="above"/>
  <outline>
    <contour>
      <point x="193" y="0" type="line"/>
      <point x="377" y="0" type="line"/>
      <point x="377" y="1120" type="line"/>
      <point x="193" y="1120" type="line"/>
    </contour>
  </outline>
</glyph>
<glyph name="kgreenlandic" format="2">
  <advance width="1186"/>
  <unicode hex="0138"/>
  <anchor x="678" y="0" name="below"/>
  <anchor x="678" y="1147" name="above"/>
  <outline>
    <contour>
      <point x="186" y="1120" type="line"/>
      <point x="371" y="1120" type="line"/>
      <point x="371" y="635" type="line"/>
      <point x="920" y="1120" type="line"/>
      <point x="1155" y="1120" type="line"/>
      <point x="561" y="594" type="line"/>
      <point x="1180" y="0" type="line"/>
      <point x="940" y="0" type="line"/>
      <point x="371" y="545" type="line"/>
      <point x="371" y="0" type="line"/>
      <point x="186" y="0" type="line"/>
    </contour>
  </outline>
</glyph>
<glyph name="Lslash" format="2">
  <advance width="1151"/>
  <unicode hex="0141"/>
  <outline>
    <contour>
      <point x="211" y="1493" type="line"/>
      <point x="414" y="1493" type="line"/>
      <point x="414" y="877" type="line"/>
      <point x="727" y="1096" type="line"/>
      <point x="807" y="985" type="line"/>
      <point x="414" y="711" type="line"/>
      <point x="414" y="170" type="line"/>
      <point x="1141" y="170" type="line"/>
      <point x="1141" y="0" type="line"/>
      <point x="211" y="0" type="line"/>
      <point x="211" y="571" type="line"/>
      <point x="63" y="465" type="line"/>
      <point x="-14" y="575" type="line"/>
      <point x="211" y="733" type="line"/>
    </contour>
  </outline>
</glyph>
<glyph name="lslash" format="2">
  <advance width="582"/>
  <unicode hex="0142"/>
  <outline>
    <contour>
      <point x="199" y="0" type="line"/>
      <point x="383" y="0" type="line"/>
      <point x="383" y="797" type="line"/>
      <point x="584" y="938" type="line"/>
      <point x="508" y="1044" type="line"/>
      <point x="383" y="954" type="line"/>
      <point x="383" y="1556" type="line"/>
      <point x="199" y="1556" type="line"/>
      <point x="199" y="825" type="line"/>
      <point x="2" y="684" type="line"/>
      <point x="76" y="578" type="line"/>
      <point x="199" y="666" type="line"/>
    </contour>
  </outline>
</glyph>
<glyph name="Eng" format="2">
  <advance width="1532"/>
  <unicode hex="014A"/>
  <outline>
    <contour>
      <point x="874" y="-426" type="line"/>
      <point x="961" y="-426" type="line" smooth="yes"/>
      <point x="1082" y="-426"/>
      <point x="1169" y="-394"/>
      <point x="1224" y="-330" type="curve" smooth="yes"/>
      <point x="1278" y="-265"/>
      <point x="1305" y="-162"/>
      <point x="1305" y="-20" type="curve" smooth="yes"/>
      <point x="1305" y="893" type="line" smooth="yes"/>
      <point x="1305" y="1304"/>
      <point x="1148" y="1520"/>
      <point x="845" y="1520" type="curve" smooth="yes"/>
      <point x="743" y="1520"/>
      <point x="657" y="1498"/>
      <point x="586" y="1453" type="curve" smooth="yes"/>
      <point x="516" y="1408"/>
      <point x="455" y="1341"/>
      <point x="403" y="1252" type="curve"/>
      <point x="403" y="1493" type="line"/>
      <point x="201" y="1493" type="line"/>
      <point x="201" y="0" type="line"/>
      <point x="403" y="0" type="line"/>
      <point x="403" y="846" type="line" smooth="yes"/>
      <point x="403" y="1142"/>
      <point x="558" y="1323"/>
      <point x="797" y="1323" type="curve" smooth="yes"/>
      <point x="1002" y="1323"/>
      <point x="1104" y="1180"/>
      <point x="1104" y="895" type="curve" smooth="yes"/>
      <point x="1104" y="-20" type="line" smooth="yes"/>
      <point x="1104" y="-233"/>
      <point x="1059" y="-270"/>
      <point x="923" y="-270" type="curve" smooth="yes"/>
      <point x="874" y="-270" type="line"/>
    </contour>
  </outline>
</glyph>
<glyph name="eng" format="2">
  <advance width="1298"/>
  <unicode hex="014B"/>
  <anchor x="649" y="-430" name="below"/>
  <anchor x="649" y="1147" name="above"/>
  <outline>
    <contour>
      <point x="526" y="-426" type="line"/>
      <point x="780" y="-426" type="line" smooth="yes"/>
      <point x="901" y="-426"/>
      <point x="988" y="-394"/>
      <point x="1042" y="-330" type="curve" smooth="yes"/>
      <point x="1097" y="-266"/>
      <point x="1124" y="-163"/>
      <point x="1124" y="-20" type="curve" smooth="yes"/>
      <point x="1124" y="676" type="line" smooth="yes"/>
      <point x="1124" y="831"/>
      <point x="1091" y="948"/>
      <point x="1025" y="1028" type="curve" smooth="yes"/>
      <point x="959" y="1107"/>
      <point x="862" y="1147"/>
      <point x="733" y="1147" type="curve" smooth="yes"/>
      <point x="655" y="1147"/>
      <point x="586" y="1130"/>
      <point x="526" y="1097" type="curve" smooth="yes"/>
      <point x="467" y="1064"/>
      <point x="415" y="1013"/>
      <point x="371" y="946" type="curve"/>
      <point x="371" y="1120" type="line"/>
      <point x="186" y="1120" type="line"/>
      <point x="186" y="0" type="line"/>
      <point x="371" y="0" type="line"/>
      <point x="371" y="633" type="line" smooth="yes"/>
      <point x="371" y="852"/>
      <point x="493" y="987"/>
      <point x="692" y="987" type="curve" smooth="yes"/>
      <point x="857" y="987"/>
      <point x="940" y="882"/>
      <point x="940" y="670" type="curve" smooth="yes"/>
      <point x="940" y="-20" type="line" smooth="yes"/>
      <point x="940" y="-122"/>
      <point x="927" y="-189"/>
      <point x="902" y="-222" type="curve" smooth="yes"/>
      <point x="877" y="-254"/>
      <point x="829" y="-270"/>
      <point x="759" y="-270" type="curve" smooth="yes"/>
      <point x="526" y="-270" type="line"/>
    </contour>
  </outline>
</glyph>
<glyph name="OE" format="2">
  <advance width="2191"/>
  <unicode hex="0152"/>
  <outline>
    <contour>
      <point x="995" y="0" type="curve" smooth="yes"/>
      <point x="2060" y="0" type="line"/>
      <point x="2060" y="170" type="line"/>
      <point x="1300" y="170" type="line"/>
      <point x="1300" y="711" type="line"/>
      <point x="2011" y="711" type="line"/>
      <point x="2011" y="881" type="line"/>
      <point x="1300" y="881" type="line"/>
      <point x="1300" y="1323" type="line"/>
      <point x="2042" y="1323" type="line"/>
      <point x="2042" y="1493" type="line"/>
      <point x="995" y="1493" type="line" smooth="yes"/>
      <point x="418" y="1493"/>
      <point x="115" y="1235"/>
      <point x="115" y="748" type="curve" smooth="yes"/>
      <point x="115" y="257"/>
      <point x="418" y="0"/>
    </contour>
    <contour>
      <point x="969" y="170" type="line" smooth="yes"/>
      <point x="541" y="170"/>
      <point x="328" y="363"/>
      <point x="328" y="748" type="curve" smooth="yes"/>
      <point x="328" y="1132"/>
      <point x="541" y="1323"/>
      <point x="969" y="1323" type="curve" smooth="yes"/>
      <point x="1098" y="1323" type="line"/>
      <point x="1098" y="170" type="line"/>
    </contour>
  </outline>
</glyph>
<glyph name="oe" format="2">
  <advance width="2095"/>
  <unicode hex="0153"/>
  <anchor x="1044" y="1147" name="above"/>
  <anchor x="1044" y="0" name="below"/>
  <outline>
    <contour>
      <point x="627" y="-29" type="curve" smooth="yes"/>
      <point x="814" y="-29"/>
      <point x="952" y="43"/>
      <point x="1047" y="190" type="curve"/>
      <point x="1155" y="45"/>
      <point x="1317" y="-29"/>
      <point x="1530" y="-29" type="curve" smooth="yes"/>
      <point x="1671" y="-29"/>
      <point x="1811" y="1"/>
      <point x="1944" y="57" type="curve"/>
      <point x="1944" y="231" type="line"/>
      <point x="1813" y="162"/>
      <point x="1681" y="127"/>
      <point x="1540" y="127" type="curve" smooth="yes"/>
      <point x="1296" y="127"/>
      <point x="1157" y="263"/>
      <point x="1141" y="516" type="curve"/>
      <point x="1987" y="516" type="line"/>
      <point x="1987" y="606" type="line" smooth="yes"/>
      <point x="1987" y="939"/>
      <point x="1798" y="1147"/>
      <point x="1497" y="1147" type="curve" smooth="yes"/>
      <point x="1306" y="1147"/>
      <point x="1148" y="1071"/>
      <point x="1044" y="928" type="curve"/>
      <point x="956" y="1072"/>
      <point x="814" y="1147"/>
      <point x="627" y="1147" type="curve" smooth="yes"/>
      <point x="306" y="1147"/>
      <point x="113" y="927"/>
      <point x="113" y="559" type="curve" smooth="yes"/>
      <point x="113" y="192"/>
      <point x="306" y="-29"/>
    </contour>
    <contour>
      <point x="627" y="127" type="curve" smooth="yes"/>
      <point x="428" y="127"/>
      <point x="307" y="291"/>
      <point x="307" y="559" type="curve" smooth="yes"/>
      <point x="307" y="827"/>
      <point x="430" y="991"/>
      <point x="627" y="991" type="curve" smooth="yes"/>
      <point x="823" y="991"/>
      <point x="946" y="824"/>
      <point x="946" y="559" type="curve" smooth="yes"/>
      <point x="946" y="292"/>
      <point x="823" y="127"/>
    </contour>
    <contour>
      <point x="1147" y="659" type="line"/>
      <point x="1166" y="870"/>
      <point x="1295" y="991"/>
      <point x="1499" y="991" type="curve" smooth="yes"/>
      <point x="1682" y="991"/>
      <point x="1799" y="863"/>
      <point x="1802" y="660" type="curve"/>
    </contour>
  </outline>
</glyph>
<glyph name="Tbar" format="2">
  <advance width="1251"/>
  <unicode hex="0166"/>
  <anchor x="627" y="1520" name="above"/>
  <anchor x="627" y="0" name="below"/>
  <anchor x="0" y="1520" name="half"/>
  <outline>
    <contour>
      <point x="524" y="0" type="line"/>
      <point x="727" y="0" type="line"/>
      <point x="727" y="577" type="line"/>
      <point x="992" y="577" type="line"/>
      <point x="992" y="747" type="line"/>
      <point x="727" y="747" type="line"/>
      <point x="727" y="1323" type="line"/>
      <point x="1257" y="1323" type="line"/>
      <point x="1257" y="1493" type="line"/>
      <point x="-6" y="1493" type="line"/>
      <point x="-6" y="1323" type="line"/>
      <point x="524" y="1323" type="line"/>
      <point x="524" y="747" type="line"/>
      <point x="259" y="747" type="line"/>
      <point x="259" y="577" type="line"/>
      <point x="524" y="577" type="line"/>
    </contour>
  </outline>
</glyph>
<glyph name="tbar" format="2">
  <advance width="803"/>
  <unicode hex="0167"/>
  <anchor x="282" y="1520" name="above"/>
  <anchor x="500" y="0" name="below"/>
  <anchor x="0" y="1520" name="half"/>
  <outline>
    <contour>
      <point x="375" y="1438" type="line"/>
      <point x="375" y="1120" type="line"/>
      <point x="754" y="1120" type="line"/>
      <point x="754" y="977" type="line"/>
      <point x="375" y="977" type="line"/>
      <point x="375" y="744" type="line"/>
      <point x="754" y="744" type="line"/>
      <point x="754" y="602" type="line"/>
      <point x="375" y="602" type="line"/>
      <point x="375" y="369" type="line" smooth="yes"/>
      <point x="375" y="232"/>
      <point x="412" y="193" type="qcurve" smooth="yes"/>
      <point x="450" y="154"/>
      <point x="565" y="154" type="qcurve" smooth="yes"/>
      <point x="754" y="154" type="line"/>
      <point x="754" y="0" type="line"/>
      <point x="565" y="0" type="line" smooth="yes"/>
      <point x="352" y="0"/>
      <point x="271" y="80" type="qcurve" smooth="yes"/>
      <point x="190" y="159"/>
      <point x="190" y="369" type="qcurve" smooth="yes"/>
      <point x="190" y="602" type="line"/>
      <point x="55" y="602" type="line"/>
      <point x="55" y="744" type="line"/>
      <point x="190" y="744" type="line"/>
      <point x="190" y="977" type="line"/>
      <point x="55" y="977" type="line"/>
      <point x="55" y="1120" type="line"/>
      <point x="190" y="1120" type="line"/>
      <point x="190" y="1438" type="line"/>
    </contour>
  </outline>
</glyph>
<glyph name="longs" format="2">
  <advance width="721"/>
  <unicode hex="017F"/>
  <anchor x="480" y="1520" name="above"/>
  <anchor x="315" y="0" name="below"/>
  <anchor x="0" y="1520" name="half"/>
  <outline>
    <contour>
      <point x="408" y="0" type="line"/>
      <point x="223" y="0" type="line"/>
      <point x="223" y="977" type="line"/>
      <point x="47" y="977" type="line"/>
      <point x="47" y="1120" type="line"/>
      <point x="223" y="1120" type="line"/>
      <point x="223" y="1198" type="line" smooth="yes"/>
      <point x="223" y="1385"/>
      <point x="397" y="1556"/>
      <point x="586" y="1556" type="qcurve" smooth="yes"/>
      <point x="760" y="1556" type="line"/>
      <point x="760" y="1403" type="line"/>
      <point x="584" y="1403" type="line" smooth="yes"/>
      <point x="485" y="1403"/>
      <point x="446.5" y="1363" type="qcurve" smooth="yes"/>
      <point x="408" y="1321.93"/>
      <point x="408" y="1219" type="qcurve" smooth="yes"/>
    </contour>
  </outline>
</glyph>
<glyph name="uni0180" format="2">
  <advance width="1300"/>
  <unicode hex="0180"/>
  <anchor x="278" y="1520" name="above"/>
  <outline>
    <contour>
      <point x="729" y="-29" type="curve" smooth="yes"/>
      <point x="865" y="-29"/>
      <point x="976" y="25"/>
      <point x="1061" y="133" type="curve" smooth="yes"/>
      <point x="1146" y="241"/>
      <point x="1188" y="383"/>
      <point x="1188" y="559" type="curve" smooth="yes"/>
      <point x="1188" y="735"/>
      <point x="1146" y="877"/>
      <point x="1061" y="985" type="curve" smooth="yes"/>
      <point x="976" y="1093"/>
      <point x="865" y="1147"/>
      <point x="729" y="1147" type="curve" smooth="yes"/>
      <point x="647.006" y="1147"/>
      <point x="577" y="1131"/>
      <point x="518" y="1099" type="curve" smooth="yes"/>
      <point x="459" y="1066"/>
      <point x="410" y="1017"/>
      <point x="371" y="950" type="curve"/>
      <point x="371" y="1284" type="line"/>
      <point x="696" y="1284" type="line"/>
      <point x="696" y="1409" type="line"/>
      <point x="371" y="1409" type="line"/>
      <point x="371" y="1556" type="line"/>
      <point x="186" y="1556" type="line"/>
      <point x="186" y="1409" type="line"/>
      <point x="32" y="1409" type="line"/>
      <point x="32" y="1284" type="line"/>
      <point x="186" y="1284" type="line"/>
      <point x="186" y="0" type="line"/>
      <point x="371" y="0" type="line"/>
      <point x="371" y="168" type="line"/>
      <point x="410" y="101"/>
      <point x="459" y="52"/>
      <point x="518" y="20" type="curve" smooth="yes"/>
      <point x="577" y="-13"/>
      <point x="647" y="-29"/>
    </contour>
    <contour>
      <point x="684" y="125" type="curve" smooth="yes"/>
      <point x="587" y="125"/>
      <point x="510" y="164"/>
      <point x="455" y="241" type="curve" smooth="yes"/>
      <point x="399" y="318"/>
      <point x="371" y="424"/>
      <point x="371" y="559" type="curve" smooth="yes"/>
      <point x="371" y="694"/>
      <point x="399" y="801"/>
      <point x="455" y="878" type="curve" smooth="yes"/>
      <point x="510" y="955"/>
      <point x="587" y="993"/>
      <point x="684" y="993" type="curve" smooth="yes"/>
      <point x="781" y="993"/>
      <point x="858" y="955"/>
      <point x="914" y="878" type="curve" smooth="yes"/>
      <point x="969" y="801"/>
      <point x="997" y="694"/>
      <point x="997" y="559" type="curve" smooth="yes"/>
      <point x="997" y="424"/>
      <point x="969" y="318"/>
      <point x="914" y="241" type="curve" smooth="yes"/>
      <point x="858" y="164"/>
      <point x="781" y="125"/>
    </contour>
  </outline>
</glyph>
<glyph name="uni0181" format="2">
  <advance width="1505"/>
  <unicode hex="0181"/>
  <outline>
    <contour>
      <point x="301" y="0" type="line"/>
      <point x="837" y="0" type="line" smooth="yes"/>
      <point x="1172" y="0"/>
      <point x="1360" y="151"/>
      <point x="1360" y="418" type="curve" smooth="yes"/>
      <point x="1360" y="621"/>
      <point x="1245" y="762"/>
      <point x="1046" y="805" type="curve"/>
      <point x="1211" y="832"/>
      <point x="1298" y="941"/>
      <point x="1298" y="1124" type="curve" smooth="yes"/>
      <point x="1298" y="1360"/>
      <point x="1125" y="1493"/>
      <point x="817" y="1493" type="curve" smooth="yes"/>
      <point x="301" y="1493" type="line" smooth="yes"/>
      <point x="16" y="1493"/>
      <point x="-105" y="1390"/>
      <point x="-105" y="1149" type="curve" smooth="yes"/>
      <point x="-105" y="1079" type="line"/>
      <point x="51" y="1079" type="line"/>
      <point x="51" y="1128" type="line" smooth="yes"/>
      <point x="51" y="1268"/>
      <point x="125" y="1328"/>
      <point x="301" y="1328" type="curve"/>
    </contour>
    <contour>
      <point x="503" y="166" type="line"/>
      <point x="503" y="713" type="line"/>
      <point x="827" y="713" type="line" smooth="yes"/>
      <point x="1044" y="713"/>
      <point x="1147" y="627"/>
      <point x="1147" y="440" type="curve" smooth="yes"/>
      <point x="1147" y="255"/>
      <point x="1044" y="166"/>
      <point x="827" y="166" type="curve" smooth="yes"/>
    </contour>
    <contour>
      <point x="503" y="877" type="line"/>
      <point x="503" y="1327" type="line"/>
      <point x="802" y="1327" type="line" smooth="yes"/>
      <point x="999" y="1327"/>
      <point x="1095" y="1253"/>
      <point x="1095" y="1102" type="curve" smooth="yes"/>
      <point x="1095" y="950.00533"/>
      <point x="999" y="877"/>
      <point x="802" y="877" type="curve" smooth="yes"/>
    </contour>
  </outline>
</glyph>
<glyph name="uni0184" format="2">
  <advance width="1405"/>
  <unicode hex="0184"/>
  <outline>
    <contour>
      <point x="1047" y="439" type="qcurve" smooth="yes"/>
      <point x="1047" y="578"/>
      <point x="968" y="646" type="qcurve" smooth="yes"/>
      <point x="890" y="713"/>
      <point x="727" y="713" type="qcurve" smooth="yes"/>
      <point x="403" y="713" type="line"/>
      <point x="403" y="166" type="line"/>
      <point x="727" y="166" type="line" smooth="yes"/>
      <point x="890" y="166"/>
      <point x="968" y="234" type="qcurve" smooth="yes"/>
      <point x="1047" y="301"/>
    </contour>
    <contour>
      <point x="403" y="1493" type="line"/>
      <point x="403" y="879" type="line"/>
      <point x="737" y="879" type="line" smooth="yes"/>
      <point x="988" y="879"/>
      <point x="1260" y="661"/>
      <point x="1260" y="439" type="qcurve" smooth="yes"/>
      <point x="1260" y="218"/>
      <point x="988" y="0"/>
      <point x="737" y="0" type="qcurve" smooth="yes"/>
      <point x="201" y="0" type="line"/>
      <point x="201" y="1092" type="line"/>
      <point x="0" y="1092" type="line"/>
      <point x="312" y="1493" type="line"/>
    </contour>
  </outline>
</glyph>
<glyph name="uni0185" format="2">
  <advance width="1300"/>
  <unicode hex="0185"/>
  <outline>
    <contour>
      <point x="371" y="950" type="line"/>
      <point x="429" y="1050.01"/>
      <point x="606.009" y="1147"/>
      <point x="729" y="1147" type="qcurve" smooth="yes"/>
      <point x="933" y="1147"/>
      <point x="1188" y="823"/>
      <point x="1188" y="559" type="qcurve" smooth="yes"/>
      <point x="1188" y="295"/>
      <point x="933" y="-29"/>
      <point x="729" y="-29" type="qcurve" smooth="yes"/>
      <point x="606" y="-29"/>
      <point x="429" y="68"/>
      <point x="371" y="168" type="qcurve"/>
      <point x="371" y="0" type="line"/>
      <point x="186" y="0" type="line"/>
      <point x="186" y="1092" type="line"/>
      <point x="0" y="1092" type="line"/>
      <point x="290" y="1556.55" type="line"/>
      <point x="371" y="1556.55" type="line"/>
    </contour>
    <contour>
      <point x="997" y="559" type="qcurve" smooth="yes"/>
      <point x="997" y="762"/>
      <point x="830" y="993"/>
      <point x="684" y="993" type="qcurve" smooth="yes"/>
      <point x="538" y="993"/>
      <point x="371" y="762"/>
      <point x="371" y="559" type="qcurve" smooth="yes"/>
      <point x="371" y="356"/>
      <point x="538" y="125"/>
      <point x="684" y="125" type="qcurve" smooth="yes"/>
      <point x="830" y="125"/>
      <point x="997" y="356"/>
    </contour>
  </outline>
</glyph>
<glyph name="uni0186" format="2">
  <advance width="1440"/>
  <unicode hex="0186"/>
  <anchor x="0" y="1520" name="half"/>
  <anchor x="604" y="0" name="below"/>
  <anchor x="604" y="0" name="cedilla"/>
  <anchor x="604" y="0" name="ogonek"/>
  <anchor x="604" y="1520" name="above"/>
  <outline>
    <contour>
      <point x="115" y="1378" type="line"/>
      <point x="219" y="1449"/>
      <point x="456" y="1520"/>
      <point x="590" y="1520" type="qcurve" smooth="yes"/>
      <point x="929" y="1520"/>
      <point x="1319" y="1105"/>
      <point x="1319" y="745" type="qcurve" smooth="yes"/>
      <point x="1319" y="386"/>
      <point x="929" y="-29"/>
      <point x="590" y="-29" type="qcurve" smooth="yes"/>
      <point x="458" y="-29"/>
      <point x="221" y="43"/>
      <point x="115" y="115" type="qcurve"/>
      <point x="115" y="326" type="line"/>
      <point x="217" y="231"/>
      <point x="448" y="137"/>
      <point x="578" y="137" type="qcurve" smooth="yes"/>
      <point x="834" y="137"/>
      <point x="1106" y="450"/>
      <point x="1106" y="745" type="qcurve" smooth="yes"/>
      <point x="1106" y="1041"/>
      <point x="834" y="1354"/>
      <point x="578" y="1354" type="qcurve" smooth="yes"/>
      <point x="448" y="1354"/>
      <point x="217" y="1260"/>
      <point x="115" y="1165" type="qcurve"/>
    </contour>
  </outline>
</glyph>
<glyph name="uni0187" format="2">
  <advance width="1430"/>
  <unicode hex="0187"/>
  <anchor x="844" y="1520" name="above"/>
  <outline>
    <contour>
      <point x="1319" y="1378" type="qcurve" smooth="yes"/>
      <point x="1319" y="1165" type="line"/>
      <point x="1217" y="1260"/>
      <point x="986" y="1354"/>
      <point x="856" y="1354" type="qcurve" smooth="yes"/>
      <point x="600" y="1354"/>
      <point x="328" y="1041"/>
      <point x="328" y="745" type="qcurve" smooth="yes"/>
      <point x="328" y="450"/>
      <point x="600" y="137"/>
      <point x="856" y="137" type="qcurve" smooth="yes"/>
      <point x="986" y="137"/>
      <point x="1217" y="231"/>
      <point x="1319" y="326" type="qcurve"/>
      <point x="1319" y="115" type="line"/>
      <point x="1213" y="43"/>
      <point x="976" y="-29"/>
      <point x="844" y="-29" type="qcurve" smooth="yes"/>
      <point x="505" y="-29"/>
      <point x="115" y="386"/>
      <point x="115" y="745" type="qcurve" smooth="yes"/>
      <point x="115" y="1105"/>
      <point x="505" y="1520"/>
      <point x="844" y="1520" type="qcurve" smooth="yes"/>
      <point x="940" y="1520"/>
      <point x="1096" y="1484" type="qcurve" smooth="yes"/>
      <point x="1109" y="1481"/>
      <point x="1121" y="1477" type="qcurve"/>
      <point x="1137" y="1672"/>
      <point x="1220" y="1770" type="qcurve" smooth="yes"/>
      <point x="1322" y="1892"/>
      <point x="1549" y="1892" type="qcurve" smooth="yes"/>
      <point x="1626" y="1892" type="line"/>
      <point x="1626" y="1722" type="line"/>
      <point x="1563" y="1722" type="line" smooth="yes"/>
      <point x="1429" y="1722"/>
      <point x="1319" y="1572"/>
    </contour>
  </outline>
</glyph>
<glyph name="uni0188" format="2">
  <advance width="1126"/>
  <unicode hex="0188"/>
  <outline>
    <contour>
      <point x="999" y="1150" type="qcurve" smooth="yes"/>
      <point x="999" y="905" type="line"/>
      <point x="921" y="948"/>
      <point x="764" y="991"/>
      <point x="684" y="991" type="qcurve" smooth="yes"/>
      <point x="505" y="991"/>
      <point x="307" y="764"/>
      <point x="307" y="559" type="qcurve" smooth="yes"/>
      <point x="307" y="354"/>
      <point x="505" y="127"/>
      <point x="684" y="127" type="qcurve" smooth="yes"/>
      <point x="764" y="127"/>
      <point x="921" y="170"/>
      <point x="999" y="213" type="qcurve"/>
      <point x="999" y="43" type="line"/>
      <point x="922" y="7"/>
      <point x="757" y="-29"/>
      <point x="664" y="-29" type="qcurve" smooth="yes"/>
      <point x="411" y="-29"/>
      <point x="113" y="289"/>
      <point x="113" y="559" type="qcurve" smooth="yes"/>
      <point x="113" y="833"/>
      <point x="414" y="1147"/>
      <point x="676" y="1147" type="qcurve" smooth="yes"/>
      <point x="746.755" y="1147"/>
      <point x="817" y="1135" type="qcurve"/>
      <point x="817" y="1150" type="line" smooth="yes"/>
      <point x="817" y="1364"/>
      <point x="978" y="1556"/>
      <point x="1159" y="1556" type="qcurve" smooth="yes"/>
      <point x="1228" y="1556" type="line"/>
      <point x="1228" y="1400" type="line"/>
      <point x="1180" y="1400" type="line" smooth="yes"/>
      <point x="1075" y="1400"/>
      <point x="999" y="1303"/>
    </contour>
  </outline>
</glyph>
<glyph name="uni018A" format="2">
  <advance width="1677"/>
  <unicode hex="018A"/>
  <outline>
    <contour>
      <point x="503" y="1327" type="line"/>
      <point x="503" y="166" type="line"/>
      <point x="747" y="166" type="line" smooth="yes"/>
      <point x="1055.99" y="166"/>
      <point x="1343" y="445.992"/>
      <point x="1343" y="748" type="qcurve" smooth="yes"/>
      <point x="1343" y="1048"/>
      <point x="1055.99" y="1327"/>
      <point x="747" y="1327" type="qcurve" smooth="yes"/>
    </contour>
    <contour>
      <point x="301" y="1493" type="qcurve" smooth="yes"/>
      <point x="716" y="1493" type="line" smooth="yes"/>
      <point x="1150" y="1493"/>
      <point x="1556" y="1132"/>
      <point x="1556" y="748" type="qcurve" smooth="yes"/>
      <point x="1556" y="362"/>
      <point x="1148" y="0"/>
      <point x="716" y="0" type="qcurve" smooth="yes"/>
      <point x="301" y="0" type="line"/>
      <point x="301.358" y="1327.52" type="line"/>
      <point x="169.399" y="1327.52"/>
      <point x="51" y="1232.99"/>
      <point x="51" y="1128" type="qcurve" smooth="yes"/>
      <point x="51" y="1079" type="line"/>
      <point x="-105" y="1079" type="line"/>
      <point x="-105" y="1149" type="line" smooth="yes"/>
      <point x="-105" y="1330.01"/>
      <point x="87.0078" y="1493"/>
    </contour>
  </outline>
</glyph>
<glyph name="uni018B" format="2">
  <advance width="1405"/>
  <unicode hex="018B"/>
  <outline>
    <contour>
      <point x="724" y="0" type="curve" smooth="yes"/>
      <point x="1260" y="0" type="line"/>
      <point x="1260" y="1493" type="line"/>
      <point x="414" y="1493" type="line"/>
      <point x="414" y="1327" type="line"/>
      <point x="1058" y="1327" type="line"/>
      <point x="1058" y="879" type="line"/>
      <point x="724" y="879" type="line" smooth="yes"/>
      <point x="389" y="879"/>
      <point x="201" y="735"/>
      <point x="201" y="440" type="curve" smooth="yes"/>
      <point x="201" y="144"/>
      <point x="389" y="0"/>
    </contour>
    <contour>
      <point x="734" y="166" type="line" smooth="yes"/>
      <point x="521" y="166"/>
      <point x="414" y="257"/>
      <point x="414" y="439" type="curve" smooth="yes"/>
      <point x="414" y="624"/>
      <point x="517" y="713"/>
      <point x="734" y="713" type="curve" smooth="yes"/>
      <point x="1058" y="713" type="line"/>
      <point x="1058" y="166" type="line"/>
    </contour>
  </outline>
</glyph>
<glyph name="uni018D" format="2">
  <advance width="1253"/>
  <unicode hex="018D"/>
  <outline>
    <contour>
      <point x="875" y="66" type="qcurve"/>
      <point x="1032" y="-13"/>
      <point x="1032" y="-154" type="qcurve" smooth="yes"/>
      <point x="1032" y="-426"/>
      <point x="591" y="-426" type="qcurve" smooth="yes"/>
      <point x="370" y="-426"/>
      <point x="250" y="-356" type="qcurve"/>
      <point x="250" y="-203" type="line"/>
      <point x="352" y="-273"/>
      <point x="598" y="-273" type="qcurve" smooth="yes"/>
      <point x="844" y="-273"/>
      <point x="844" y="-156" type="qcurve" smooth="yes"/>
      <point x="844" y="-64"/>
      <point x="580" y="-16" type="qcurve" smooth="yes"/>
      <point x="372" y="21"/>
      <point x="255" y="133" type="qcurve" smooth="yes"/>
      <point x="113" y="268"/>
      <point x="113" y="539" type="qcurve" smooth="yes"/>
      <point x="113" y="810"/>
      <point x="387" y="1123"/>
      <point x="626.5" y="1123" type="qcurve" smooth="yes"/>
      <point x="866" y="1123"/>
      <point x="1141" y="810"/>
      <point x="1140" y="535" type="qcurve" smooth="yes"/>
      <point x="1140" y="379"/>
      <point x="985" y="119"/>
    </contour>
    <contour>
      <point x="946" y="535" type="qcurve" smooth="yes"/>
      <point x="947" y="738"/>
      <point x="776" y="967"/>
      <point x="628" y="967" type="qcurve" smooth="yes"/>
      <point x="480" y="967"/>
      <point x="308" y="735"/>
      <point x="308" y="540.5" type="qcurve" smooth="yes"/>
      <point x="308" y="346"/>
      <point x="496" y="147"/>
      <point x="622" y="136" type="qcurve" smooth="yes"/>
      <point x="686" y="130"/>
      <point x="737" y="116" type="qcurve"/>
      <point x="836" y="158"/>
      <point x="946" y="378"/>
    </contour>
  </outline>
</glyph>
<glyph name="uni018E" format="2">
  <advance width="1294"/>
  <unicode hex="018E"/>
  <anchor x="600" y="1520" name="above"/>
  <outline>
    <contour>
      <point x="131" y="0" type="line"/>
      <point x="1093" y="0" type="line"/>
      <point x="1093" y="1493" type="line"/>
      <point x="149" y="1493" type="line"/>
      <point x="149" y="1323" type="line"/>
      <point x="891" y="1323" type="line"/>
      <point x="891" y="881" type="line"/>
      <point x="180" y="881" type="line"/>
      <point x="180" y="711" type="line"/>
      <point x="891" y="711" type="line"/>
      <point x="891" y="170" type="line"/>
      <point x="131" y="170" type="line"/>
    </contour>
  </outline>
</glyph>
<glyph name="uni018F" format="2">
  <advance width="1612"/>
  <unicode hex="018F"/>
  <anchor x="807" y="0" name="cedilla"/>
  <anchor x="807" y="0" name="below"/>
  <anchor x="0" y="1520" name="half"/>
  <anchor x="807" y="1520" name="above"/>
  <outline>
    <contour>
      <point x="807" y="-29" type="curve" smooth="yes"/>
      <point x="1226" y="-29"/>
      <point x="1497" y="274"/>
      <point x="1497" y="745" type="curve" smooth="yes"/>
      <point x="1497" y="1233"/>
      <point x="1219" y="1520"/>
      <point x="752" y="1520" type="curve" smooth="yes"/>
      <point x="557" y="1520"/>
      <point x="380" y="1471"/>
      <point x="232" y="1378" type="curve"/>
      <point x="232" y="1163" type="line"/>
      <point x="381" y="1290"/>
      <point x="550" y="1354"/>
      <point x="735" y="1354" type="curve" smooth="yes"/>
      <point x="1100" y="1354"/>
      <point x="1284" y="1137"/>
      <point x="1284" y="780" type="curve"/>
      <point x="117" y="780" type="line"/>
      <point x="117" y="287"/>
      <point x="368" y="-29"/>
    </contour>
    <contour>
      <point x="807" y="135" type="curve" smooth="yes"/>
      <point x="538" y="135"/>
      <point x="354" y="354"/>
      <point x="337" y="614" type="curve"/>
      <point x="1277" y="614" type="line"/>
      <point x="1260" y="354"/>
      <point x="1076" y="135"/>
    </contour>
  </outline>
</glyph>
<glyph name="uni0190" format="2">
  <advance width="1258"/>
  <unicode hex="0190"/>
  <anchor x="708" y="0" name="cedilla"/>
  <anchor x="708" y="0" name="below"/>
  <anchor x="0" y="1520" name="half"/>
  <anchor x="708" y="1520" name="above"/>
  <outline>
    <contour>
      <point x="472" y="805" type="qcurve"/>
      <point x="341" y="838"/>
      <point x="199" y="1009"/>
      <point x="199" y="1133" type="qcurve" smooth="yes"/>
      <point x="199" y="1311"/>
      <point x="467" y="1520"/>
      <point x="697" y="1520" type="qcurve" smooth="yes"/>
      <point x="786" y="1520"/>
      <point x="987" y="1488"/>
      <point x="1102" y="1456" type="qcurve"/>
      <point x="1102" y="1276" type="line"/>
      <point x="988" y="1314"/>
      <point x="798" y="1350"/>
      <point x="715" y="1350" type="qcurve" smooth="yes"/>
      <point x="563" y="1350"/>
      <point x="400" y="1227"/>
      <point x="400" y="1112" type="qcurve" smooth="yes"/>
      <point x="400" y="1000"/>
      <point x="558" y="881"/>
      <point x="707" y="881" type="qcurve" smooth="yes"/>
      <point x="889" y="881" type="line"/>
      <point x="889" y="715" type="line"/>
      <point x="715" y="715" type="line" smooth="yes"/>
      <point x="550" y="715"/>
      <point x="365" y="566"/>
      <point x="365" y="434" type="qcurve" smooth="yes"/>
      <point x="365" y="291"/>
      <point x="564" y="141"/>
      <point x="754" y="141" type="qcurve" smooth="yes"/>
      <point x="863" y="141"/>
      <point x="1063" y="191"/>
      <point x="1147" y="240" type="qcurve"/>
      <point x="1147" y="45" type="line"/>
      <point x="1041" y="8"/>
      <point x="842" y="-29"/>
      <point x="748" y="-29" type="qcurve" smooth="yes"/>
      <point x="468" y="-29"/>
      <point x="164" y="213"/>
      <point x="164" y="434" type="qcurve" smooth="yes"/>
      <point x="164" y="578"/>
      <point x="327" y="774"/>
    </contour>
  </outline>
</glyph>
<glyph name="uni0191" format="2">
  <advance width="1178"/>
  <unicode hex="0191"/>
  <anchor x="670" y="1520" name="above"/>
  <outline>
    <contour>
      <point x="201" y="1493" type="line"/>
      <point x="1059" y="1493" type="line"/>
      <point x="1059" y="1323" type="line"/>
      <point x="403" y="1323" type="line"/>
      <point x="403" y="883" type="line"/>
      <point x="995" y="883" type="line"/>
      <point x="995" y="713" type="line"/>
      <point x="403" y="713" type="line"/>
      <point x="403" y="104" type="line" smooth="yes"/>
      <point x="403" y="-166.005"/>
      <point x="197.996" y="-410"/>
      <point x="-29" y="-410" type="qcurve" smooth="yes"/>
      <point x="-106" y="-410" type="line"/>
      <point x="-106" y="-240" type="line"/>
      <point x="-43" y="-240" type="line" smooth="yes"/>
      <point x="91" y="-240"/>
      <point x="201" y="-90.0007"/>
      <point x="201" y="104" type="qcurve" smooth="yes"/>
    </contour>
  </outline>
</glyph>
<glyph name="florin" format="2">
  <advance width="721"/>
  <unicode hex="0192"/>
  <anchor x="311" y="-430" name="below"/>
  <anchor x="315" y="1520" name="above"/>
  <outline>
    <contour>
      <point x="760" y="1556" type="line"/>
      <point x="760" y="1403" type="line"/>
      <point x="584" y="1403" type="line" smooth="yes"/>
      <point x="484.996" y="1403"/>
      <point x="408" y="1322.99"/>
      <point x="408" y="1219" type="qcurve" smooth="yes"/>
      <point x="408" y="1120" type="line"/>
      <point x="711" y="1120" type="line"/>
      <point x="711" y="977" type="line"/>
      <point x="408" y="977" type="line"/>
      <point x="408" y="-68" type="line" smooth="yes"/>
      <point x="408" y="-255"/>
      <point x="234" y="-426"/>
      <point x="45" y="-426" type="qcurve" smooth="yes"/>
      <point x="-129" y="-426" type="line"/>
      <point x="-129" y="-273" type="line"/>
      <point x="47" y="-273" type="line" smooth="yes"/>
      <point x="146.004" y="-273"/>
      <point x="223" y="-192.996"/>
      <point x="223" y="-89" type="qcurve" smooth="yes"/>
      <point x="223" y="977" type="line"/>
      <point x="47" y="977" type="line"/>
      <point x="47" y="1120" type="line"/>
      <point x="223" y="1120" type="line"/>
      <point x="223" y="1198" type="line" smooth="yes"/>
      <point x="223" y="1385"/>
      <point x="397" y="1556"/>
      <point x="586" y="1556" type="qcurve" smooth="yes"/>
    </contour>
  </outline>
</glyph>
<glyph name="uni0193" format="2">
  <advance width="1587"/>
  <unicode hex="0193"/>
  <anchor x="860" y="1520" name="above"/>
  <outline>
    <contour>
      <point x="1219" y="213" type="qcurve"/>
      <point x="1219" y="614" type="line"/>
      <point x="889" y="614" type="line"/>
      <point x="889" y="780" type="line"/>
      <point x="1419" y="780" type="line"/>
      <point x="1419" y="139" type="line"/>
      <point x="1302" y="56.0001"/>
      <point x="1020" y="-29"/>
      <point x="860" y="-29" type="qcurve" smooth="yes"/>
      <point x="510" y="-29"/>
      <point x="115" y="379.999"/>
      <point x="115" y="745" type="qcurve" smooth="yes"/>
      <point x="115" y="1111.01"/>
      <point x="510.014" y="1520"/>
      <point x="860" y="1520" type="qcurve" smooth="yes"/>
      <point x="950.52" y="1520"/>
      <point x="1113.58" y="1494.8"/>
      <point x="1182" y="1470" type="qcurve"/>
      <point x="1182" y="1658"/>
      <point x="1383" y="1892"/>
      <point x="1610" y="1892" type="qcurve" smooth="yes"/>
      <point x="1687" y="1892" type="line"/>
      <point x="1687" y="1722" type="line"/>
      <point x="1624" y="1722" type="line" smooth="yes"/>
      <point x="1490.01" y="1722"/>
      <point x="1380" y="1572.01"/>
      <point x="1380" y="1378" type="qcurve" smooth="yes"/>
      <point x="1380" y="1163" type="line"/>
      <point x="1267.95" y="1258.02"/>
      <point x="1015.98" y="1354"/>
      <point x="877" y="1354" type="qcurve" smooth="yes"/>
      <point x="603" y="1354"/>
      <point x="328" y="1048"/>
      <point x="328" y="745" type="qcurve" smooth="yes"/>
      <point x="328" y="443"/>
      <point x="603" y="137"/>
      <point x="877" y="137" type="qcurve" smooth="yes"/>
      <point x="983.998" y="137"/>
      <point x="1151.99" y="173.997"/>
    </contour>
  </outline>
</glyph>
<glyph name="uni0194" format="2">
  <advance width="1406"/>
  <unicode hex="0194"/>
  <anchor x="703" y="1520" name="above"/>
  <outline>
    <contour>
      <point x="703" y="-430" type="curve" smooth="yes"/>
      <point x="806" y="-430"/>
      <point x="891" y="-401"/>
      <point x="958" y="-343" type="curve" smooth="yes"/>
      <point x="1008" y="-300"/>
      <point x="1033" y="-231.99933"/>
      <point x="1033" y="-139" type="curve" smooth="yes"/>
      <point x="1033" y="-95.00007"/>
      <point x="1018" y="-33"/>
      <point x="987" y="46" type="curve" smooth="yes"/>
      <point x="942" y="162"/>
      <point x="885" y="287"/>
      <point x="816" y="420" type="curve"/>
      <point x="1398" y="1493" type="line"/>
      <point x="1176" y="1493" type="line"/>
      <point x="703" y="631" type="line"/>
      <point x="230" y="1493" type="line"/>
      <point x="8" y="1493" type="line"/>
      <point x="590" y="420" type="line"/>
      <point x="521" y="287"/>
      <point x="464" y="162"/>
      <point x="419" y="46" type="curve" smooth="yes"/>
      <point x="388" y="-33"/>
      <point x="373" y="-95"/>
      <point x="373" y="-139" type="curve" smooth="yes"/>
      <point x="373" y="-231.99867"/>
      <point x="398" y="-300"/>
      <point x="448" y="-343" type="curve" smooth="yes"/>
      <point x="515" y="-401"/>
      <point x="600" y="-430"/>
    </contour>
    <contour>
      <point x="703" y="-259" type="curve" smooth="yes"/>
      <point x="667" y="-259"/>
      <point x="634" y="-248"/>
      <point x="605" y="-227" type="curve" smooth="yes"/>
      <point x="586" y="-214"/>
      <point x="577" y="-185"/>
      <point x="577" y="-141" type="curve" smooth="yes"/>
      <point x="577" y="-103"/>
      <point x="587" y="-60"/>
      <point x="608" y="-11" type="curve" smooth="yes"/>
      <point x="642" y="70"/>
      <point x="674" y="141"/>
      <point x="703" y="202" type="curve"/>
      <point x="732" y="141"/>
      <point x="764" y="70"/>
      <point x="798" y="-11" type="curve" smooth="yes"/>
      <point x="819" y="-60"/>
      <point x="829" y="-103"/>
      <point x="829" y="-141" type="curve" smooth="yes"/>
      <point x="829" y="-185"/>
      <point x="820" y="-214"/>
      <point x="801" y="-227" type="curve" smooth="yes"/>
      <point x="772" y="-248"/>
      <point x="739" y="-259"/>
    </contour>
  </outline>
</glyph>
<glyph name="uni0195" format="2">
  <advance width="2015"/>
  <unicode hex="0195"/>
  <outline>
    <contour>
      <point x="186" y="0" type="line"/>
      <point x="371" y="0" type="line"/>
      <point x="371" y="633" type="line" smooth="yes"/>
      <point x="371" y="852"/>
      <point x="493" y="987"/>
      <point x="692" y="987" type="curve" smooth="yes"/>
      <point x="857" y="987"/>
      <point x="940" y="882"/>
      <point x="940" y="670" type="curve" smooth="yes"/>
      <point x="940" y="406" type="line" smooth="yes"/>
      <point x="940" y="131"/>
      <point x="1035" y="0"/>
      <point x="1284" y="0" type="curve" smooth="yes"/>
      <point x="1354" y="0" type="line" smooth="yes"/>
      <point x="1649" y="0"/>
      <point x="1863" y="200"/>
      <point x="1863" y="527" type="curve" smooth="yes"/>
      <point x="1863" y="711"/>
      <point x="1826" y="851"/>
      <point x="1752" y="948" type="curve" smooth="yes"/>
      <point x="1679" y="1043"/>
      <point x="1568" y="1101"/>
      <point x="1419" y="1120" type="curve"/>
      <point x="1419" y="972" type="line"/>
      <point x="1500" y="950"/>
      <point x="1561" y="907"/>
      <point x="1602" y="844" type="curve" smooth="yes"/>
      <point x="1651" y="769"/>
      <point x="1676" y="658"/>
      <point x="1676" y="510" type="curve" smooth="yes"/>
      <point x="1676" y="407"/>
      <point x="1647" y="321"/>
      <point x="1589" y="254" type="curve" smooth="yes"/>
      <point x="1533" y="189"/>
      <point x="1455" y="156"/>
      <point x="1356" y="156" type="curve" smooth="yes"/>
      <point x="1305" y="156" type="line" smooth="yes"/>
      <point x="1165" y="156"/>
      <point x="1124" y="210"/>
      <point x="1124" y="406" type="curve" smooth="yes"/>
      <point x="1124" y="676" type="line" smooth="yes"/>
      <point x="1124" y="985"/>
      <point x="990" y="1147"/>
      <point x="733" y="1147" type="curve" smooth="yes"/>
      <point x="577" y="1147"/>
      <point x="459" y="1081"/>
      <point x="371" y="946" type="curve"/>
      <point x="371" y="1556" type="line"/>
      <point x="186" y="1556" type="line"/>
    </contour>
  </outline>
</glyph>
<glyph name="uni0196" format="2">
  <advance width="724"/>
  <unicode hex="0196"/>
  <anchor x="303" y="1520" name="above"/>
  <outline>
    <contour>
      <point x="633" y="0" type="curve" smooth="yes"/>
      <point x="710" y="0" type="line"/>
      <point x="710" y="170" type="line"/>
      <point x="647" y="170" type="line" smooth="yes"/>
      <point x="468" y="170"/>
      <point x="403" y="255"/>
      <point x="403" y="514" type="curve" smooth="yes"/>
      <point x="403" y="1493" type="line"/>
      <point x="201" y="1493" type="line"/>
      <point x="201" y="514" type="line" smooth="yes"/>
      <point x="201" y="154"/>
      <point x="330" y="0"/>
    </contour>
  </outline>
</glyph>
<glyph name="uni0197" format="2">
  <advance width="604"/>
  <unicode hex="0197"/>
  <anchor x="303" y="0" name="cedilla"/>
  <anchor x="344" y="0" name="ogonek"/>
  <anchor x="0" y="1520" name="half"/>
  <anchor x="303" y="0" name="below"/>
  <anchor x="303" y="1520" name="above"/>
  <outline>
    <contour>
      <point x="201" y="0" type="line"/>
      <point x="403" y="0" type="line"/>
      <point x="403" y="577" type="line"/>
      <point x="594" y="577" type="line"/>
      <point x="594" y="747" type="line"/>
      <point x="403" y="747" type="line"/>
      <point x="403" y="1493" type="line"/>
      <point x="201" y="1493" type="line"/>
      <point x="201" y="747" type="line"/>
      <point x="10" y="747" type="line"/>
      <point x="10" y="577" type="line"/>
      <point x="201" y="577" type="line"/>
    </contour>
  </outline>
</glyph>
<glyph name="uni0198" format="2">
  <advance width="1527"/>
  <unicode hex="0198"/>
  <outline>
    <contour>
      <point x="1527" y="1096" type="line"/>
      <point x="1357" y="1096" type="line"/>
      <point x="1357" y="1217" type="line" smooth="yes"/>
      <point x="1357" y="1271"/>
      <point x="1284" y="1351"/>
      <point x="1246" y="1351" type="qcurve" smooth="yes"/>
      <point x="1175.89" y="1351"/>
      <point x="1139" y="1316" type="qcurve" smooth="yes"/>
      <point x="592" y="797" type="line"/>
      <point x="1386" y="0" type="line"/>
      <point x="1120" y="0" type="line"/>
      <point x="403" y="719" type="line"/>
      <point x="403" y="0" type="line"/>
      <point x="201" y="0" type="line"/>
      <point x="201" y="1493" type="line"/>
      <point x="403" y="1493" type="line"/>
      <point x="403" y="862" type="line"/>
      <point x="1023" y="1441" type="line" smooth="yes"/>
      <point x="1107.59" y="1520"/>
      <point x="1221" y="1520" type="qcurve" smooth="yes"/>
      <point x="1357" y="1520"/>
      <point x="1442" y="1428" type="qcurve" smooth="yes"/>
      <point x="1527" y="1337"/>
      <point x="1527" y="1227" type="qcurve" smooth="yes"/>
    </contour>
  </outline>
</glyph>
<glyph name="uni0199" format="2">
  <advance width="1186"/>
  <unicode hex="0199"/>
  <anchor x="279" y="1520" name="above"/>
  <outline>
    <contour>
      <point x="186" y="0" type="line"/>
      <point x="371" y="0" type="line"/>
      <point x="371" y="547" type="line"/>
      <point x="940" y="0" type="line"/>
      <point x="1180" y="0" type="line"/>
      <point x="561" y="596" type="line"/>
      <point x="1155" y="1120" type="line"/>
      <point x="920" y="1120" type="line"/>
      <point x="371" y="637" type="line"/>
      <point x="371" y="1150" type="line" smooth="yes"/>
      <point x="371" y="1354"/>
      <point x="412" y="1400"/>
      <point x="552" y="1400" type="curve" smooth="yes"/>
      <point x="720" y="1400" type="line"/>
      <point x="720" y="1556" type="line"/>
      <point x="529" y="1556" type="line" smooth="yes"/>
      <point x="288" y="1556"/>
      <point x="185" y="1435"/>
      <point x="185" y="1150" type="curve"/>
    </contour>
  </outline>
</glyph>
<glyph name="uni019A" format="2">
  <advance width="569"/>
  <unicode hex="019A"/>
  <anchor x="278" y="1520" name="above"/>
  <outline>
    <contour>
      <point x="193" y="1556" type="line"/>
      <point x="377" y="1556" type="line"/>
      <point x="377" y="844" type="line"/>
      <point x="554" y="844" type="line"/>
      <point x="554" y="700" type="line"/>
      <point x="377" y="700" type="line"/>
      <point x="377" y="0" type="line"/>
      <point x="193" y="0" type="line"/>
      <point x="193" y="700" type="line"/>
      <point x="10" y="700" type="line"/>
      <point x="10" y="844" type="line"/>
      <point x="193" y="844" type="line"/>
    </contour>
  </outline>
</glyph>
<glyph name="uni019B" format="2">
  <advance width="1212"/>
  <unicode hex="019B"/>
  <anchor x="642" y="1520" name="above"/>
  <outline>
    <contour>
      <point x="61" y="0" type="line"/>
      <point x="552" y="1074" type="line"/>
      <point x="481" y="1262" type="line"/>
      <point x="181" y="1161" type="line"/>
      <point x="148" y="1260" type="line"/>
      <point x="445" y="1359" type="line"/>
      <point x="370" y="1556" type="line"/>
      <point x="570" y="1556" type="line"/>
      <point x="622" y="1418" type="line"/>
      <point x="936" y="1522" type="line"/>
      <point x="969" y="1425" type="line"/>
      <point x="658" y="1321" type="line"/>
      <point x="1151" y="0" type="line"/>
      <point x="956" y="0" type="line"/>
      <point x="642" y="828" type="line"/>
      <point x="256" y="0" type="line"/>
    </contour>
  </outline>
</glyph>
<glyph name="uni019C" format="2">
  <advance width="1995"/>
  <unicode hex="019C"/>
  <outline>
    <contour>
      <point x="934" y="213" type="qcurve"/>
      <point x="865" y="89"/>
      <point x="673" y="-29"/>
      <point x="543" y="-29" type="qcurve" smooth="yes"/>
      <point x="368" y="-29"/>
      <point x="273" y="94" type="qcurve" smooth="yes"/>
      <point x="178" y="216"/>
      <point x="178" y="442" type="qcurve" smooth="yes"/>
      <point x="178" y="1493" type="line"/>
      <point x="381" y="1493" type="line"/>
      <point x="381" y="452" type="line" smooth="yes"/>
      <point x="381" y="266"/>
      <point x="420" y="213" type="qcurve" smooth="yes"/>
      <point x="477" y="135"/>
      <point x="594" y="135" type="qcurve" smooth="yes"/>
      <point x="737" y="135"/>
      <point x="903" y="325"/>
      <point x="903" y="489" type="qcurve" smooth="yes"/>
      <point x="903" y="1493" type="line"/>
      <point x="1106" y="1493" type="line"/>
      <point x="1106" y="452" type="line" smooth="yes"/>
      <point x="1106" y="290"/>
      <point x="1163" y="212" type="qcurve" smooth="yes"/>
      <point x="1220" y="135"/>
      <point x="1339" y="135" type="qcurve" smooth="yes"/>
      <point x="1462" y="135"/>
      <point x="1545" y="230" type="qcurve" smooth="yes"/>
      <point x="1628" y="326"/>
      <point x="1628" y="489" type="qcurve" smooth="yes"/>
      <point x="1628" y="1493" type="line"/>
      <point x="1831" y="1493" type="line"/>
      <point x="1831" y="-2" type="line"/>
      <point x="1628" y="-2" type="line"/>
      <point x="1628" y="172" type="line"/>
      <point x="1565" y="69"/>
      <point x="1389" y="-29"/>
      <point x="1268" y="-29" type="qcurve" smooth="yes"/>
      <point x="1146" y="-29"/>
      <point x="1060" y="33" type="qcurve" smooth="yes"/>
      <point x="975" y="95"/>
    </contour>
  </outline>
</glyph>
<glyph name="uni019D" format="2">
  <advance width="1532"/>
  <unicode hex="019D"/>
  <anchor x="757" y="1520" name="above"/>
  <outline>
    <contour>
      <point x="-106" y="-410" type="line"/>
      <point x="-34.9961" y="-410" type="line" smooth="yes"/>
      <point x="268" y="-410"/>
      <point x="397" y="-256"/>
      <point x="397" y="104" type="curve" smooth="yes"/>
      <point x="397" y="1249" type="line"/>
      <point x="1059" y="0" type="line"/>
      <point x="1331" y="0" type="line"/>
      <point x="1331" y="1493" type="line"/>
      <point x="1135" y="1493" type="line"/>
      <point x="1135" y="244" type="line"/>
      <point x="473" y="1493" type="line"/>
      <point x="201" y="1493" type="line"/>
      <point x="201" y="104" type="line" smooth="yes"/>
      <point x="201" y="-155"/>
      <point x="136" y="-240"/>
      <point x="-43" y="-240" type="curve" smooth="yes"/>
      <point x="-106" y="-240" type="line"/>
    </contour>
  </outline>
</glyph>
<glyph name="uni019F" format="2">
  <advance width="1612"/>
  <unicode hex="019F"/>
  <anchor x="807" y="1520" name="above"/>
  <anchor x="807" y="0" name="below"/>
  <anchor x="807" y="0" name="cedilla"/>
  <anchor x="0" y="1520" name="half"/>
  <anchor x="808" y="0" name="ogonek"/>
  <outline>
    <contour>
      <point x="115" y="745" type="qcurve" smooth="yes"/>
      <point x="115" y="1099"/>
      <point x="492" y="1520"/>
      <point x="806.5" y="1520" type="qcurve" smooth="yes"/>
      <point x="1121" y="1520"/>
      <point x="1497" y="1099"/>
      <point x="1497" y="745.5" type="qcurve" smooth="yes"/>
      <point x="1497" y="392"/>
      <point x="1121" y="-29"/>
      <point x="806.5" y="-29" type="qcurve" smooth="yes"/>
      <point x="492" y="-29"/>
      <point x="115" y="391"/>
    </contour>
    <contour>
      <point x="807.5" y="1356" type="qcurve" smooth="yes"/>
      <point x="605.5" y="1356"/>
      <point x="350.5" y="1072"/>
      <point x="337.5" y="877" type="qcurve"/>
      <point x="1277.5" y="877" type="line"/>
      <point x="1264.5" y="1072"/>
      <point x="1009.5" y="1356"/>
    </contour>
    <contour>
      <point x="328" y="710" type="line"/>
      <point x="336" y="453"/>
      <point x="587" y="135"/>
      <point x="807" y="135" type="qcurve" smooth="yes"/>
      <point x="1027" y="135"/>
      <point x="1275" y="452"/>
      <point x="1283" y="710" type="qcurve"/>
    </contour>
  </outline>
</glyph>
<glyph name="uni01A2" format="2">
  <advance width="1943"/>
  <unicode hex="01A2"/>
  <outline>
    <contour>
      <point x="1541" y="0" type="line"/>
      <point x="1541" y="979" type="line" smooth="yes"/>
      <point x="1541" y="1173"/>
      <point x="1431" y="1323"/>
      <point x="1309" y="1323" type="qcurve"/>
      <point x="1309" y="182" type="line"/>
      <point x="1121" y="-29"/>
      <point x="806" y="-29" type="qcurve" smooth="yes"/>
      <point x="492" y="-29"/>
      <point x="115" y="391"/>
      <point x="115" y="745" type="qcurve" smooth="yes"/>
      <point x="115" y="1099"/>
      <point x="492" y="1520"/>
      <point x="807" y="1520" type="qcurve" smooth="yes"/>
      <point x="919" y="1520"/>
      <point x="1016" y="1493" type="qcurve"/>
      <point x="1311" y="1493" type="line" smooth="yes"/>
      <point x="1538" y="1493"/>
      <point x="1743" y="1249"/>
      <point x="1743" y="979" type="qcurve" smooth="yes"/>
      <point x="1743" y="0" type="line"/>
    </contour>
    <contour>
      <point x="807" y="1356" type="qcurve" smooth="yes"/>
      <point x="587" y="1356"/>
      <point x="328" y="1028"/>
      <point x="328" y="746" type="qcurve" smooth="yes"/>
      <point x="328" y="463"/>
      <point x="587" y="135"/>
      <point x="807" y="135" type="qcurve" smooth="yes"/>
      <point x="982" y="135"/>
      <point x="1110" y="238" type="qcurve"/>
      <point x="1110" y="1286" type="line"/>
      <point x="972" y="1356"/>
    </contour>
  </outline>
</glyph>
<glyph name="uni01A3" format="2">
  <advance width="1555"/>
  <unicode hex="01A3"/>
  <outline>
    <contour>
      <point x="1185" y="-426" type="line"/>
      <point x="1369" y="-426" type="line"/>
      <point x="1369" y="714" type="line" smooth="yes"/>
      <point x="1369" y="857"/>
      <point x="1342" y="960"/>
      <point x="1288" y="1024" type="curve" smooth="yes"/>
      <point x="1233" y="1088"/>
      <point x="1146" y="1120"/>
      <point x="1025" y="1120" type="curve" smooth="yes"/>
      <point x="809" y="1120" type="line"/>
      <point x="754" y="1138"/>
      <point x="694" y="1147"/>
      <point x="627" y="1147" type="curve" smooth="yes"/>
      <point x="306" y="1147"/>
      <point x="113" y="927"/>
      <point x="113" y="559" type="curve" smooth="yes"/>
      <point x="113" y="192"/>
      <point x="306" y="-29"/>
      <point x="627" y="-29" type="curve" smooth="yes"/>
      <point x="787" y="-29"/>
      <point x="913" y="23"/>
      <point x="1004" y="128" type="curve"/>
      <point x="1004" y="964" type="line"/>
      <point x="1074" y="964"/>
      <point x="1122" y="948"/>
      <point x="1147" y="916" type="curve" smooth="yes"/>
      <point x="1172" y="883"/>
      <point x="1185" y="816"/>
      <point x="1185" y="714" type="curve" smooth="yes"/>
    </contour>
    <contour>
      <point x="627" y="127" type="curve" smooth="yes"/>
      <point x="428" y="127"/>
      <point x="307" y="291"/>
      <point x="307" y="559" type="curve" smooth="yes"/>
      <point x="307" y="827"/>
      <point x="430" y="991"/>
      <point x="627" y="991" type="curve" smooth="yes"/>
      <point x="700" y="991"/>
      <point x="764" y="973"/>
      <point x="820" y="937" type="curve"/>
      <point x="820" y="185" type="line"/>
      <point x="777" y="146"/>
      <point x="713" y="127"/>
    </contour>
  </outline>
</glyph>
<glyph name="uni01A4" format="2">
  <advance width="1335"/>
  <unicode hex="01A4"/>
  <anchor x="770" y="1520" name="above"/>
  <outline>
    <contour>
      <point x="503" y="1327" type="line"/>
      <point x="503" y="766" type="line"/>
      <point x="757" y="766" type="line" smooth="yes"/>
      <point x="898" y="766"/>
      <point x="1052" y="912"/>
      <point x="1052" y="1047" type="qcurve" smooth="yes"/>
      <point x="1052" y="1180.99"/>
      <point x="898.008" y="1327"/>
      <point x="757" y="1327" type="qcurve" smooth="yes"/>
    </contour>
    <contour>
      <point x="301" y="1493" type="qcurve" smooth="yes"/>
      <point x="757" y="1493" type="line" smooth="yes"/>
      <point x="1008.01" y="1493"/>
      <point x="1265" y="1265.99"/>
      <point x="1265" y="1047" type="qcurve" smooth="yes"/>
      <point x="1265" y="825.995"/>
      <point x="1007.99" y="600"/>
      <point x="757" y="600" type="qcurve" smooth="yes"/>
      <point x="503" y="600" type="line"/>
      <point x="503" y="0" type="line"/>
      <point x="301" y="0" type="line"/>
      <point x="301.358" y="1327.52" type="line"/>
      <point x="169.399" y="1327.52"/>
      <point x="51" y="1232.99"/>
      <point x="51" y="1128" type="qcurve" smooth="yes"/>
      <point x="51" y="1079" type="line"/>
      <point x="-105" y="1079" type="line"/>
      <point x="-105" y="1149" type="line" smooth="yes"/>
      <point x="-105" y="1330.01"/>
      <point x="87.0078" y="1493"/>
    </contour>
  </outline>
</glyph>
<glyph name="uni01A5" format="2">
  <advance width="1300"/>
  <unicode hex="01A5"/>
  <outline>
    <contour>
      <point x="185" y="-426" type="line"/>
      <point x="371" y="-426" type="line"/>
      <point x="371" y="168" type="line"/>
      <point x="448" y="35"/>
      <point x="565" y="-29"/>
      <point x="729" y="-29" type="curve" smooth="yes"/>
      <point x="1001" y="-29"/>
      <point x="1188" y="207"/>
      <point x="1188" y="559" type="curve" smooth="yes"/>
      <point x="1188" y="911"/>
      <point x="1001" y="1147"/>
      <point x="729" y="1147" type="curve" smooth="yes"/>
      <point x="565" y="1147"/>
      <point x="448" y="1083"/>
      <point x="371" y="950" type="curve"/>
      <point x="371" y="1150" type="line" smooth="yes"/>
      <point x="371" y="1354"/>
      <point x="412" y="1400"/>
      <point x="552" y="1400" type="curve" smooth="yes"/>
      <point x="783" y="1400" type="line"/>
      <point x="783" y="1556" type="line"/>
      <point x="529" y="1556" type="line" smooth="yes"/>
      <point x="288" y="1556"/>
      <point x="185" y="1435"/>
      <point x="185" y="1150" type="curve" smooth="yes"/>
    </contour>
    <contour>
      <point x="684" y="125" type="curve" smooth="yes"/>
      <point x="489" y="125"/>
      <point x="371" y="288"/>
      <point x="371" y="559" type="curve" smooth="yes"/>
      <point x="371" y="830"/>
      <point x="489" y="993"/>
      <point x="684" y="993" type="curve" smooth="yes"/>
      <point x="879" y="993"/>
      <point x="997" y="830"/>
      <point x="997" y="559" type="curve" smooth="yes"/>
      <point x="997" y="288"/>
      <point x="879" y="125"/>
    </contour>
  </outline>
</glyph>
<glyph name="uni01A6" format="2">
  <advance width="1423"/>
  <unicode hex="01A6"/>
  <outline>
    <contour>
      <point x="909" y="436" type="qcurve"/>
      <point x="974" y="414"/>
      <point x="1097" y="270"/>
      <point x="1159" y="144" type="qcurve"/>
      <point x="1364" y="-264" type="line"/>
      <point x="1147" y="-264" type="line"/>
      <point x="956" y="119" type="line"/>
      <point x="882" y="269"/>
      <point x="743" y="367"/>
      <point x="623" y="367" type="qcurve" smooth="yes"/>
      <point x="403" y="367" type="line"/>
      <point x="403" y="0" type="line"/>
      <point x="201" y="0" type="line"/>
      <point x="201" y="1493" type="line"/>
      <point x="403" y="1493" type="line"/>
      <point x="403" y="1229" type="line"/>
      <point x="657" y="1229" type="line" smooth="yes"/>
      <point x="913" y="1229"/>
      <point x="1165" y="1015"/>
      <point x="1165" y="799" type="qcurve" smooth="yes"/>
      <point x="1165" y="658"/>
      <point x="1034" y="472"/>
    </contour>
    <contour>
      <point x="403" y="1063" type="line"/>
      <point x="403" y="504" type="line"/>
      <point x="657" y="504" type="line" smooth="yes"/>
      <point x="798" y="504"/>
      <point x="952" y="650"/>
      <point x="952" y="918"/>
      <point x="799" y="1063"/>
      <point x="657" y="1063" type="qcurve" smooth="yes"/>
    </contour>
  </outline>
</glyph>
<glyph name="uni01A7" format="2">
  <advance width="1300"/>
  <unicode hex="01A7"/>
  <anchor x="704" y="1520" name="above"/>
  <outline>
    <contour>
      <point x="686" y="-29" type="curve" smooth="yes"/>
      <point x="829" y="-29"/>
      <point x="987" y="3"/>
      <point x="1159" y="66" type="curve"/>
      <point x="1159" y="274" type="line"/>
      <point x="994" y="181"/>
      <point x="836" y="135"/>
      <point x="686" y="135" type="curve" smooth="yes"/>
      <point x="455" y="135"/>
      <point x="325" y="232"/>
      <point x="325" y="389" type="curve" smooth="yes"/>
      <point x="325" y="546"/>
      <point x="409" y="621"/>
      <point x="614" y="662" type="curve" smooth="yes"/>
      <point x="737" y="686" type="line" smooth="yes"/>
      <point x="1038" y="746"/>
      <point x="1165" y="862"/>
      <point x="1165" y="1108" type="curve" smooth="yes"/>
      <point x="1165" y="1354"/>
      <point x="962" y="1520"/>
      <point x="1026" y="1406" type="curve"/>
      <point x="933" y="1482"/>
      <point x="810" y="1520"/>
      <point x="659" y="1520" type="curve" smooth="yes"/>
      <point x="508" y="1520"/>
      <point x="356" y="1495"/>
      <point x="204" y="1444" type="curve"/>
      <point x="204" y="1247" type="line"/>
      <point x="356" y="1320"/>
      <point x="490" y="1356"/>
      <point x="607" y="1356" type="curve" smooth="yes"/>
      <point x="724" y="1356"/>
      <point x="813" y="1335"/>
      <point x="873" y="1292" type="curve" smooth="yes"/>
      <point x="932" y="1249"/>
      <point x="962" y="1192"/>
      <point x="962" y="1120" type="curve" smooth="yes"/>
      <point x="962" y="1047"/>
      <point x="942" y="994"/>
      <point x="903" y="960" type="curve" smooth="yes"/>
      <point x="863" y="927"/>
      <point x="788" y="900"/>
      <point x="677" y="879" type="curve" smooth="yes"/>
      <point x="555" y="854" type="line" smooth="yes"/>
      <point x="254" y="797"/>
      <point x="114" y="655"/>
      <point x="114" y="412" type="curve" smooth="yes"/>
      <point x="114" y="267"/>
      <point x="162" y="158"/>
      <point x="259" y="83" type="curve" smooth="yes"/>
      <point x="356" y="8"/>
      <point x="499" y="-29"/>
    </contour>
  </outline>
</glyph>
